<svg width="24" height="24" viewBox="0 0 24 24" fill="none" xmlns="http://www.w3.org/2000/svg">
<path d="M18.5723 9.48515V20.1891C18.5723 20.6625 18.577 21.1359 18.5723 21.6094C18.5723 21.668 18.5676 21.7242 18.5605 21.7828C18.5699 21.7195 18.577 21.6586 18.5863 21.5953C18.5723 21.6891 18.5465 21.7781 18.5113 21.8672L18.5816 21.6984C18.5535 21.7641 18.5207 21.8273 18.4809 21.8883C18.441 21.9492 18.3871 21.9703 18.5184 21.8437C18.4926 21.8672 18.4715 21.8977 18.4457 21.9234C18.4387 21.9305 18.373 21.9984 18.366 21.9961C18.3684 21.9984 18.5371 21.8742 18.4105 21.9586C18.3496 21.9984 18.2863 22.0312 18.2207 22.0594L18.3895 21.9891C18.3004 22.0242 18.2113 22.05 18.1176 22.0641C18.1809 22.0547 18.2418 22.0477 18.3051 22.0383C18.1551 22.057 17.998 22.05 17.8457 22.05H7.32461C6.83711 22.05 6.34961 22.0547 5.86445 22.05C5.80586 22.05 5.74961 22.0453 5.69102 22.0383C5.7543 22.0477 5.81523 22.0547 5.87852 22.0641C5.78477 22.05 5.6957 22.0242 5.60664 21.9891L5.77539 22.0594C5.70977 22.0312 5.64648 21.9984 5.58555 21.9586C5.52461 21.9187 5.50352 21.8648 5.63008 21.9961C5.60664 21.9703 5.57617 21.9492 5.55039 21.9234C5.54336 21.9164 5.47539 21.8508 5.47773 21.8437C5.47539 21.8461 5.59961 22.0148 5.51523 21.8883C5.47539 21.8273 5.44258 21.7641 5.41445 21.6984L5.48477 21.8672C5.44961 21.7781 5.42383 21.6891 5.40977 21.5953C5.41914 21.6586 5.42617 21.7195 5.43555 21.7828C5.4168 21.6352 5.42383 21.4828 5.42383 21.3328V10.9945C5.42383 10.4977 5.43789 9.99843 5.42383 9.5039V9.48281L4.7207 10.1859H17.4824C18.0684 10.1859 18.6566 10.1977 19.2449 10.1859H19.2684C19.6363 10.1859 19.9879 9.8625 19.9715 9.48281C19.9551 9.10078 19.6621 8.77968 19.2684 8.77968H6.50664C5.9207 8.77968 5.33242 8.76796 4.74414 8.77968H4.7207C4.34102 8.77968 4.01758 9.10078 4.01758 9.48281V21.45C4.01758 21.6258 4.02461 21.7898 4.05508 21.968C4.1957 22.8258 5.00195 23.4445 5.85273 23.4539C6.12227 23.4562 6.39414 23.4539 6.66602 23.4539H18.141C18.6074 23.4492 19.0316 23.2734 19.3809 22.9687C19.7371 22.657 19.9176 22.2094 19.9668 21.75C19.9973 21.4664 19.9738 21.1687 19.9738 20.8852V9.48515C19.9738 9.11718 19.6504 8.76562 19.2707 8.78203C18.8934 8.79843 18.5723 9.08906 18.5723 9.48515Z" fill="#367971"/>
<path d="M2.89434 16.1859H4.7248L4.02168 15.4828V21.6211L4.7248 20.918H3.75215C3.41934 20.918 3.06777 20.9484 2.73496 20.9063C2.79824 20.9156 2.85918 20.9227 2.92246 20.932C2.82871 20.918 2.73965 20.8922 2.65059 20.857L2.81934 20.9273C2.75371 20.8992 2.69043 20.8664 2.62949 20.8266C2.56855 20.7867 2.54746 20.7328 2.67402 20.8641C2.65059 20.8383 2.62012 20.8172 2.59434 20.7914C2.5873 20.7844 2.51934 20.7188 2.52168 20.7117C2.51934 20.7141 2.64355 20.8828 2.55918 20.7563C2.51934 20.6953 2.48652 20.632 2.4584 20.5664L2.52871 20.7352C2.49355 20.6461 2.46777 20.557 2.45371 20.4633C2.46309 20.5266 2.47012 20.5875 2.47949 20.6508C2.4584 20.4867 2.46777 20.3156 2.46777 20.1492V17.0484C2.46777 16.8516 2.45371 16.6477 2.47949 16.4508C2.47012 16.5141 2.46309 16.575 2.45371 16.6383C2.46777 16.5445 2.49355 16.4555 2.52871 16.3664L2.4584 16.5352C2.48652 16.4695 2.51934 16.4063 2.55918 16.3453C2.59902 16.2844 2.65293 16.2633 2.52168 16.3898C2.54746 16.3664 2.56855 16.3359 2.59434 16.3102C2.60137 16.3031 2.66699 16.2352 2.67402 16.2375C2.67168 16.2352 2.50293 16.3594 2.62949 16.275C2.69043 16.2352 2.75371 16.2023 2.81934 16.1742L2.65059 16.2445C2.73965 16.2094 2.82871 16.1836 2.92246 16.1695C2.85918 16.1789 2.79824 16.1859 2.73496 16.1953C2.78887 16.1906 2.84043 16.1859 2.89434 16.1859C3.2623 16.1813 3.61387 15.8672 3.59746 15.4828C3.58105 15.1055 3.28809 14.775 2.89434 14.7797C2.10684 14.7914 1.44121 15.2789 1.16699 16.0102C1.06855 16.268 1.06152 16.5398 1.06152 16.8117V20.4C1.06152 20.7961 1.14355 21.1945 1.38027 21.5203C1.74824 22.0313 2.29902 22.3266 2.93184 22.3266C3.52949 22.3289 4.12715 22.3266 4.7248 22.3266C5.10449 22.3266 5.42793 22.0055 5.42793 21.6234V15.4852C5.42793 15.1055 5.10684 14.782 4.7248 14.782H2.89434C2.52637 14.782 2.1748 15.1055 2.19121 15.4852C2.20996 15.8625 2.50059 16.1859 2.89434 16.1859ZM21.5318 16.6125V20.0695C21.5318 20.2617 21.5459 20.4609 21.5201 20.6508C21.5295 20.5875 21.5365 20.5266 21.5459 20.4633C21.5318 20.557 21.5061 20.6461 21.4709 20.7352L21.5412 20.5664C21.5131 20.632 21.4803 20.6953 21.4404 20.7563C21.4006 20.8172 21.3467 20.8383 21.4779 20.7117C21.4521 20.7352 21.4311 20.7656 21.4053 20.7914C21.3982 20.7984 21.3326 20.8664 21.3256 20.8641C21.3279 20.8664 21.4967 20.7422 21.3701 20.8266C21.3092 20.8664 21.2459 20.8992 21.1803 20.9273L21.349 20.857C21.26 20.8922 21.1709 20.918 21.0771 20.932C21.1404 20.9227 21.2014 20.9156 21.2646 20.9063C20.9318 20.9484 20.5803 20.918 20.2475 20.918H19.2748L19.9779 21.6211V15.4828L19.2748 16.1859H20.2475C20.5803 16.1859 20.9318 16.1555 21.2646 16.1977C21.2014 16.1883 21.1404 16.1813 21.0771 16.1719C21.1709 16.1859 21.26 16.2117 21.349 16.2469L21.1803 16.1766C21.2459 16.2047 21.3092 16.2375 21.3701 16.2773C21.4311 16.3172 21.4521 16.3711 21.3256 16.2398C21.349 16.2656 21.3795 16.2867 21.4053 16.3125C21.4123 16.3195 21.4803 16.3852 21.4779 16.3922C21.4803 16.3898 21.3561 16.2211 21.4404 16.3477C21.4803 16.4086 21.5131 16.4719 21.5412 16.5375L21.4709 16.3688C21.5061 16.4578 21.5318 16.5469 21.5459 16.6406C21.5365 16.5773 21.5295 16.5164 21.5201 16.4531C21.5271 16.507 21.5318 16.5586 21.5318 16.6125C21.5365 16.9805 21.8506 17.332 22.235 17.3156C22.6123 17.2992 22.9428 17.0063 22.9381 16.6125C22.924 15.5977 22.0967 14.782 21.0818 14.7797C20.6412 14.7773 20.2006 14.7797 19.7623 14.7797H19.2748C18.8951 14.7797 18.5717 15.1008 18.5717 15.4828V21.6211C18.5717 22.0008 18.8928 22.3242 19.2748 22.3242H20.7373C20.9998 22.3242 21.2553 22.3289 21.5154 22.2773C22.1482 22.1484 22.6404 21.6445 22.849 21.0516C22.992 20.6484 22.9381 20.1469 22.9381 19.725V16.6148C22.9381 16.2469 22.6146 15.8953 22.235 15.9117C21.8553 15.9281 21.5318 16.2188 21.5318 16.6125ZM21.0584 4.28203V7.91016C21.0584 8.10938 21.0725 8.31563 21.0467 8.51485C21.0561 8.45157 21.0631 8.39063 21.0725 8.32735C21.0584 8.4211 21.0326 8.51016 20.9975 8.59922L21.0678 8.43047C21.0396 8.4961 21.0068 8.55938 20.967 8.62032C20.9271 8.68125 20.8732 8.70235 21.0045 8.57578C20.9787 8.59922 20.9576 8.62969 20.9318 8.65547C20.9248 8.6625 20.8592 8.73047 20.8521 8.72813C20.8545 8.73047 21.0232 8.60625 20.8967 8.69063C20.8357 8.73047 20.7725 8.76328 20.7068 8.79141L20.8756 8.7211C20.7865 8.75625 20.6975 8.78203 20.6037 8.7961C20.667 8.78672 20.7279 8.77969 20.7912 8.77032C20.5967 8.7961 20.3951 8.78203 20.2006 8.78203H3.38887C3.32793 8.78203 3.26934 8.77735 3.2084 8.77032C3.27168 8.77969 3.33262 8.78672 3.3959 8.7961C3.30215 8.78203 3.21309 8.75625 3.12402 8.7211L3.29277 8.79141C3.22715 8.76328 3.16387 8.73047 3.10293 8.69063C3.04199 8.65078 3.0209 8.59688 3.14746 8.72813C3.12402 8.70235 3.09355 8.68125 3.06777 8.65547C3.06074 8.64844 2.99277 8.58282 2.99512 8.57578C2.99277 8.57813 3.11699 8.74688 3.03262 8.62032C2.99277 8.55938 2.95996 8.4961 2.93184 8.43047L3.00215 8.59922C2.96699 8.51016 2.94121 8.4211 2.92715 8.32735C2.93652 8.39063 2.94355 8.45157 2.95293 8.51485C2.93184 8.34375 2.94121 8.16563 2.94121 7.99219V4.74141C2.94121 4.5375 2.92715 4.32422 2.95293 4.12266C2.94355 4.18594 2.93652 4.24688 2.92715 4.31016C2.94121 4.21641 2.96699 4.12735 3.00215 4.03829L2.93184 4.20704C2.95996 4.14141 2.99277 4.07813 3.03262 4.01719C3.07246 3.95625 3.12637 3.93516 2.99512 4.06172C3.0209 4.03829 3.04199 4.00782 3.06777 3.98203C3.0748 3.975 3.14043 3.90704 3.14746 3.90938C3.14512 3.90704 2.97637 4.03125 3.10293 3.94688C3.16387 3.90704 3.22715 3.87422 3.29277 3.8461L3.12402 3.91641C3.21309 3.88125 3.30215 3.85547 3.3959 3.84141C3.33262 3.85079 3.27168 3.85782 3.2084 3.86719C3.40293 3.84141 3.60449 3.85547 3.79902 3.85547H20.6107C20.6717 3.85547 20.7303 3.86016 20.7912 3.86719C20.7279 3.85782 20.667 3.85079 20.6037 3.84141C20.6975 3.85547 20.7865 3.88125 20.8756 3.91641L20.7068 3.8461C20.7725 3.87422 20.8357 3.90704 20.8967 3.94688C20.9576 3.98672 20.9787 4.04063 20.8521 3.90938C20.8756 3.93516 20.9061 3.95625 20.9318 3.98203C20.9389 3.98907 21.0068 4.05469 21.0045 4.06172C21.0068 4.05938 20.8826 3.89063 20.967 4.01719C21.0068 4.07813 21.0396 4.14141 21.0678 4.20704L20.9975 4.03829C21.0326 4.12735 21.0584 4.21641 21.0725 4.31016C21.0631 4.24688 21.0561 4.18594 21.0467 4.12266C21.0537 4.17422 21.0584 4.22813 21.0584 4.28203C21.0631 4.65 21.3771 5.00157 21.7615 4.98516C22.1389 4.96875 22.4693 4.67579 22.4646 4.28203C22.4506 3.27657 21.635 2.4586 20.6271 2.44922H4.21152C3.93027 2.44922 3.64668 2.44688 3.36543 2.44922C2.35527 2.46094 1.54199 3.2836 1.53027 4.29375C1.52793 4.59375 1.53027 4.8961 1.53027 5.1961V8.15391C1.53027 8.23125 1.52793 8.3086 1.53027 8.38594C1.54902 8.99297 1.84902 9.51797 2.33652 9.86953C2.6623 10.1039 3.06074 10.1883 3.45684 10.1883H20.5662C21.1006 10.1883 21.6443 9.98907 21.9936 9.57188C22.2889 9.22032 22.4553 8.80547 22.46 8.34141V4.28203C22.46 3.91407 22.1365 3.5625 21.7568 3.57891C21.3818 3.59532 21.0584 3.88829 21.0584 4.28203Z" fill="#367971"/>
<path d="M14.2293 2.37893V3.15237L14.9324 2.44924H9.0707L9.77383 3.15237C9.77383 2.84533 9.7457 2.52424 9.78555 2.21721C9.77617 2.28049 9.76914 2.34143 9.75977 2.40471C9.77383 2.31096 9.79961 2.2219 9.83477 2.13283L9.76445 2.30158C9.79258 2.23596 9.82539 2.17268 9.86523 2.11174C9.90508 2.0508 9.95898 2.02971 9.82773 2.15627C9.85352 2.13283 9.87461 2.10237 9.90039 2.07658C9.90742 2.06955 9.97305 2.00158 9.98008 2.00393C9.97773 2.00158 9.80898 2.1258 9.93555 2.04143C9.99648 2.00158 10.0598 1.96877 10.1254 1.94065L9.95664 2.01096C10.0457 1.9758 10.1348 1.95002 10.2285 1.93596C10.1652 1.94533 10.1043 1.95237 10.041 1.96174C10.198 1.94065 10.3574 1.95002 10.5168 1.95002H13.4043C13.5895 1.95002 13.7816 1.9383 13.9668 1.96174C13.9035 1.95237 13.8426 1.94533 13.7793 1.93596C13.873 1.95002 13.9621 1.9758 14.0512 2.01096L13.8824 1.94065C13.948 1.96877 14.0113 2.00158 14.0723 2.04143C14.1332 2.08127 14.1543 2.13518 14.0277 2.00393C14.0512 2.02971 14.0816 2.0508 14.1074 2.07658C14.1145 2.08362 14.1824 2.14924 14.1801 2.15627C14.1824 2.15393 14.0582 1.98518 14.1426 2.11174C14.1824 2.17268 14.2152 2.23596 14.2434 2.30158L14.173 2.13283C14.2082 2.2219 14.234 2.31096 14.248 2.40471C14.2387 2.34143 14.2316 2.28049 14.2223 2.21721L14.2293 2.37893C14.234 2.7469 14.548 3.09846 14.9324 3.08205C15.3098 3.06565 15.6402 2.77268 15.6355 2.37893C15.6262 1.74377 15.3051 1.17893 14.7777 0.827365C14.473 0.625803 14.1051 0.543772 13.7465 0.543772H10.7324C10.2004 0.543772 9.66133 0.520334 9.19727 0.843772C8.6793 1.20705 8.36758 1.76018 8.36523 2.39768V3.15002C8.36523 3.52971 8.68633 3.85315 9.06836 3.85315H14.9301C15.3098 3.85315 15.6332 3.53205 15.6332 3.15002V2.37658C15.6332 2.00862 15.3098 1.65705 14.9301 1.67346C14.5504 1.69221 14.2293 1.98518 14.2293 2.37893Z" fill="#367971"/>
<path d="M15.4689 3.15235V10.8867C15.4689 11.243 15.4619 11.6016 15.4689 11.9578V11.9742C15.4689 12.3422 15.7924 12.6938 16.1721 12.6773C16.5541 12.6609 16.8752 12.368 16.8752 11.9742V4.23985C16.8752 3.8836 16.8822 3.525 16.8752 3.16875V3.15235C16.8752 2.78438 16.5518 2.43282 16.1721 2.44922C15.79 2.46563 15.4689 2.7586 15.4689 3.15235ZM7.1252 3.15235V10.8867C7.1252 11.243 7.11816 11.6016 7.1252 11.9578V11.9742C7.1252 12.3422 7.44863 12.6938 7.82832 12.6773C8.21035 12.6609 8.53145 12.368 8.53145 11.9742V4.23985C8.53145 3.8836 8.53848 3.525 8.53145 3.16875V3.15235C8.53145 2.78438 8.20801 2.43282 7.82832 2.44922C7.44863 2.46563 7.1252 2.7586 7.1252 3.15235ZM10.2002 19.4813H13.8025C14.1705 19.4813 14.5221 19.1578 14.5057 18.7781C14.4893 18.3961 14.1963 18.075 13.8025 18.075H10.2002C9.83223 18.075 9.48066 18.3984 9.49707 18.7781C9.51348 19.1602 9.8041 19.4813 10.2002 19.4813Z" fill="#367971"/>
</svg>
