<svg width="24" height="24" viewBox="0 0 24 24" fill="none" xmlns="http://www.w3.org/2000/svg">
<path fill-rule="evenodd" clip-rule="evenodd" d="M8.25 1.5C8.66423 1.5 9 1.83579 9 2.25V3H12.75C13.1642 3 13.5 3.33579 13.5 3.75C13.5 4.16421 13.1642 4.5 12.75 4.5H9V5.25C9 5.66421 8.66423 6 8.25 6C7.83577 6 7.5 5.66421 7.5 5.25V4.5H6C4.34314 4.5 3 5.84314 3 7.5V18C3 19.6568 4.34314 21 6 21H18C19.6568 21 21 19.6568 21 18V7.5C21 5.84314 19.6568 4.5 18 4.5H16.5V5.25C16.5 5.66421 16.1642 6 15.75 6C15.3358 6 15 5.66421 15 5.25V2.25C15 1.83579 15.3358 1.5 15.75 1.5C16.1642 1.5 16.5 1.83579 16.5 2.25V3H18C20.4853 3 22.5 5.01472 22.5 7.5V18C22.5 20.4853 20.4853 22.5 18 22.5H6C3.51472 22.5 1.5 20.4853 1.5 18V7.5C1.5 5.01472 3.51472 3 6 3H7.5V2.25C7.5 1.83579 7.83577 1.5 8.25 1.5ZM5.25 9C5.25 8.58577 5.58579 8.25 6 8.25H18C18.4142 8.25 18.75 8.58577 18.75 9C18.75 9.41423 18.4142 9.75 18 9.75H6C5.58579 9.75 5.25 9.41423 5.25 9ZM6.75 12.75C6.33579 12.75 6 13.0858 6 13.5C6 13.9142 6.33579 14.25 6.75 14.25H8.25C8.66423 14.25 9 13.9142 9 13.5C9 13.0858 8.66423 12.75 8.25 12.75H6.75ZM10.5 13.5C10.5 13.0858 10.8358 12.75 11.25 12.75H17.25C17.6642 12.75 18 13.0858 18 13.5C18 13.9142 17.6642 14.25 17.25 14.25H11.25C10.8358 14.25 10.5 13.9142 10.5 13.5ZM6.75 16.5C6.33579 16.5 6 16.8358 6 17.25C6 17.6642 6.33579 18 6.75 18H14.25C14.6642 18 15 17.6642 15 17.25C15 16.8358 14.6642 16.5 14.25 16.5H6.75Z" fill="#367971"/>
</svg>
