<svg width="24" height="24" viewBox="0 0 24 24" fill="none" xmlns="http://www.w3.org/2000/svg">
<path fill-rule="evenodd" clip-rule="evenodd" d="M8.25 1.5C8.66423 1.5 9 1.83579 9 2.25V3H12.75C13.1642 3 13.5 3.33579 13.5 3.75C13.5 4.16421 13.1642 4.5 12.75 4.5H9V5.25C9 5.66421 8.66423 6 8.25 6C7.83577 6 7.5 5.66421 7.5 5.25V4.5H6C4.34314 4.5 3 5.84314 3 7.5V18C3 19.6568 4.34314 21 6 21H18C19.6568 21 21 19.6568 21 18V7.5C21 5.84314 19.6568 4.5 18 4.5H16.5V5.25C16.5 5.66421 16.1642 6 15.75 6C15.3358 6 15 5.66421 15 5.25V2.25C15 1.83579 15.3358 1.5 15.75 1.5C16.1642 1.5 16.5 1.83579 16.5 2.25V3H18C20.4853 3 22.5 5.01472 22.5 7.5V18C22.5 20.4853 20.4853 22.5 18 22.5H6C3.51472 22.5 1.5 20.4853 1.5 18V7.5C1.5 5.01472 3.51472 3 6 3H7.5V2.25C7.5 1.83579 7.83577 1.5 8.25 1.5ZM6.75001 10.5C6.75001 10.0858 7.08579 9.75 7.5 9.75H10.875C11.166 9.75 11.4307 9.91838 11.5542 10.1819C11.6776 10.4454 11.6375 10.7566 11.4511 10.9802L10.3391 12.3147C11.3238 12.8067 12 13.8244 12 15C12 16.6568 10.6568 18 9 18C8.65072 18 8.31382 17.94 8.0001 17.8291C7.62667 17.6972 7.28786 17.4937 6.99983 17.2359C6.69118 16.9597 6.66491 16.4855 6.94115 16.1769C7.2174 15.8683 7.69155 15.8419 8.00017 16.1182C8.145 16.2478 8.31442 16.3492 8.49997 16.4149C8.65537 16.4698 8.82338 16.5 9 16.5C9.82845 16.5 10.5 15.8285 10.5 15C10.5 14.1715 9.82845 13.5 9 13.5C8.709 13.5 8.44425 13.3316 8.3208 13.0681C8.19735 12.8046 8.23755 12.4934 8.42385 12.2698L9.27375 11.25H7.5C7.08579 11.25 6.75001 10.9142 6.75001 10.5ZM16.5 10.5C16.5 10.2401 16.3654 9.9987 16.1443 9.86205C15.9232 9.72532 15.647 9.71295 15.4146 9.8292L13.9146 10.5792C13.5441 10.7645 13.3939 11.2149 13.5791 11.5854C13.7644 11.9559 14.2149 12.106 14.5854 11.9208L15 11.7135V17.25C15 17.6642 15.3358 18 15.75 18C16.1642 18 16.5 17.6642 16.5 17.25V10.5Z" fill="#367971"/>
</svg>
