<svg width="24" height="24" viewBox="0 0 24 24" fill="none" xmlns="http://www.w3.org/2000/svg">
<path fill-rule="evenodd" clip-rule="evenodd" d="M9 2.25C9 1.83579 8.66423 1.5 8.25 1.5C7.83577 1.5 7.5 1.83579 7.5 2.25V3H6C3.51472 3 1.5 5.01472 1.5 7.5V18C1.5 20.4853 3.51472 22.5 6 22.5H18C20.4853 22.5 22.5 20.4853 22.5 18V7.5C22.5 5.01472 20.4853 3 18 3H16.5V2.25C16.5 1.83579 16.1642 1.5 15.75 1.5C15.3358 1.5 15 1.83579 15 2.25V5.25C15 5.66421 15.3358 6 15.75 6C16.1642 6 16.5 5.66421 16.5 5.25V4.5H18C19.6568 4.5 21 5.84314 21 7.5V18C21 19.6568 19.6568 21 18 21H6C4.34314 21 3 19.6568 3 18V7.5C3 5.84314 4.34314 4.5 6 4.5H7.5V5.25C7.5 5.66421 7.83577 6 8.25 6C8.66423 6 9 5.66421 9 5.25V4.5H12.75C13.1642 4.5 13.5 4.16421 13.5 3.75C13.5 3.33579 13.1642 3 12.75 3H9V2.25ZM6 8.25C5.58579 8.25 5.25 8.58577 5.25 9C5.25 9.41423 5.58579 9.75 6 9.75H18C18.4142 9.75 18.75 9.41423 18.75 9C18.75 8.58577 18.4142 8.25 18 8.25H6ZM6.375 14.25C6.99632 14.25 7.5 13.7463 7.5 13.125C7.5 12.5037 6.99632 12 6.375 12C5.75368 12 5.25 12.5037 5.25 13.125C5.25 13.7463 5.75368 14.25 6.375 14.25ZM7.5 17.625C7.5 18.2463 6.99632 18.75 6.375 18.75C5.75368 18.75 5.25 18.2463 5.25 17.625C5.25 17.0037 5.75368 16.5 6.375 16.5C6.99632 16.5 7.5 17.0037 7.5 17.625ZM17.625 14.25C18.2463 14.25 18.75 13.7463 18.75 13.125C18.75 12.5037 18.2463 12 17.625 12C17.0037 12 16.5 12.5037 16.5 13.125C16.5 13.7463 17.0037 14.25 17.625 14.25ZM13.125 13.125C13.125 13.7463 12.6213 14.25 12 14.25C11.3787 14.25 10.875 13.7463 10.875 13.125C10.875 12.5037 11.3787 12 12 12C12.6213 12 13.125 12.5037 13.125 13.125ZM12 18.75C12.6213 18.75 13.125 18.2463 13.125 17.625C13.125 17.0037 12.6213 16.5 12 16.5C11.3787 16.5 10.875 17.0037 10.875 17.625C10.875 18.2463 11.3787 18.75 12 18.75ZM18.75 17.625C18.75 18.2463 18.2463 18.75 17.625 18.75C17.0037 18.75 16.5 18.2463 16.5 17.625C16.5 17.0037 17.0037 16.5 17.625 16.5C18.2463 16.5 18.75 17.0037 18.75 17.625Z" fill="#367971"/>
</svg>
