<svg width="24" height="24" viewBox="0 0 24 24" fill="none" xmlns="http://www.w3.org/2000/svg">
<path d="M9.22792 3.68377L8.51641 3.92094V3.92094L9.22792 3.68377ZM10.7257 8.17721L10.0142 8.41438V8.41438L10.7257 8.17721ZM10.2243 9.38787L10.5597 10.0587H10.5597L10.2243 9.38787ZM7.96701 10.5165L7.6316 9.84568C7.27157 10.0257 7.11784 10.4578 7.28329 10.8248L7.96701 10.5165ZM13.4835 16.033L13.1752 16.7167C13.5422 16.8822 13.9743 16.7284 14.1543 16.3684L13.4835 16.033ZM14.6121 13.7757L13.9413 13.4403L14.6121 13.7757ZM15.8228 13.2743L15.5856 13.9858L15.5856 13.9858L15.8228 13.2743ZM20.3162 14.7721L20.5534 14.0606L20.3162 14.7721ZM5 2.25C3.48122 2.25 2.25 3.48122 2.25 5H3.75C3.75 4.30964 4.30964 3.75 5 3.75V2.25ZM8.27924 2.25H5V3.75H8.27924V2.25ZM9.93944 3.4466C9.70124 2.732 9.03249 2.25 8.27924 2.25V3.75C8.38685 3.75 8.48238 3.81886 8.51641 3.92094L9.93944 3.4466ZM11.4372 7.94004L9.93944 3.4466L8.51641 3.92094L10.0142 8.41438L11.4372 7.94004ZM10.5597 10.0587C11.3386 9.66921 11.7126 8.76624 11.4372 7.94004L10.0142 8.41438C10.0536 8.53241 10.0001 8.66141 9.88886 8.71705L10.5597 10.0587ZM8.30242 11.1873L10.5597 10.0587L9.88886 8.71705L7.6316 9.84568L8.30242 11.1873ZM13.7918 15.3493C11.5138 14.3222 9.67779 12.4862 8.65073 10.2082L7.28329 10.8248C8.46071 13.4362 10.5638 15.5393 13.1752 16.7167L13.7918 15.3493ZM13.9413 13.4403L12.8127 15.6976L14.1543 16.3684L15.283 14.1111L13.9413 13.4403ZM16.06 12.5628C15.2338 12.2874 14.3308 12.6614 13.9413 13.4403L15.283 14.1111C15.3386 13.9999 15.4676 13.9464 15.5856 13.9858L16.06 12.5628ZM20.5534 14.0606L16.06 12.5628L15.5856 13.9858L20.0791 15.4836L20.5534 14.0606ZM21.75 15.7208C21.75 14.9675 21.268 14.2988 20.5534 14.0606L20.0791 15.4836C20.1811 15.5176 20.25 15.6132 20.25 15.7208H21.75ZM21.75 19V15.7208H20.25V19H21.75ZM19 21.75C20.5188 21.75 21.75 20.5188 21.75 19H20.25C20.25 19.6904 19.6904 20.25 19 20.25V21.75ZM18 21.75H19V20.25H18V21.75ZM2.25 6C2.25 14.6985 9.30152 21.75 18 21.75V20.25C10.1299 20.25 3.75 13.8701 3.75 6H2.25ZM2.25 5V6H3.75V5H2.25Z" fill="#367971"/>
</svg>
