<svg width="24" height="24" viewBox="0 0 24 24" fill="none" xmlns="http://www.w3.org/2000/svg">
<path d="M22.1296 12.2508C21.9843 12.4758 21.8366 12.7031 21.6913 12.9281C21.3397 13.4695 20.9905 14.0133 20.6389 14.5547C20.2147 15.2109 19.7905 15.8672 19.3663 16.5234C18.9983 17.0906 18.6327 17.6578 18.2647 18.225C18.0866 18.4992 17.8991 18.7711 17.7304 19.0523C17.728 19.057 17.7257 19.0594 17.7233 19.0641C17.9249 18.9469 18.1288 18.832 18.3304 18.7148C17.8241 18.7148 17.3179 18.7148 16.8116 18.7148C15.5975 18.7148 14.3835 18.7148 13.1671 18.7148C11.7022 18.7148 10.2397 18.7148 8.77488 18.7148C7.5116 18.7148 6.24597 18.7148 4.98269 18.7148C4.37097 18.7148 3.75691 18.7008 3.14285 18.7148C3.13347 18.7148 3.12644 18.7148 3.11707 18.7148C3.34207 18.8859 3.56941 19.0594 3.79441 19.2305C3.58582 18.6773 3.37722 18.1219 3.16863 17.5687C2.83582 16.6851 2.50301 15.8039 2.17019 14.9203C2.09285 14.7187 2.01785 14.5148 1.94051 14.3133C1.71551 14.6109 1.48816 14.9062 1.26316 15.2039C1.83972 15.2039 2.41629 15.2039 2.99285 15.2039C4.29363 15.2039 5.59207 15.2039 6.89285 15.2039C8.28035 15.2039 9.67019 15.2039 11.0577 15.2039C11.9014 15.2039 12.7452 15.2039 13.5866 15.2039C13.6358 15.2039 13.6874 15.2062 13.7366 15.2039C14.0132 15.1969 14.1843 15.0656 14.346 14.8547C14.3577 14.8406 14.3671 14.8266 14.3788 14.8125C14.4397 14.7328 14.5007 14.6555 14.5616 14.5758C14.946 14.0742 15.3304 13.575 15.7147 13.0734C15.7452 13.0359 15.7733 12.9961 15.8038 12.9586C15.6022 13.0758 15.3983 13.1906 15.1968 13.3078C16.0499 13.3078 16.903 13.3078 17.7561 13.3078C19.1061 13.3078 20.4561 13.3078 21.8061 13.3078C22.1155 13.3078 22.4272 13.3078 22.7366 13.3078C23.1046 13.3078 23.4561 12.9844 23.4397 12.6047C23.4233 12.2226 23.1304 11.9016 22.7366 11.9016C22.3194 11.9016 21.8999 11.9016 21.4827 11.9016C20.578 11.9016 19.6733 11.9016 18.7686 11.9016C17.8991 11.9016 17.0296 11.9016 16.16 11.9016C15.9022 11.9016 15.6468 11.9016 15.3889 11.9016C15.3327 11.9016 15.2741 11.8992 15.2179 11.9016C15.1499 11.9039 15.0772 11.9086 15.0116 11.9273C14.81 11.9836 14.6835 12.1289 14.5639 12.2859C14.1022 12.8883 13.6405 13.4906 13.1788 14.0906C13.1647 14.1094 13.1507 14.1258 13.1366 14.1445C13.3382 14.0273 13.5421 13.9125 13.7436 13.7953C13.3288 13.7953 12.9163 13.7953 12.5014 13.7953C11.5077 13.7953 10.5139 13.7953 9.52019 13.7953C8.31785 13.7953 7.11551 13.7953 5.91551 13.7953C4.87722 13.7953 3.83894 13.7953 2.79832 13.7953C2.29441 13.7953 1.79051 13.7859 1.2866 13.7953C1.27957 13.7953 1.27254 13.7953 1.26551 13.7953C0.84363 13.7953 0.424099 14.25 0.588162 14.6859C0.796755 15.2391 1.00535 15.7945 1.21394 16.3476C1.54676 17.2312 1.87957 18.1125 2.21238 18.9961C2.28972 19.1976 2.36472 19.4016 2.44207 19.6031C2.55222 19.8961 2.79129 20.1187 3.11941 20.1187C3.42879 20.1187 3.73816 20.1187 4.04754 20.1187C4.83738 20.1187 5.62957 20.1187 6.41941 20.1187C7.48113 20.1187 8.54051 20.1187 9.60223 20.1187C10.7296 20.1187 11.8593 20.1187 12.9866 20.1187C13.978 20.1187 14.9694 20.1187 15.9585 20.1187C16.6077 20.1187 17.2593 20.1187 17.9085 20.1187C18.0397 20.1187 18.171 20.1211 18.3022 20.1187C18.5718 20.1141 18.7874 19.9898 18.9374 19.7648C18.9702 19.718 19.0007 19.6687 19.0311 19.6195C19.4507 18.9703 19.8725 18.3187 20.2921 17.6695C20.8944 16.7391 21.4968 15.8086 22.0991 14.8781C22.4929 14.2687 22.8889 13.6594 23.2827 13.05C23.3014 13.0195 23.3225 12.9891 23.3413 12.9586C23.5405 12.6492 23.4139 12.1687 23.0882 11.9976C22.7413 11.8148 22.3429 11.9203 22.1296 12.2508Z" fill="#367971"/>
<path d="M19.816 11.904C18.8223 11.904 17.8285 11.904 16.8348 11.904C16.3356 11.904 15.8364 11.904 15.3371 11.904C15.295 11.904 15.2504 11.904 15.2082 11.904C15.077 11.9063 14.9551 11.9321 14.8403 12C14.7207 12.0704 14.6528 12.1688 14.5707 12.2743C14.4371 12.4477 14.3035 12.6211 14.1723 12.7946C13.8254 13.2469 13.4785 13.6969 13.134 14.1493C13.3356 14.0321 13.5395 13.9172 13.741 13.8C13.3848 13.8 13.0309 13.8 12.6746 13.8C11.8215 13.8 10.9684 13.8 10.1153 13.8C9.08167 13.8 8.05042 13.8 7.01683 13.8C6.12152 13.8 5.22386 13.8 4.32855 13.8C3.89495 13.8 3.46136 13.7883 3.02777 13.8C3.02073 13.8 3.01605 13.8 3.00902 13.8C3.23402 14.0977 3.46136 14.393 3.68636 14.6907C3.98402 13.8868 4.28167 13.0805 4.57698 12.2766C5.04573 11.004 5.51683 9.73364 5.98558 8.46099C6.09339 8.17036 6.19886 7.88208 6.30667 7.59145C6.08167 7.76255 5.85433 7.93599 5.62933 8.10708C5.98089 8.10708 6.33011 8.10708 6.68167 8.10708C7.51839 8.10708 8.35745 8.10708 9.19417 8.10708C10.2067 8.10708 11.2192 8.10708 12.2317 8.10708C13.1106 8.10708 13.9895 8.10708 14.8684 8.10708C15.295 8.10708 15.7215 8.1188 16.1481 8.10708C16.1528 8.10708 16.1598 8.10708 16.1645 8.10708C15.9629 7.98989 15.759 7.87505 15.5575 7.75786C15.97 8.34614 16.3825 8.93208 16.7926 9.52036C17.4489 10.4555 18.1028 11.3883 18.759 12.3235C18.909 12.5368 19.0567 12.7477 19.2067 12.961C19.3145 13.1133 19.441 13.2329 19.6262 13.2844C19.795 13.3313 20.0176 13.3102 20.1676 13.2141C20.4653 13.0219 20.6457 12.5743 20.4207 12.2532C20.2168 11.9625 20.0106 11.6696 19.8067 11.379C19.3637 10.7485 18.9231 10.1204 18.4801 9.48989C18.0582 8.88989 17.6387 8.28989 17.2168 7.68989C17.095 7.51646 16.9731 7.34067 16.8512 7.16724C16.8254 7.13208 16.802 7.09692 16.7762 7.06177C16.6215 6.84614 16.427 6.71255 16.1528 6.70552C15.8668 6.69849 15.5832 6.70552 15.2973 6.70552C14.6762 6.70552 14.0551 6.70552 13.4317 6.70552C12.6371 6.70552 11.8426 6.70552 11.0481 6.70552C10.2442 6.70552 9.43792 6.70552 8.63402 6.70552C7.98245 6.70552 7.33089 6.70552 6.67933 6.70552C6.34417 6.70552 6.00902 6.70083 5.67386 6.70552C5.6598 6.70552 5.64339 6.70552 5.62933 6.70552C5.29886 6.70552 5.0598 6.92817 4.95198 7.22114C4.65433 8.02505 4.35667 8.8313 4.06136 9.63521C3.59261 10.9079 3.12152 12.1782 2.65277 13.4508C2.54495 13.7415 2.43948 14.0297 2.33167 14.3204C2.16995 14.7563 2.5848 15.211 3.00902 15.211C3.52933 15.211 4.04964 15.211 4.56995 15.211C5.73245 15.211 6.8973 15.211 8.0598 15.211C9.26448 15.211 10.4715 15.211 11.6762 15.211C12.3465 15.211 13.0192 15.211 13.6895 15.211C13.7059 15.211 13.7223 15.211 13.7387 15.211C13.9028 15.2063 14.0387 15.1594 14.1676 15.061C14.2473 15 14.3035 14.9227 14.3621 14.8454C14.4793 14.693 14.5965 14.5407 14.7114 14.3883C15.0512 13.9454 15.3934 13.5 15.7332 13.0571C15.7567 13.0266 15.7778 12.9985 15.8012 12.968C15.5996 13.0852 15.3957 13.2 15.1942 13.3172C15.7145 13.3172 16.2348 13.3172 16.7551 13.3172C17.5848 13.3172 18.4145 13.3172 19.2442 13.3172C19.434 13.3172 19.6239 13.3172 19.8137 13.3172C20.1817 13.3172 20.5332 12.9938 20.5168 12.6141C20.5028 12.225 20.2098 11.904 19.816 11.904Z" fill="#367971"/>
<path d="M8.98122 4.80239C8.98122 5.56177 8.98122 6.3188 8.98122 7.07818C8.98122 7.18599 8.98122 7.29614 8.98122 7.40396C9.21559 7.16958 9.44997 6.93521 9.68434 6.70083C8.86169 6.70083 8.03903 6.70083 7.21403 6.70083C7.09684 6.70083 6.97965 6.70083 6.86247 6.70083C7.09684 6.93521 7.33122 7.16958 7.56559 7.40396C7.56559 6.63989 7.56559 5.87583 7.56559 5.11411C7.56559 5.00161 7.5609 4.88677 7.56794 4.77427C7.55856 4.83755 7.55153 4.89849 7.54215 4.96177C7.5445 4.94302 7.54919 4.92427 7.55856 4.90552C7.53512 4.96177 7.51169 5.01802 7.48825 5.07427C7.52106 5.01333 7.49997 5.03677 7.42497 5.14693C7.31481 5.22193 7.29137 5.24302 7.35231 5.21021C7.29606 5.23364 7.23981 5.25708 7.18356 5.28052C7.20231 5.27349 7.22106 5.2688 7.23981 5.26411C7.17653 5.27349 7.11559 5.28052 7.05231 5.28989C7.32653 5.27114 7.60778 5.28755 7.882 5.28755C8.31325 5.28755 8.74684 5.28755 9.17809 5.28755C9.28356 5.28755 9.38903 5.28286 9.49215 5.28989C9.42887 5.28052 9.36794 5.27349 9.30465 5.26411C9.3234 5.26646 9.34215 5.27114 9.3609 5.28052C9.30465 5.25708 9.2484 5.23364 9.19215 5.21021C9.25309 5.24302 9.22965 5.22193 9.1195 5.14693C9.0445 5.03677 9.0234 5.01333 9.05622 5.07427C9.03278 5.01802 9.00934 4.96177 8.9859 4.90552C8.99294 4.92427 8.99762 4.94302 9.00231 4.96177C8.99294 4.89849 8.9859 4.83755 8.97653 4.77427C8.98122 4.78364 8.98122 4.79302 8.98122 4.80239C8.99294 4.98989 9.05153 5.16333 9.18747 5.29927C9.30934 5.42114 9.50856 5.51255 9.68434 5.50552C10.0453 5.48911 10.4132 5.19614 10.3875 4.80239C10.3711 4.56333 10.3007 4.3313 10.1273 4.16021C9.95153 3.98677 9.72653 3.88833 9.48044 3.87896C9.44762 3.87661 9.41715 3.87896 9.38434 3.87896C9.20153 3.87896 9.02106 3.87896 8.83825 3.87896C8.34372 3.87896 7.84918 3.87896 7.35465 3.87896C7.1859 3.87896 7.00544 3.86724 6.84137 3.91177C6.4359 4.02427 6.17809 4.39224 6.16403 4.80239C6.16403 4.83521 6.16403 4.86802 6.16403 4.89849C6.16403 5.34146 6.16403 5.78677 6.16403 6.22974C6.16403 6.62114 6.16403 7.01021 6.16403 7.40161C6.16403 7.7813 6.48512 8.10474 6.86715 8.10474C7.68981 8.10474 8.51247 8.10474 9.33747 8.10474C9.45465 8.10474 9.57184 8.10474 9.68903 8.10474C10.0687 8.10474 10.3922 7.78364 10.3922 7.40161C10.3922 6.64224 10.3922 5.88521 10.3922 5.12583C10.3922 5.01802 10.3922 4.90786 10.3922 4.80005C10.3922 4.43208 10.0687 4.08052 9.68903 4.09693C9.30465 4.11568 8.98122 4.40864 8.98122 4.80239ZM7.1859 10.8961C7.52575 10.8961 7.86559 10.8961 8.20544 10.8961C8.5734 10.8961 8.92497 10.5727 8.90856 10.193C8.89215 9.81099 8.59919 9.48989 8.20544 9.48989C7.86559 9.48989 7.52575 9.48989 7.1859 9.48989C6.81794 9.48989 6.46637 9.81333 6.48278 10.193C6.49919 10.5751 6.79215 10.8961 7.1859 10.8961ZM15.1312 9.48989C14.7937 9.48989 14.4562 9.48989 14.1211 9.48989C13.7531 9.48989 13.4015 9.81333 13.4179 10.193C13.4343 10.5751 13.7273 10.8961 14.1211 10.8961C14.4586 10.8961 14.7961 10.8961 15.1312 10.8961C15.4992 10.8961 15.8507 10.5727 15.8343 10.193C15.8179 9.81099 15.5273 9.48989 15.1312 9.48989ZM15.1968 11.904C14.8148 11.904 14.4328 11.904 14.0507 11.904C13.1343 11.904 12.2156 11.904 11.2992 11.904C10.1929 11.904 9.08903 11.904 7.98278 11.904C7.02419 11.904 6.06559 11.904 5.10465 11.904C4.64059 11.904 4.17419 11.8946 3.71012 11.904C3.70309 11.904 3.69606 11.904 3.68903 11.904C3.32106 11.904 2.9695 12.2274 2.9859 12.6071C3.00231 12.9891 3.29528 13.3102 3.68903 13.3102C4.07106 13.3102 4.45309 13.3102 4.83512 13.3102C5.75153 13.3102 6.67028 13.3102 7.58669 13.3102C8.69294 13.3102 9.79684 13.3102 10.9031 13.3102C11.8617 13.3102 12.8203 13.3102 13.7812 13.3102C14.2453 13.3102 14.7117 13.3196 15.1757 13.3102C15.1828 13.3102 15.1898 13.3102 15.1968 13.3102C15.5648 13.3102 15.9164 12.9868 15.9 12.6071C15.8836 12.2251 15.5906 11.904 15.1968 11.904ZM10.6523 10.8961C10.9922 10.8961 11.332 10.8961 11.6718 10.8961C12.0398 10.8961 12.3914 10.5727 12.375 10.193C12.3586 9.81099 12.0656 9.48989 11.6718 9.48989C11.332 9.48989 10.9922 9.48989 10.6523 9.48989C10.2843 9.48989 9.93278 9.81333 9.94919 10.193C9.96559 10.5751 10.2586 10.8961 10.6523 10.8961Z" fill="#367971"/>
</svg>
