<svg width="24" height="24" viewBox="0 0 24 24" fill="none" xmlns="http://www.w3.org/2000/svg">
<g clip-path="url(#clip0_6738_2146)">
<path d="M22.0549 12C22.0549 12.4805 22.0221 12.9586 21.9612 13.432C21.9706 13.3688 21.9776 13.3078 21.987 13.2445C21.8604 14.1867 21.6096 15.1078 21.2417 15.9844C21.2651 15.9281 21.2885 15.8719 21.312 15.8156C21.101 16.3149 20.8526 16.8 20.569 17.2617C20.4284 17.4891 20.2807 17.7117 20.1237 17.9274C20.0885 17.9766 20.051 18.0258 20.0135 18.075C19.9924 18.1031 19.9714 18.1313 19.9479 18.1617C19.8846 18.2438 20.0581 18.0211 19.9737 18.1289C19.8917 18.2344 19.8073 18.3375 19.7206 18.4383C19.3737 18.8485 18.9964 19.2328 18.5932 19.5867C18.4924 19.6735 18.3917 19.7602 18.2885 19.8445C18.2417 19.8844 18.1924 19.9219 18.1456 19.9594C18.1339 19.9688 18.1221 19.9781 18.1104 19.9875C18.0542 20.032 18.2018 19.9125 18.1924 19.9242C18.169 19.9524 18.1245 19.9758 18.094 19.9992C17.8807 20.1586 17.6604 20.311 17.4354 20.4563C16.9221 20.7844 16.3807 21.068 15.8182 21.307C15.8745 21.2836 15.9307 21.2602 15.987 21.2367C15.1104 21.6047 14.1893 21.8555 13.2471 21.982C13.3104 21.9727 13.3714 21.9656 13.4346 21.9563C12.4831 22.0805 11.5198 22.0805 10.5682 21.9563C10.6315 21.9656 10.6924 21.9727 10.7557 21.982C9.81354 21.8555 8.89245 21.6047 8.01589 21.2367C8.07214 21.2602 8.12839 21.2836 8.18464 21.307C7.68542 21.0961 7.20026 20.8477 6.73854 20.5641C6.5112 20.4235 6.28854 20.2758 6.07292 20.1188C6.0237 20.0836 5.97448 20.0461 5.92526 20.0086C5.89714 19.9875 5.86901 19.9664 5.83854 19.943C5.75651 19.8797 5.97917 20.0531 5.87136 19.9688C5.76589 19.8867 5.66276 19.8024 5.56198 19.7156C5.15182 19.3688 4.76745 18.9914 4.41354 18.5883C4.32682 18.4875 4.24011 18.3867 4.15573 18.2836C4.11589 18.2367 4.07839 18.1875 4.04089 18.1406C4.03151 18.1289 4.02214 18.1172 4.01276 18.1055C3.96823 18.0492 4.08776 18.1969 4.07604 18.1875C4.04792 18.1641 4.02448 18.1195 4.00104 18.0891C3.84167 17.8758 3.68932 17.6555 3.54401 17.4305C3.21589 16.9172 2.93229 16.3758 2.69323 15.8133C2.71667 15.8695 2.74011 15.9258 2.76354 15.982C2.39557 15.1055 2.14479 14.1844 2.01823 13.2422C2.02761 13.3055 2.03464 13.3664 2.04401 13.4297C1.91979 12.4781 1.91979 11.5149 2.04401 10.5633C2.03464 10.6266 2.02761 10.6875 2.01823 10.7508C2.14479 9.80861 2.39557 8.88751 2.76354 8.01095C2.74011 8.0672 2.71667 8.12345 2.69323 8.1797C2.90417 7.68048 3.15261 7.19533 3.4362 6.73361C3.57682 6.50626 3.72448 6.28361 3.88151 6.06798C3.91667 6.01876 3.95417 5.96955 3.99167 5.92033C4.01276 5.8922 4.03386 5.86408 4.05729 5.83361C4.12057 5.75158 3.94714 5.97423 4.03151 5.86642C4.11354 5.76095 4.19792 5.65783 4.28464 5.55705C4.63151 5.14689 5.00886 4.76251 5.41198 4.40861C5.51276 4.32189 5.61354 4.23517 5.71667 4.1508C5.76354 4.11095 5.81276 4.07345 5.85964 4.03595C5.87136 4.02658 5.88307 4.0172 5.89479 4.00783C5.95104 3.9633 5.80339 4.08283 5.81276 4.07111C5.8362 4.04298 5.88073 4.01955 5.9112 3.99611C6.12448 3.83673 6.34479 3.68439 6.56979 3.53908C7.08307 3.21095 7.62448 2.92736 8.18698 2.6883C8.13073 2.71173 8.07448 2.73517 8.01823 2.75861C8.89479 2.39064 9.81589 2.13986 10.7581 2.0133C10.6948 2.02267 10.6339 2.0297 10.5706 2.03908C11.5221 1.91486 12.4854 1.91486 13.437 2.03908C13.3737 2.0297 13.3128 2.02267 13.2495 2.0133C14.1917 2.13986 15.1128 2.39064 15.9893 2.75861C15.9331 2.73517 15.8768 2.71173 15.8206 2.6883C16.3198 2.89923 16.8049 3.14767 17.2667 3.43126C17.494 3.57189 17.7167 3.71955 17.9323 3.87658C17.9815 3.91173 18.0307 3.94923 18.0799 3.98673C18.1081 4.00783 18.1362 4.02892 18.1667 4.05236C18.2487 4.11564 18.026 3.9422 18.1339 4.02658C18.2393 4.10861 18.3424 4.19298 18.4432 4.2797C18.8534 4.62658 19.2378 5.00392 19.5917 5.40705C19.6784 5.50783 19.7651 5.60861 19.8495 5.71173C19.8893 5.75861 19.9268 5.80783 19.9643 5.8547C19.9737 5.86642 19.9831 5.87814 19.9924 5.88986C20.037 5.94611 19.9174 5.79845 19.9292 5.80783C19.9573 5.83126 19.9807 5.8758 20.0042 5.90626C20.1635 6.11955 20.3159 6.33986 20.4612 6.56486C20.7893 7.07814 21.0729 7.61955 21.312 8.18205C21.2885 8.1258 21.2651 8.06955 21.2417 8.0133C21.6096 8.88986 21.8604 9.81095 21.987 10.7531C21.9776 10.6899 21.9706 10.6289 21.9612 10.5656C22.0221 11.0414 22.0526 11.5195 22.0549 12C22.0549 12.368 22.3784 12.7195 22.7581 12.7031C23.1378 12.6867 23.4612 12.3938 23.4612 12C23.4589 10.8141 23.2784 9.61876 22.9128 8.49142C22.5565 7.39689 22.0432 6.34689 21.3729 5.40939C20.6792 4.43673 19.8589 3.59298 18.912 2.86408C17.9979 2.16095 16.976 1.6172 15.8956 1.22111C14.787 0.813296 13.6081 0.595327 12.4292 0.548452C11.2339 0.501577 10.0174 0.64689 8.86667 0.972671C7.76276 1.28673 6.69636 1.76955 5.74011 2.40001C4.78854 3.0258 3.91901 3.78986 3.19479 4.66876C2.43073 5.59689 1.82604 6.61408 1.36901 7.72736C0.919012 8.82189 0.663543 9.98673 0.572137 11.1633C0.480731 12.3563 0.586199 13.5727 0.867449 14.7352C1.13932 15.8531 1.58932 16.9383 2.18464 17.9203C2.77526 18.893 3.51354 19.7883 4.36432 20.5453C5.21745 21.3024 6.17604 21.9422 7.21432 22.4133C8.34401 22.9219 9.51589 23.2453 10.744 23.3883C11.9393 23.5266 13.1534 23.461 14.3323 23.2219C15.469 22.9922 16.5753 22.5727 17.5878 22.0078C18.5768 21.4547 19.4932 20.7469 20.276 19.9266C21.0635 19.1016 21.7385 18.1547 22.2471 17.1328C22.7651 16.0899 23.1354 14.9766 23.3112 13.8235C23.4049 13.2188 23.4589 12.6094 23.4612 11.9953C23.4612 11.6274 23.1378 11.2758 22.7581 11.2922C22.376 11.3133 22.0549 11.6063 22.0549 12Z" fill="#367971"/>
<path d="M9.9259 6.07736C9.9259 6.76408 9.9259 7.44845 9.9259 8.13517C9.9259 8.2922 9.9259 8.44689 9.9048 8.60158C9.91418 8.5383 9.92121 8.47736 9.93059 8.41408C9.90481 8.5922 9.85793 8.76564 9.78996 8.93205C9.8134 8.8758 9.83684 8.81955 9.86027 8.7633C9.80637 8.88752 9.74543 9.00705 9.67043 9.11955C9.65402 9.14533 9.63527 9.17111 9.61652 9.19689C9.54621 9.29767 9.7384 9.05158 9.6423 9.16408C9.59777 9.21564 9.55559 9.26486 9.50637 9.31173C9.46184 9.35626 9.4173 9.39611 9.37043 9.43595C9.2509 9.53673 9.44777 9.38205 9.40324 9.41252C9.37277 9.43127 9.34465 9.4547 9.31418 9.47345C9.20168 9.54845 9.08215 9.60939 8.95793 9.6633C9.01418 9.63986 9.07043 9.61642 9.12668 9.59298C8.96027 9.66095 8.78684 9.70783 8.60871 9.73361C8.67199 9.72423 8.73293 9.7172 8.79621 9.70783C8.60168 9.73361 8.4048 9.73361 8.21027 9.70783C8.27355 9.7172 8.33449 9.72423 8.39777 9.73361C8.21965 9.70783 8.04621 9.66095 7.87981 9.59298C7.93605 9.61642 7.9923 9.63986 8.04855 9.6633C7.92434 9.60939 7.80481 9.54845 7.69231 9.47345C7.66652 9.45705 7.64074 9.4383 7.61496 9.41955C7.51418 9.34923 7.76027 9.54142 7.64777 9.44533C7.59621 9.4008 7.54699 9.35861 7.50012 9.30939C7.45559 9.26486 7.41574 9.22033 7.3759 9.17345C7.27512 9.05392 7.4298 9.2508 7.39934 9.20626C7.38059 9.1758 7.35715 9.14767 7.3384 9.1172C7.2634 9.0047 7.20246 8.88517 7.14855 8.76095C7.17199 8.8172 7.19543 8.87345 7.21887 8.9297C7.1509 8.7633 7.10402 8.58986 7.07824 8.41173C7.08762 8.47502 7.09465 8.53595 7.10402 8.59923C7.06418 8.29689 7.08293 7.98283 7.08293 7.67814C7.08293 7.24689 7.08293 6.81564 7.08293 6.38439C7.08293 6.28127 7.08293 6.17814 7.08293 6.07502C7.08293 5.70705 6.75949 5.35548 6.3798 5.37189C5.99777 5.3883 5.67668 5.68127 5.67668 6.07502C5.67668 6.65861 5.67668 7.23986 5.67668 7.82345C5.67668 8.06017 5.66262 8.30158 5.6884 8.53595C5.76105 9.21564 6.03293 9.84611 6.5298 10.3289C7.46496 11.2383 8.99777 11.4188 10.0806 10.6547C10.6314 10.2656 11.0486 9.72189 11.2337 9.06798C11.3298 8.73048 11.3368 8.38595 11.3368 8.03908C11.3368 7.38517 11.3368 6.73127 11.3368 6.07502C11.3368 5.70705 11.0134 5.35548 10.6337 5.37189C10.247 5.39064 9.9259 5.68361 9.9259 6.07736Z" fill="#367971"/>
<path d="M9.2041 13.0359C9.2041 12.2531 9.2041 11.468 9.2041 10.6851C9.2041 9.43593 9.2041 8.18671 9.2041 6.93749C9.2041 6.65155 9.2041 6.36327 9.2041 6.07733C9.2041 5.70937 8.88066 5.3578 8.50098 5.37421C8.11895 5.39062 7.79785 5.68358 7.79785 6.07733C7.79785 6.86015 7.79785 7.6453 7.79785 8.42812C7.79785 9.67733 7.79785 10.9266 7.79785 12.1758C7.79785 12.4617 7.79785 12.75 7.79785 13.0359C7.79785 13.4039 8.12129 13.7555 8.50098 13.7391C8.88301 13.7226 9.2041 13.4297 9.2041 13.0359ZM16.9221 6.07733C16.9221 6.86015 16.9221 7.6453 16.9221 8.42812C16.9221 9.67733 16.9221 10.9266 16.9221 12.1758C16.9221 12.4617 16.9221 12.75 16.9221 13.0359C17.1564 12.8016 17.3908 12.5672 17.6252 12.3328C16.4604 12.3328 15.2979 12.3328 14.133 12.3328C13.9689 12.3328 13.8049 12.3328 13.6408 12.3328C13.8752 12.5672 14.1096 12.8016 14.3439 13.0359C14.3439 12.1055 14.3439 11.1773 14.3439 10.2469C14.3439 10.0008 14.3486 9.75468 14.3814 9.51093C14.3721 9.57421 14.365 9.63515 14.3557 9.69843C14.4049 9.3539 14.4963 9.01874 14.6299 8.69765C14.6064 8.7539 14.583 8.81015 14.5596 8.8664C14.658 8.63437 14.7775 8.41171 14.9182 8.20312C14.9557 8.14687 14.9932 8.0953 15.033 8.0414C15.101 7.94765 14.9205 8.18202 14.9979 8.08593C15.0166 8.06249 15.0354 8.03905 15.0564 8.01562C15.1338 7.92187 15.2182 7.83046 15.3025 7.74374C15.3893 7.65702 15.4807 7.57499 15.5744 7.4953C15.5979 7.47655 15.6213 7.4578 15.6447 7.43671C15.7408 7.35702 15.4971 7.54452 15.6002 7.47187C15.6494 7.43671 15.6986 7.39921 15.7502 7.3664C15.9635 7.22343 16.1908 7.09921 16.4275 6.99843C16.3713 7.02187 16.315 7.0453 16.2588 7.06874C16.5799 6.93515 16.915 6.8414 17.2596 6.79452C17.1963 6.8039 17.1354 6.81093 17.0721 6.8203C17.2549 6.79687 17.44 6.7828 17.6229 6.7828C17.9908 6.78046 18.3424 6.45937 18.326 6.07968C18.3096 5.69999 18.0166 5.37421 17.6229 5.37655C16.7041 5.38124 15.7736 5.64843 15.0143 6.17108C14.2268 6.71249 13.6385 7.44608 13.2729 8.32733C13.0268 8.92499 12.9377 9.56952 12.9377 10.2187C12.9377 10.7273 12.9377 11.2383 12.9377 11.7469C12.9377 12.1758 12.9377 12.607 12.9377 13.0359C12.9377 13.4156 13.2588 13.7391 13.6408 13.7391C14.8057 13.7391 15.9682 13.7391 17.133 13.7391C17.2971 13.7391 17.4611 13.7391 17.6252 13.7391C18.0049 13.7391 18.3283 13.418 18.3283 13.0359C18.3283 12.2531 18.3283 11.468 18.3283 10.6851C18.3283 9.43593 18.3283 8.18671 18.3283 6.93749C18.3283 6.65155 18.3283 6.36327 18.3283 6.07733C18.3283 5.70937 18.0049 5.3578 17.6252 5.37421C17.2455 5.39062 16.9221 5.68358 16.9221 6.07733Z" fill="#367971"/>
<path d="M16.9219 13.0359C16.9219 14.1164 16.9219 15.1945 16.9219 16.275C16.9219 16.4578 16.9312 16.643 16.9125 16.8258C16.9219 16.7625 16.9289 16.7016 16.9383 16.6383C16.9219 16.7601 16.8914 16.8773 16.8422 16.9898C16.8656 16.9336 16.8891 16.8773 16.9125 16.8211C16.882 16.8867 16.8492 16.95 16.8094 17.0086C16.7953 17.0273 16.7836 17.0484 16.7672 17.0672C16.7883 17.0391 16.8117 17.0086 16.8328 16.9805C16.8234 17.0109 16.7695 17.0508 16.7484 17.0719C16.7227 17.0976 16.6969 17.1187 16.6688 17.1422C16.6148 17.1891 16.8211 17.0344 16.6969 17.1164C16.6313 17.1586 16.5633 17.1937 16.493 17.2242C16.5492 17.2008 16.6055 17.1773 16.6617 17.1539C16.5586 17.1937 16.4555 17.2219 16.3453 17.2359C16.4086 17.2266 16.4695 17.2195 16.5328 17.2101C16.4273 17.2219 16.3242 17.2219 16.2211 17.2078C16.2844 17.2172 16.3453 17.2242 16.4086 17.2336C16.2937 17.2172 16.1836 17.1867 16.0781 17.1422C16.1344 17.1656 16.1906 17.1891 16.2469 17.2125C16.1813 17.1844 16.118 17.1492 16.0594 17.1117C15.9164 17.018 16.1648 17.2078 16.0805 17.1305C16.0547 17.107 16.0266 17.0836 16.0031 17.0578C15.9773 17.032 15.9563 17.0062 15.9305 16.9805C15.8508 16.8914 16.0336 17.1398 15.9586 17.0133C15.9188 16.9476 15.8813 16.882 15.8484 16.8117C15.8719 16.868 15.8953 16.9242 15.9188 16.9805C15.8742 16.8726 15.8461 16.7648 15.8297 16.65C15.8391 16.7133 15.8461 16.7742 15.8555 16.8375C15.8367 16.6805 15.8461 16.5211 15.8461 16.3641C15.8461 16.0805 15.8461 15.7945 15.8461 15.5109C15.8461 14.8406 15.8461 14.1703 15.8461 13.5C15.8461 13.3453 15.8461 13.1906 15.8461 13.0383C15.6117 13.2726 15.3773 13.507 15.143 13.7414C15.8695 13.7414 16.5938 13.7414 17.3203 13.7414C17.4234 13.7414 17.5266 13.7414 17.6273 13.7414C17.9953 13.7414 18.3469 13.418 18.3305 13.0383C18.3141 12.6562 18.0211 12.3351 17.6273 12.3351C16.9008 12.3351 16.1766 12.3351 15.45 12.3351C15.3469 12.3351 15.2437 12.3351 15.143 12.3351C14.7633 12.3351 14.4398 12.6562 14.4398 13.0383C14.4398 13.6406 14.4398 14.243 14.4398 14.8453C14.4398 15.4547 14.4328 16.0664 14.4398 16.6758C14.4492 17.5406 15.0258 18.3258 15.8672 18.5578C16.3453 18.6914 16.8469 18.6234 17.2875 18.4031C17.7352 18.1805 18.0445 17.7726 18.2203 17.3156C18.3422 17.0016 18.3305 16.6594 18.3305 16.3289C18.3305 15.9469 18.3305 15.5648 18.3305 15.1828C18.3305 14.482 18.3375 13.7789 18.3305 13.0781C18.3305 13.0641 18.3305 13.05 18.3305 13.0383C18.3305 12.6703 18.007 12.3187 17.6273 12.3351C17.2453 12.3492 16.9219 12.6422 16.9219 13.0359ZM9.03984 13.0359C9.03984 14.1164 9.03984 15.1945 9.03984 16.275C9.03984 16.4578 9.04922 16.643 9.03047 16.8258C9.03984 16.7625 9.04688 16.7016 9.05625 16.6383C9.03984 16.7601 9.00937 16.8773 8.96016 16.9898C8.98359 16.9336 9.00703 16.8773 9.03047 16.8211C9 16.8867 8.96719 16.95 8.92734 17.0086C8.91328 17.0273 8.90156 17.0484 8.88516 17.0672C8.90625 17.0391 8.92969 17.0086 8.95078 16.9805C8.94141 17.0109 8.8875 17.0508 8.86641 17.0719C8.84063 17.0976 8.81484 17.1187 8.78672 17.1422C8.73281 17.1891 8.93906 17.0344 8.81484 17.1164C8.74922 17.1586 8.68125 17.1937 8.61094 17.2242C8.66719 17.2008 8.72344 17.1773 8.77969 17.1539C8.67656 17.1937 8.57344 17.2219 8.46328 17.2359C8.52656 17.2266 8.5875 17.2195 8.65078 17.2101C8.54531 17.2219 8.44219 17.2219 8.33906 17.2078C8.40234 17.2172 8.46328 17.2242 8.52656 17.2336C8.41172 17.2172 8.30391 17.1867 8.19609 17.1422C8.25234 17.1656 8.30859 17.1891 8.36484 17.2125C8.29922 17.1844 8.23594 17.1492 8.17734 17.1117C8.03438 17.018 8.28281 17.2078 8.19844 17.1305C8.17266 17.107 8.14453 17.0836 8.12109 17.0578C8.09531 17.032 8.07422 17.0062 8.04844 16.9805C7.96875 16.8914 8.15156 17.1398 8.07656 17.0133C8.03672 16.9476 7.99922 16.882 7.96641 16.8117C7.98984 16.868 8.01328 16.9242 8.03672 16.9805C7.99219 16.8726 7.96406 16.7648 7.94766 16.65C7.95703 16.7133 7.96406 16.7742 7.97344 16.8375C7.95469 16.6805 7.96406 16.5211 7.96406 16.3641C7.96406 16.0805 7.96406 15.7945 7.96406 15.5109C7.96406 14.8406 7.96406 14.1703 7.96406 13.5C7.96406 13.3453 7.96406 13.1906 7.96406 13.0383C7.72969 13.2726 7.49531 13.507 7.26094 13.7414C7.9875 13.7414 8.71172 13.7414 9.43828 13.7414C9.54141 13.7414 9.64453 13.7414 9.74531 13.7414C10.1133 13.7414 10.4648 13.418 10.4484 13.0383C10.432 12.6562 10.1391 12.3351 9.74531 12.3351C9.01875 12.3351 8.29453 12.3351 7.56797 12.3351C7.46484 12.3351 7.36172 12.3351 7.26094 12.3351C6.88125 12.3351 6.55781 12.6562 6.55781 13.0383C6.55781 13.6453 6.55781 14.2523 6.55781 14.857C6.55781 15.4641 6.55078 16.0711 6.55781 16.6758C6.56719 17.543 7.15078 18.3398 7.99922 18.5601C8.47266 18.6844 8.95313 18.6187 9.38906 18.4101C9.83672 18.1945 10.1531 17.7844 10.3312 17.332C10.4555 17.0133 10.4461 16.6711 10.4461 16.3359C10.4461 15.9562 10.4461 15.5742 10.4461 15.1945C10.4461 14.4891 10.4531 13.7836 10.4461 13.0781C10.4461 13.0641 10.4461 13.05 10.4461 13.0383C10.4461 12.6703 10.1227 12.3187 9.74297 12.3351C9.36328 12.3492 9.03984 12.6422 9.03984 13.0359Z" fill="#367971"/>
</g>
<defs>
<clipPath id="clip0_6738_2146">
<rect width="24" height="24" fill="white"/>
</clipPath>
</defs>
</svg>
