<svg width="24" height="24" viewBox="0 0 24 24" fill="none" xmlns="http://www.w3.org/2000/svg">
<path d="M18.9469 7.34533C18.9469 8.32267 18.9469 9.30236 18.9469 10.2797C18.9469 10.4813 18.9516 10.6828 18.9258 10.8844C18.9352 10.8211 18.9422 10.7602 18.9516 10.6969C18.9211 10.9055 18.8672 11.107 18.7852 11.3016C18.8086 11.2453 18.832 11.1891 18.8555 11.1328C18.7945 11.2758 18.7219 11.4117 18.6352 11.5383C18.6187 11.5641 18.6 11.5875 18.5812 11.6133C18.5133 11.7094 18.7078 11.461 18.5977 11.5922C18.5508 11.6461 18.5039 11.7 18.4523 11.7492C18.4008 11.8008 18.3492 11.8477 18.2953 11.8945C18.1641 12.0047 18.4125 11.8125 18.3164 11.8781C18.2906 11.8945 18.2672 11.9133 18.2414 11.932C18.1125 12.0188 17.9766 12.0914 17.8359 12.1524C17.8922 12.1289 17.9484 12.1055 18.0047 12.082C17.8102 12.1641 17.6086 12.218 17.4 12.2485C17.4633 12.2391 17.5242 12.232 17.5875 12.2227C17.1562 12.2789 16.7062 12.2438 16.2727 12.2438C15.675 12.2438 15.0773 12.2438 14.482 12.2438C14.2734 12.2438 14.0648 12.2485 13.8563 12.2203C13.9195 12.2297 13.9805 12.2367 14.0438 12.2461C13.8398 12.2156 13.643 12.1617 13.4531 12.0844C13.5094 12.1078 13.5656 12.1313 13.6219 12.1547C13.4859 12.0961 13.3523 12.0281 13.2281 11.9461C13.193 11.9227 13.1578 11.8969 13.125 11.8735C13.0289 11.8055 13.2609 11.986 13.1672 11.9063C13.1109 11.857 13.0547 11.8102 13.0031 11.7563C12.9516 11.7047 12.9 11.6485 12.8531 11.5922C12.8156 11.5477 12.7641 11.4539 12.8836 11.6344C12.8602 11.5992 12.8344 11.5664 12.8086 11.5289C12.7242 11.4024 12.6539 11.2688 12.593 11.1305C12.6164 11.1867 12.6398 11.243 12.6633 11.2992C12.5391 10.9969 12.4758 10.6688 12.3961 10.3524C12.3422 10.1438 12.2719 9.93283 12.1477 9.7547C11.9203 9.42892 11.6039 9.18283 11.2172 9.07267C11.0063 9.01408 10.793 9.01173 10.5773 9.01173C10.432 9.01173 10.282 9.0047 10.1367 9.02111C9.73828 9.06564 9.36328 9.21798 9.08203 9.5133C8.87813 9.72892 8.73516 9.98908 8.6625 10.275C8.57578 10.6149 8.51016 10.9711 8.37656 11.2969C8.4 11.2406 8.42344 11.1844 8.44687 11.1281C8.38828 11.2664 8.31563 11.4 8.23125 11.5266C8.2125 11.5547 8.18437 11.6133 8.15625 11.632C8.17969 11.6016 8.20312 11.5711 8.22656 11.5406C8.2125 11.557 8.20078 11.5735 8.18672 11.5899C8.13984 11.6461 8.08828 11.7024 8.03672 11.7539C7.98281 11.8055 7.92891 11.8547 7.87266 11.9039C7.77656 11.986 8.01797 11.7985 7.91484 11.8711C7.87969 11.8945 7.84687 11.9203 7.81172 11.9438C7.6875 12.0258 7.55625 12.0938 7.41797 12.1524C7.47422 12.1289 7.53047 12.1055 7.58672 12.082C7.39688 12.1594 7.2 12.2133 6.99609 12.2438C7.05937 12.2344 7.12031 12.2274 7.18359 12.218C6.75234 12.2742 6.29766 12.2414 5.86406 12.2414C5.26641 12.2414 4.66875 12.2414 4.07344 12.2414C3.86484 12.2414 3.65859 12.2461 3.45234 12.2203C3.51562 12.2297 3.57656 12.2367 3.63984 12.2461C3.43125 12.2156 3.22969 12.1617 3.03516 12.0797C3.09141 12.1031 3.14766 12.1266 3.20391 12.15C3.06094 12.0891 2.925 12.0164 2.79844 11.9297C2.77266 11.9133 2.74922 11.8945 2.72344 11.8758C2.62734 11.8078 2.87578 12.0024 2.74453 11.8922C2.69062 11.8453 2.63672 11.7985 2.5875 11.7469C2.53594 11.6953 2.48906 11.6438 2.44219 11.5899C2.33203 11.4586 2.52422 11.707 2.45859 11.611C2.44219 11.5852 2.42344 11.5617 2.40469 11.536C2.31797 11.407 2.24531 11.2711 2.18437 11.1305C2.20781 11.1867 2.23125 11.243 2.25469 11.2992C2.17266 11.1047 2.11875 10.9031 2.08828 10.6945C2.09766 10.7578 2.10469 10.8188 2.11406 10.882C2.05781 10.4438 2.09297 9.98439 2.09297 9.54611C2.09297 8.93205 2.09297 8.31798 2.09297 7.70392C2.09297 7.51876 2.08359 7.33126 2.10703 7.14845C2.09766 7.21173 2.09063 7.27267 2.08125 7.33595C2.1 7.22111 2.12812 7.11095 2.17266 7.00314C2.14922 7.05939 2.12578 7.11564 2.10234 7.17189C2.13516 7.09689 2.17266 7.02423 2.21719 6.95392C2.22891 6.93751 2.24062 6.92111 2.25234 6.90236C2.30625 6.82033 2.20078 6.97501 2.19844 6.97267C2.19375 6.96564 2.28516 6.87658 2.28984 6.87189C2.31797 6.84376 2.35078 6.81798 2.37891 6.78986C2.43047 6.73595 2.24531 6.88361 2.30859 6.84376C2.325 6.83205 2.34141 6.82033 2.35781 6.80861C2.43047 6.75939 2.50781 6.71955 2.5875 6.68439C2.53125 6.70783 2.475 6.73126 2.41875 6.7547C2.52656 6.71017 2.63672 6.68204 2.75156 6.6633C2.68828 6.67267 2.62734 6.6797 2.56406 6.68908C2.75391 6.66564 2.95078 6.67501 3.14062 6.67501C3.51328 6.67501 3.88594 6.67501 4.25859 6.67501C5.50078 6.67501 6.74531 6.67501 7.9875 6.67501C9.49687 6.67501 11.0086 6.67501 12.518 6.67501C13.8234 6.67501 15.1312 6.67501 16.4367 6.67501C17.0484 6.67501 17.6602 6.67267 18.2695 6.67501C18.3398 6.67501 18.4102 6.6797 18.4781 6.68908C18.4148 6.6797 18.3539 6.67267 18.2906 6.6633C18.4055 6.68204 18.5156 6.71017 18.6234 6.7547C18.5672 6.73126 18.5109 6.70783 18.4547 6.68439C18.5297 6.7172 18.6023 6.7547 18.6727 6.79923C18.6891 6.81095 18.7055 6.82267 18.7242 6.83439C18.8063 6.8883 18.6516 6.78283 18.6539 6.78048C18.6609 6.77579 18.75 6.8672 18.7547 6.87189C18.7828 6.90001 18.8086 6.93283 18.8367 6.96095C18.8906 7.01251 18.743 6.82736 18.7828 6.89064C18.7945 6.90705 18.8063 6.92345 18.818 6.93986C18.8672 7.01251 18.907 7.08986 18.9422 7.16955C18.9188 7.1133 18.8953 7.05705 18.8719 7.0008C18.9164 7.10861 18.9445 7.21876 18.9633 7.33361C18.9539 7.27033 18.9469 7.20939 18.9375 7.14611C18.9422 7.21642 18.9469 7.2797 18.9469 7.34533C18.9516 7.7133 19.268 8.06486 19.65 8.04845C20.0273 8.03205 20.3578 7.73908 20.3531 7.34533C20.3461 6.65158 20.0086 6.04455 19.4531 5.63908C19.1156 5.39298 18.6844 5.27345 18.2695 5.27111C18.1148 5.27111 17.9602 5.27111 17.8055 5.27111C16.95 5.27111 16.0945 5.27111 15.2391 5.27111C13.9453 5.27111 12.6516 5.27111 11.3578 5.27111C9.99844 5.27111 8.63906 5.27111 7.27969 5.27111C6.20156 5.27111 5.12578 5.27111 4.04766 5.27111C3.59531 5.27111 3.13828 5.25236 2.68828 5.27345C1.99922 5.30626 1.39922 5.65314 1.0125 6.22033C0.778125 6.56486 0.679688 6.98908 0.679688 7.39923C0.679688 7.93361 0.679688 8.46564 0.679688 9.00001C0.679688 9.51095 0.679688 10.0242 0.679688 10.5352C0.682031 11.5852 1.19766 12.5367 2.05547 13.132C2.51719 13.4531 3.08203 13.6195 3.63984 13.65C3.79688 13.6594 3.95625 13.6547 4.11328 13.6547C4.74609 13.6547 5.37891 13.6547 6.01172 13.6547C6.57422 13.6547 7.15547 13.6945 7.70156 13.5352C8.77266 13.2258 9.58828 12.3539 9.86016 11.2781C9.92578 11.0203 9.97031 10.7461 10.0664 10.4977C10.043 10.5539 10.0195 10.6102 9.99609 10.6664C10.0172 10.6172 10.0406 10.568 10.0688 10.5235C10.1109 10.4555 10.1555 10.4508 10.0336 10.5633C10.0523 10.5469 10.0687 10.5235 10.0875 10.5047C10.1062 10.486 10.125 10.4672 10.1461 10.4508C10.2281 10.3758 10.0219 10.5352 10.0922 10.493C10.1438 10.4625 10.1906 10.4344 10.2445 10.4086C10.1883 10.432 10.132 10.4555 10.0758 10.4789C10.1555 10.4461 10.2375 10.4227 10.3219 10.4086C10.2586 10.418 10.1977 10.425 10.1344 10.4344C10.2609 10.418 10.3898 10.425 10.5187 10.425C10.6453 10.425 10.7766 10.418 10.9031 10.4344C10.8398 10.425 10.7789 10.418 10.7156 10.4086C10.8023 10.4227 10.882 10.4461 10.9617 10.4789C10.9055 10.4555 10.8492 10.432 10.793 10.4086C10.8422 10.4297 10.8867 10.4578 10.9336 10.4836C11.0367 10.5445 10.807 10.3664 10.8914 10.4508C10.9102 10.4695 10.9313 10.486 10.95 10.5047C10.9641 10.5211 10.9852 10.5539 11.0039 10.5633C10.9805 10.5492 10.8961 10.4133 10.9594 10.5117C10.9922 10.561 11.018 10.6149 11.0414 10.6688C11.018 10.6125 10.9945 10.5563 10.9711 10.5C11.0461 10.6945 11.0836 10.9102 11.1352 11.1117C11.2102 11.407 11.2969 11.6883 11.4305 11.9649C11.8055 12.7336 12.5461 13.3195 13.3664 13.5445C13.7789 13.657 14.1937 13.6547 14.6156 13.6547C15.0937 13.6547 15.5719 13.6547 16.05 13.6547C16.432 13.6547 16.8117 13.6547 17.1937 13.6547C17.8266 13.6547 18.4711 13.493 18.9938 13.125C19.6781 12.6422 20.1867 11.9133 20.3109 11.0742C20.3648 10.7086 20.3578 10.3477 20.3578 9.9797C20.3578 9.12189 20.3578 8.26408 20.3578 7.40626C20.3578 7.38751 20.3578 7.36642 20.3578 7.34767C20.3578 6.9797 20.0344 6.62814 19.6547 6.64455C19.2703 6.65861 18.9469 6.95158 18.9469 7.34533Z" fill="#367971"/>
<path d="M21.9141 3.12423C21.9141 3.53673 21.9141 3.94689 21.9141 4.35939C21.9141 5.33908 21.9141 6.31877 21.9141 7.29845C21.9141 8.46095 21.9141 9.6258 21.9141 10.7883C21.9141 11.7516 21.9141 12.7172 21.9141 13.6805C21.9141 14.1281 21.9258 14.5758 21.9117 15.0235C21.9047 15.2297 21.8883 15.4336 21.8602 15.6399C21.8695 15.5766 21.8766 15.5156 21.8859 15.4524C21.8133 15.9844 21.6703 16.5047 21.4617 17.0016C21.4852 16.9453 21.5086 16.8891 21.532 16.8328C21.4148 17.107 21.2766 17.3742 21.1219 17.6297C21.0445 17.7563 20.9625 17.8805 20.8758 18C20.8547 18.0281 20.8336 18.0586 20.8125 18.0867C20.8031 18.0985 20.7867 18.1313 20.775 18.136C20.7633 18.143 20.8828 18.0024 20.8383 18.0539C20.7891 18.1125 20.7422 18.1735 20.693 18.232C20.5008 18.4594 20.2945 18.6703 20.0719 18.8672C20.018 18.9141 19.9641 18.961 19.9078 19.0055C19.8797 19.0289 19.8516 19.05 19.8234 19.0735C19.7156 19.1602 19.957 18.975 19.8445 19.057C19.725 19.1461 19.6031 19.2305 19.4789 19.3125C19.193 19.4953 18.8906 19.6547 18.5766 19.7883C18.6328 19.7649 18.6891 19.7414 18.7453 19.718C18.2484 19.9266 17.7281 20.0695 17.1961 20.1422C17.2594 20.1328 17.3203 20.1258 17.3836 20.1164C16.8445 20.1867 16.2984 20.1867 15.757 20.1164C15.8203 20.1258 15.8812 20.1328 15.9445 20.1422C15.4125 20.0695 14.8922 19.9266 14.3953 19.718C14.4516 19.7414 14.5078 19.7649 14.5641 19.7883C14.2898 19.6711 14.0227 19.5328 13.7672 19.3781C13.6406 19.3008 13.5164 19.2188 13.3969 19.132C13.3687 19.111 13.3383 19.0899 13.3102 19.0688C13.2984 19.0594 13.2656 19.043 13.2609 19.0313C13.2539 19.0195 13.3945 19.1391 13.343 19.0945C13.2844 19.0453 13.2234 18.9985 13.1648 18.9492C12.9375 18.757 12.7266 18.5508 12.5297 18.3281C12.4828 18.2742 12.4359 18.2203 12.3914 18.1641C12.368 18.136 12.3469 18.1078 12.3234 18.0797C12.2367 17.9719 12.4219 18.2133 12.3398 18.1008C12.2508 17.9813 12.1664 17.8594 12.0844 17.7352C11.9016 17.4492 11.7422 17.1469 11.6086 16.8328C11.632 16.8891 11.6555 16.9453 11.6789 17.0016C11.4703 16.5047 11.3273 15.9844 11.2547 15.4524C11.2641 15.5156 11.2711 15.5766 11.2805 15.6399C11.2453 15.3703 11.2266 15.0985 11.2266 14.8266C11.2266 14.4586 10.9031 14.107 10.5234 14.1235C10.1437 14.1399 9.82031 14.4328 9.82031 14.8266C9.825 16.4086 10.3852 17.9133 11.3766 19.1344C12.3 20.2711 13.6406 21.0938 15.0703 21.4102C16.6195 21.7547 18.2414 21.5508 19.657 20.8336C20.9531 20.1774 22.0477 19.057 22.6641 17.7399C23.0109 16.9969 23.2195 16.2281 23.2992 15.4125C23.3227 15.1688 23.3273 14.925 23.3273 14.6813C23.3273 14.1469 23.3273 13.6125 23.3273 13.0781C23.3273 12.1641 23.3273 11.2477 23.3273 10.3336C23.3273 9.30236 23.3273 8.27111 23.3273 7.23986C23.3273 6.35627 23.3273 5.47502 23.3273 4.59142C23.3273 4.12267 23.3273 3.65392 23.3273 3.18517C23.3273 3.16408 23.3273 3.14298 23.3273 3.12189C23.3273 2.75392 23.0039 2.40236 22.6242 2.41877C22.2352 2.43752 21.9141 2.73048 21.9141 3.12423Z" fill="#367971"/>
<path d="M11.9879 14.093C11.13 14.093 10.2746 14.093 9.41676 14.093C9.29254 14.093 9.16833 14.093 9.04645 14.093C8.67848 14.093 8.32692 14.4165 8.34333 14.7961C8.35973 15.1782 8.6527 15.4993 9.04645 15.4993C9.90426 15.4993 10.7597 15.4993 11.6175 15.4993C11.7418 15.4993 11.866 15.4993 11.9879 15.4993C12.3558 15.4993 12.7074 15.1758 12.691 14.7961C12.6722 14.4141 12.3816 14.093 11.9879 14.093Z" fill="#367971"/>
</svg>
