<svg width="24" height="24" viewBox="0 0 24 24" fill="none" xmlns="http://www.w3.org/2000/svg">
<path d="M20.8596 12C20.8596 12.4242 20.8315 12.8484 20.7752 13.2703C20.7846 13.207 20.7916 13.146 20.801 13.0828C20.6885 13.9195 20.4658 14.7398 20.14 15.5203C20.1635 15.464 20.1869 15.4078 20.2104 15.3515C20.0205 15.7992 19.7979 16.2328 19.5447 16.6476C19.4205 16.8492 19.2893 17.046 19.151 17.2382C19.1205 17.2804 19.09 17.3203 19.0596 17.3624C19.0408 17.3882 19.0221 17.4117 19.0033 17.4351C18.9283 17.5359 19.1158 17.2921 19.0385 17.3906C18.9611 17.4867 18.8861 17.5828 18.8065 17.6765C18.5018 18.0351 18.1713 18.3726 17.8174 18.6843C17.733 18.7593 17.6463 18.832 17.5596 18.9023C17.5127 18.9421 17.4635 18.9796 17.4166 19.0171C17.3768 19.05 17.276 19.1226 17.4611 18.982C17.433 19.0031 17.4049 19.0265 17.3744 19.0476C17.1822 19.1929 16.983 19.3289 16.7791 19.4601C16.3268 19.7484 15.8486 19.9992 15.3541 20.2078C15.4104 20.1843 15.4666 20.1609 15.5229 20.1375C14.7424 20.4632 13.9244 20.6859 13.0854 20.7984C13.1486 20.789 13.2096 20.782 13.2729 20.7726C12.4268 20.8828 11.569 20.8828 10.7252 20.7726C10.7885 20.782 10.8494 20.789 10.9127 20.7984C10.0783 20.6859 9.26505 20.4656 8.48926 20.1398C8.54551 20.1632 8.60176 20.1867 8.65801 20.2101C8.22442 20.0273 7.80255 19.8117 7.39942 19.5679C7.20255 19.4484 7.00801 19.3195 6.82051 19.1859C6.72442 19.1179 6.62598 19.0499 6.53458 18.9749C6.53692 18.9773 6.67989 19.0875 6.59317 19.0195C6.57442 19.0054 6.55567 18.989 6.53692 18.9749C6.48067 18.9304 6.42676 18.8859 6.37286 18.8414C6.01895 18.546 5.68614 18.225 5.37911 17.8828C5.29942 17.7937 5.21973 17.7023 5.14239 17.6085C5.10958 17.571 5.07911 17.5312 5.04864 17.4937C5.0252 17.4656 5.00176 17.4351 4.97833 17.407C4.90098 17.3085 5.07911 17.5382 4.99708 17.4328C4.85176 17.2406 4.71114 17.0414 4.57989 16.8398C4.27755 16.3734 4.01739 15.8812 3.79942 15.3703C3.82286 15.4265 3.8463 15.4828 3.86973 15.539C3.54395 14.7632 3.31895 13.9476 3.20411 13.1132C3.21348 13.1765 3.22051 13.2375 3.22989 13.3007C3.11505 12.4476 3.11505 11.5828 3.22755 10.7296C3.21817 10.7929 3.21114 10.8539 3.20176 10.9171C3.31426 10.0828 3.53458 9.26948 3.86036 8.49136C3.83692 8.54761 3.81348 8.60386 3.79005 8.66011C3.9963 8.17261 4.24239 7.69917 4.52598 7.25151C4.6502 7.05464 4.78145 6.86245 4.91973 6.67495C4.95489 6.62808 4.99005 6.5812 5.0252 6.53667C4.88223 6.72886 5.0088 6.55776 5.04395 6.51558C5.11661 6.42417 5.19161 6.33511 5.26661 6.24839C5.5713 5.89683 5.89942 5.5687 6.25098 5.26401C6.33536 5.19136 6.41973 5.12104 6.50411 5.05308C6.54395 5.02026 6.58614 4.98979 6.62598 4.95464C6.43145 5.11167 6.63301 4.94995 6.67755 4.91714C6.86505 4.77886 7.05723 4.64761 7.25411 4.52339C7.69942 4.24214 8.16817 3.99839 8.65567 3.79214C8.59942 3.81558 8.54317 3.83901 8.48692 3.86245C9.26505 3.53667 10.0807 3.31636 10.915 3.20386C10.8518 3.21323 10.7908 3.22026 10.7275 3.22964C11.576 3.11948 12.4361 3.11948 13.2846 3.23198C13.2213 3.22261 13.1604 3.21558 13.0971 3.2062C13.9338 3.32104 14.7518 3.5437 15.5275 3.86948C15.4713 3.84604 15.415 3.82261 15.3588 3.79917C15.7994 3.98667 16.226 4.20464 16.6315 4.45308C16.833 4.57729 17.0322 4.70854 17.2244 4.84683C17.2713 4.87964 17.3158 4.91245 17.3604 4.94761C17.3885 4.9687 17.4143 4.98979 17.4424 5.00854C17.2713 4.88433 17.3533 4.94058 17.3932 4.97104C17.4869 5.0437 17.5783 5.1187 17.6697 5.19604C18.0307 5.50073 18.3705 5.83354 18.6822 6.18979C18.7596 6.27886 18.8369 6.36792 18.9119 6.46167C18.9471 6.5062 18.9822 6.54839 19.0174 6.59292C19.0479 6.63276 19.1065 6.71479 18.9799 6.5437C19.0033 6.57651 19.0268 6.60698 19.0525 6.63745C19.1955 6.82729 19.3291 7.02183 19.458 7.22339C19.7486 7.67808 19.9994 8.15854 20.2104 8.65776C20.1869 8.60151 20.1635 8.54526 20.14 8.48901C20.4658 9.26714 20.6861 10.0851 20.7986 10.9195C20.7893 10.8562 20.7822 10.7953 20.7729 10.732C20.8315 11.1515 20.8596 11.5757 20.8596 12C20.8596 12.3679 21.183 12.7195 21.5627 12.7031C21.9424 12.6867 22.2658 12.3937 22.2658 12C22.2611 9.78511 21.5393 7.57729 20.1893 5.81714C19.5518 4.98511 18.8158 4.26558 17.9674 3.64917C17.1635 3.06558 16.2658 2.61323 15.326 2.28745C13.1018 1.51636 10.5752 1.54917 8.37676 2.39526C6.41739 3.14995 4.73926 4.46479 3.53926 6.18745C2.17989 8.13979 1.54473 10.6007 1.7838 12.9679C1.90098 14.1304 2.19864 15.239 2.68145 16.3031C3.12676 17.2851 3.74551 18.1898 4.47676 18.982C5.88301 20.5054 7.77911 21.5953 9.80645 22.0289C11.7354 22.4414 13.7908 22.3125 15.633 21.5999C17.3205 20.9484 18.8416 19.875 19.9736 18.457C21.1268 17.0132 21.9049 15.2953 22.1557 13.4578C22.2213 12.9726 22.2635 12.4898 22.2635 12C22.2635 11.632 21.94 11.2804 21.5604 11.2968C21.1807 11.3132 20.8596 11.6062 20.8596 12Z" fill="#367971"/>
<path d="M9.01666 7.58201C8.6815 7.99451 8.34869 8.40467 8.01353 8.81717C7.82837 9.04451 7.64556 9.27186 7.46041 9.49686C7.39478 9.57889 7.32681 9.65858 7.26587 9.74295C7.0315 10.064 6.97759 10.4906 7.08072 10.8703C7.21431 11.3695 7.35728 11.8734 7.51197 12.3656C7.62212 12.7148 7.8565 13.0359 8.194 13.193C8.28072 13.2328 8.36978 13.2703 8.4565 13.3101C8.75181 13.4414 9.04712 13.5703 9.34244 13.7015C9.4315 13.7414 9.51822 13.7836 9.60962 13.814C9.73619 13.8562 9.87212 13.8703 10.0034 13.8797C10.1463 13.889 10.2917 13.8984 10.4346 13.9078C10.7417 13.9265 11.0534 13.9406 11.3604 13.9664C11.2971 13.957 11.2362 13.95 11.1729 13.9406C11.2292 13.9476 11.2807 13.9617 11.3346 13.9828C11.2784 13.9594 11.2221 13.9359 11.1659 13.9125C11.2034 13.9289 11.2432 13.9617 11.2831 13.9734C11.187 13.8937 11.1659 13.8773 11.2198 13.9242C11.2362 13.9383 11.2526 13.9547 11.2667 13.9711C11.194 13.8703 11.1776 13.8492 11.2174 13.9078C11.2292 13.9265 11.2409 13.9476 11.2502 13.9664C11.2573 13.9805 11.2596 13.9898 11.2667 14.0015C11.2831 14.039 11.2995 14.0789 11.3159 14.1187C11.3956 14.3062 11.4776 14.4937 11.5573 14.6812C11.6956 15 11.8315 15.3187 11.9698 15.6375C11.9463 15.5812 11.9229 15.525 11.8995 15.4687C11.9229 15.5297 11.9393 15.5883 11.9487 15.6539C11.9393 15.5906 11.9323 15.5297 11.9229 15.4664C11.9276 15.518 11.9252 15.5672 11.9206 15.6187C11.9299 15.5555 11.937 15.4945 11.9463 15.4312C11.9229 15.5765 11.8901 15.7195 11.862 15.8625C11.8174 16.0805 11.7542 16.3125 11.7729 16.5351C11.801 16.875 11.9627 17.182 12.0893 17.4937C12.2135 17.7961 12.3354 18.0961 12.4596 18.3984C12.4924 18.4758 12.5229 18.5555 12.5581 18.6305C12.6588 18.8484 12.8393 19.0219 13.0362 19.1531C13.2846 19.3219 13.601 19.3758 13.8963 19.3476C14.0698 19.3312 14.2432 19.3148 14.4167 19.2961C14.5338 19.2844 14.6534 19.275 14.7682 19.2492C14.9979 19.1953 15.2252 19.0594 15.3893 18.893C15.5956 18.6797 15.7573 18.3914 15.926 18.1476C16.1299 17.8523 16.3338 17.557 16.5377 17.2617C16.5659 17.2195 16.594 17.1797 16.6221 17.1375C16.6877 17.0414 16.5917 17.189 16.5823 17.1867C16.5846 17.1867 16.6502 17.1211 16.6573 17.114C16.5331 17.243 16.5073 17.2289 16.5518 17.1961C16.5729 17.182 16.5917 17.1656 16.6127 17.1515C16.6854 17.0976 16.7581 17.0437 16.8284 16.9898C16.9854 16.8726 17.1659 16.7601 17.3065 16.6219C17.5737 16.3594 17.719 15.9773 17.7002 15.6047C17.6838 15.2812 17.6627 14.9601 17.644 14.639C17.6417 14.5805 17.6393 14.5219 17.644 14.4633C17.6346 14.5265 17.6276 14.5875 17.6182 14.6508C17.6276 14.5875 17.644 14.5289 17.6698 14.4703C17.6463 14.5265 17.6229 14.5828 17.5995 14.639C17.6323 14.5687 17.7354 14.4328 17.569 14.6484C17.5737 14.6437 17.5784 14.6367 17.5831 14.632C17.6042 14.6039 17.6252 14.5758 17.6463 14.55C17.7213 14.4539 17.7963 14.3578 17.8713 14.2594C18.0659 14.0086 18.2604 13.7555 18.4549 13.5047C18.6612 13.2375 18.9096 12.9726 18.9776 12.6328C19.0338 12.3539 19.0526 12.0586 19.0784 11.775C19.1135 11.3906 18.9354 10.9758 18.6518 10.7203C18.4877 10.575 18.2932 10.4578 18.0776 10.4062C17.8362 10.3476 17.6463 10.3664 17.4049 10.4039C17.4682 10.3945 17.5292 10.3875 17.5924 10.3781C17.5338 10.3851 17.4776 10.3828 17.4213 10.3758C17.4846 10.3851 17.5456 10.3922 17.6088 10.4015C17.5526 10.3922 17.4987 10.3781 17.4471 10.3547C17.5034 10.3781 17.5596 10.4015 17.6159 10.425C17.5807 10.4086 17.5456 10.3875 17.5127 10.3687C17.4424 10.3265 17.6299 10.4765 17.576 10.4156C17.5737 10.4133 17.5409 10.3781 17.5409 10.3781C17.5526 10.3734 17.6393 10.5211 17.5831 10.4297C17.5643 10.4015 17.5456 10.3734 17.5292 10.3453C17.4448 10.2117 17.3581 10.0805 17.2737 9.94686C17.0417 9.58592 16.8096 9.22498 16.5752 8.86405C16.3596 8.52655 16.1557 8.13514 15.7854 7.9453C15.5323 7.81639 15.2651 7.77186 14.9862 7.7953C14.8057 7.80936 14.6252 7.82342 14.4448 7.83983C14.2034 7.85858 13.9596 7.87967 13.7182 7.89842C13.5706 7.91014 13.4159 7.93592 13.2659 7.91717C13.3292 7.92655 13.3901 7.93358 13.4534 7.94295C13.4018 7.93358 13.3549 7.91951 13.3081 7.90076C13.3643 7.9242 13.4206 7.94764 13.4768 7.97108C13.4159 7.94295 13.3057 7.84686 13.4557 7.98045C13.4487 7.97342 13.4417 7.96873 13.4346 7.9617C13.3971 7.92889 13.3573 7.89608 13.3198 7.86561C13.2026 7.76483 13.0831 7.66639 12.9659 7.56561C12.8721 7.48826 12.7807 7.40858 12.687 7.33123C12.4174 7.10858 12.1245 6.96326 11.7682 6.96092C11.5784 6.95858 11.3838 6.99608 11.194 7.01483C10.887 7.0453 10.5799 7.07811 10.2729 7.10858C10.1721 7.11795 10.0713 7.12733 9.97056 7.13905C9.60025 7.18358 9.26041 7.29842 9.01666 7.58201C8.89244 7.72498 8.81041 7.88436 8.81041 8.07889C8.81041 8.25233 8.88775 8.45623 9.01666 8.57576C9.27916 8.81717 9.75494 8.87342 10.0104 8.57576C10.0245 8.55701 10.0409 8.53826 10.0596 8.52186C10.1135 8.47264 10.0924 8.4867 9.99869 8.56405C10.0409 8.54998 10.0831 8.51483 10.1229 8.49608C10.0667 8.51951 10.0104 8.54295 9.95416 8.56639C9.99869 8.54998 10.0432 8.53592 10.0924 8.52889C10.0292 8.53826 9.96822 8.5453 9.90494 8.55467C10.2167 8.51248 10.5331 8.48905 10.8471 8.45623C11.0487 8.43514 11.2479 8.41405 11.4495 8.3953C11.576 8.38123 11.7049 8.36014 11.8292 8.37186C11.7659 8.36248 11.7049 8.35545 11.6417 8.34608C11.7026 8.35545 11.7588 8.37186 11.8151 8.3953C11.7588 8.37186 11.7026 8.34842 11.6463 8.32498C11.7143 8.3578 11.8034 8.44217 11.6604 8.31092C11.6651 8.31561 11.6698 8.3203 11.6745 8.32264C11.7049 8.35076 11.7377 8.37655 11.7682 8.40233C11.8737 8.49139 11.9815 8.5828 12.087 8.67186C12.3471 8.89217 12.5956 9.13123 12.919 9.25545C13.1862 9.35858 13.4487 9.32576 13.7206 9.30233C14.0018 9.27889 14.2807 9.2578 14.562 9.23436C14.7752 9.21795 15.0073 9.17342 15.2206 9.19686C15.1573 9.18748 15.0963 9.18045 15.0331 9.17108C15.0893 9.18045 15.1432 9.19451 15.1971 9.21795C15.1409 9.19451 15.0846 9.17108 15.0284 9.14764C15.0542 9.15936 15.0799 9.17108 15.1034 9.18748C15.1854 9.2367 15.1057 9.23436 15.0565 9.14764C15.0635 9.15936 15.0987 9.18983 15.1057 9.19686C15.0096 9.1242 15.0237 9.07967 15.0588 9.13826C15.0635 9.1453 15.0682 9.15467 15.0752 9.1617C15.1104 9.21326 15.1432 9.26717 15.176 9.31873C15.3073 9.52264 15.4385 9.72655 15.5698 9.93045C15.8229 10.3242 16.076 10.718 16.3292 11.1117C16.4252 11.2617 16.5331 11.3953 16.6737 11.5031C16.826 11.6203 16.9971 11.7164 17.187 11.7562C17.4143 11.8055 17.6042 11.789 17.8338 11.7515C17.7706 11.7609 17.7096 11.768 17.6463 11.7773C17.7002 11.7726 17.7495 11.7703 17.8034 11.775C17.7401 11.7656 17.6792 11.7586 17.6159 11.7492C17.6768 11.7586 17.7331 11.7726 17.7917 11.7961C17.7354 11.7726 17.6792 11.7492 17.6229 11.7258C17.6581 11.7422 17.6909 11.768 17.7284 11.782C17.6276 11.7 17.6018 11.6812 17.6557 11.7258C17.6674 11.7351 17.6768 11.7469 17.6885 11.7562C17.7963 11.8476 17.6065 11.618 17.6604 11.7187C17.6792 11.7539 17.6979 11.7867 17.7143 11.8242C17.6909 11.768 17.6674 11.7117 17.644 11.6555C17.6627 11.7047 17.6745 11.7515 17.6838 11.8031C17.6745 11.7398 17.6674 11.6789 17.6581 11.6156C17.6745 11.7539 17.6463 11.8969 17.6299 12.0328C17.6159 12.157 17.6018 12.2812 17.5877 12.4078C17.5971 12.3445 17.6042 12.2836 17.6135 12.2203C17.6042 12.2859 17.5877 12.3445 17.5643 12.4055C17.5877 12.3492 17.6112 12.293 17.6346 12.2367C17.6299 12.2461 17.5901 12.3398 17.5784 12.3375C17.5784 12.3375 17.6674 12.225 17.6651 12.2273C17.6627 12.232 17.6581 12.2367 17.6534 12.2414C17.637 12.2648 17.6182 12.2859 17.6018 12.3094C17.5338 12.3961 17.4682 12.4828 17.4002 12.5695C17.2174 12.8062 17.0346 13.043 16.8518 13.2797C16.7182 13.4508 16.5776 13.6195 16.451 13.7976C16.2049 14.1445 16.219 14.5289 16.2424 14.925C16.2588 15.1922 16.3034 15.4758 16.2799 15.7453C16.2893 15.682 16.2963 15.6211 16.3057 15.5578C16.2987 15.6164 16.2846 15.6703 16.2635 15.7265C16.287 15.6703 16.3104 15.614 16.3338 15.5578C16.3221 15.5836 16.3104 15.6094 16.2963 15.6351C16.2495 15.7148 16.2424 15.6515 16.3362 15.593C16.3221 15.6023 16.2987 15.6328 16.287 15.6445C16.2049 15.7289 16.3713 15.5812 16.3737 15.5812C16.3456 15.6 16.3174 15.6234 16.2917 15.6422C16.1862 15.7219 16.0784 15.8015 15.9729 15.8789C15.8581 15.9656 15.7315 16.0476 15.626 16.1461C15.5323 16.2328 15.4596 16.343 15.387 16.4484C15.1057 16.8539 14.8245 17.2617 14.5432 17.6672C14.487 17.7469 14.4331 17.8265 14.3768 17.9086C14.3651 17.925 14.3534 17.9414 14.3417 17.9578C14.3393 17.9601 14.4565 17.8359 14.3838 17.8992C14.3651 17.9156 14.276 17.9906 14.3768 17.9109C14.4799 17.8289 14.3581 17.9133 14.3299 17.9273C14.3862 17.9039 14.4424 17.8805 14.4987 17.857C14.4448 17.8805 14.3909 17.8945 14.3323 17.9062C14.3956 17.8969 14.4565 17.8898 14.5198 17.8805C14.3838 17.8969 14.2456 17.9086 14.1073 17.9203C13.962 17.9344 13.812 17.9625 13.6643 17.9484C13.7276 17.9578 13.7885 17.9648 13.8518 17.9742C13.7862 17.9648 13.7252 17.9484 13.6643 17.9226C13.7206 17.9461 13.7768 17.9695 13.8331 17.993C13.8049 17.9789 13.7768 17.9625 13.7487 17.9484C13.6432 17.8922 13.8823 18.0726 13.7792 17.9672C13.6807 17.8664 13.8401 18.0703 13.8073 18.007C13.7885 17.9719 13.7698 17.939 13.7534 17.9039C13.7768 17.9601 13.8002 18.0164 13.8237 18.0726C13.7112 17.7984 13.5987 17.5219 13.4862 17.2476C13.4135 17.0695 13.3409 16.889 13.2659 16.7109C13.2167 16.5937 13.1627 16.4765 13.1417 16.35C13.151 16.4133 13.1581 16.4742 13.1674 16.5375C13.1627 16.4812 13.1627 16.4273 13.1674 16.3734C13.1581 16.4367 13.151 16.4976 13.1417 16.5609C13.219 16.1015 13.4159 15.593 13.2565 15.1336C13.1463 14.8148 12.9893 14.5055 12.8557 14.1961C12.7268 13.8984 12.6049 13.5984 12.4713 13.3031C12.3143 12.9539 11.9463 12.6633 11.569 12.593C11.3956 12.5601 11.2198 12.5531 11.044 12.5437C10.6737 12.5203 10.2987 12.5062 9.92837 12.4711C9.99166 12.4805 10.0526 12.4875 10.1159 12.4969C10.0526 12.4875 9.994 12.4711 9.93541 12.4476C9.99166 12.4711 10.0479 12.4945 10.1042 12.518C9.85572 12.4078 9.60728 12.2976 9.35884 12.1898C9.22291 12.1289 9.08697 12.0703 8.95103 12.0094C8.92994 12 8.90884 11.9906 8.88541 11.9812C8.85494 11.9672 8.82681 11.9508 8.79869 11.9344C8.69322 11.8781 8.91119 12.0492 8.83853 11.9625C8.73541 11.8406 8.88072 12.0375 8.85728 11.9906C8.83853 11.9555 8.81978 11.925 8.80572 11.8898C8.82916 11.9461 8.85259 12.0023 8.87603 12.0586C8.77525 11.7914 8.71197 11.5055 8.63462 11.2336C8.58306 11.0578 8.53384 10.882 8.48228 10.7062C8.45181 10.6008 8.41431 10.493 8.40025 10.3851C8.40962 10.4484 8.41666 10.5094 8.42603 10.5726C8.42134 10.5234 8.42134 10.4765 8.42603 10.4297C8.41666 10.493 8.40962 10.5539 8.40025 10.6172C8.40962 10.5562 8.42369 10.5023 8.44478 10.4437C8.42134 10.5 8.39791 10.5562 8.37447 10.6125C8.41431 10.5234 8.52447 10.3992 8.36041 10.5961C8.36978 10.5867 8.37681 10.575 8.38619 10.5656C8.42134 10.5211 8.4565 10.4765 8.494 10.4344C8.62291 10.275 8.75416 10.1156 8.88306 9.95623C9.18306 9.58592 9.48306 9.21795 9.78306 8.84764C9.85572 8.75858 9.92603 8.66951 9.99869 8.58045C10.1206 8.43045 10.2049 8.2828 10.2049 8.08358C10.2049 7.91014 10.1276 7.70623 9.99869 7.5867C9.75494 7.34764 9.26275 7.27733 9.01666 7.58201ZM6.04244 14.5265C5.74244 14.8687 5.44009 15.2109 5.14009 15.5531C5.09791 15.6 5.05572 15.6469 5.01353 15.6961C4.90806 15.8203 4.85181 15.9515 4.79791 16.0992C4.70884 16.343 4.62212 16.589 4.53306 16.8328C4.46041 17.0344 4.38775 17.2359 4.31509 17.4375C4.33853 17.3812 4.36197 17.325 4.38541 17.2687C4.30103 17.468 4.21666 17.6672 4.13228 17.8664C4.50025 17.8195 4.86822 17.7726 5.23619 17.7234C5.1565 17.6297 5.07681 17.5336 4.99947 17.4375C4.98306 17.4187 4.969 17.3976 4.95259 17.3789C5.0815 17.5383 5.01119 17.4562 4.98306 17.4187C4.94556 17.3695 4.90806 17.3203 4.87291 17.2687C4.72994 17.0742 4.594 16.8726 4.46744 16.6664C4.21197 16.2515 3.98697 15.818 3.79712 15.3703C3.82056 15.4265 3.844 15.4828 3.86744 15.539C3.54166 14.7633 3.31666 13.9476 3.20181 13.1133C3.21119 13.1765 3.21822 13.2375 3.22759 13.3008C3.11275 12.4476 3.11275 11.5828 3.22525 10.7297C3.21588 10.793 3.20884 10.8539 3.19947 10.9172C3.21119 10.8281 3.22525 10.739 3.23931 10.65C2.81041 10.7062 2.3815 10.7625 1.95494 10.8187C2.42838 11.4633 2.92525 12.0984 3.37759 12.757C3.63072 13.1226 3.86041 13.507 4.09947 13.882C4.17681 14.0039 4.25416 14.1164 4.369 14.2078C4.54712 14.3484 4.72525 14.4867 4.90337 14.6273C5.28306 14.9273 5.66275 15.225 6.04478 15.525C6.19712 15.6445 6.34009 15.7312 6.54166 15.7312C6.71509 15.7312 6.919 15.6539 7.03853 15.525C7.16041 15.3914 7.25181 15.2156 7.24478 15.0281C7.23775 14.8547 7.1815 14.6437 7.03853 14.5312C6.71509 14.2758 6.39166 14.0226 6.06822 13.7672C5.86666 13.6101 5.66744 13.4508 5.46587 13.2937C5.41197 13.2515 5.36041 13.207 5.30416 13.1672C5.19869 13.0922 5.44712 13.3828 5.36509 13.2515C5.11666 12.8578 4.86587 12.464 4.61041 12.075C4.42291 11.789 4.20728 11.5219 4.00572 11.2476C3.72681 10.868 3.44791 10.4883 3.169 10.1086C2.99791 9.8742 2.77056 9.73123 2.46822 9.77342C2.21744 9.80623 1.92681 10.0055 1.88463 10.2773C1.68306 11.5406 1.69478 12.8062 1.94322 14.0625C2.15884 15.1523 2.569 16.214 3.12916 17.1726C3.45025 17.7234 3.82759 18.239 4.24244 18.7219C4.38541 18.8883 4.62681 18.9422 4.83306 18.9164C5.02759 18.8906 5.26431 18.7758 5.34634 18.5812C5.46353 18.307 5.59244 18.0375 5.69322 17.7586C5.81744 17.414 5.94166 17.0695 6.06587 16.7273C6.10572 16.6148 6.14791 16.5023 6.18775 16.3898C6.12681 16.493 6.06822 16.5961 6.00728 16.6992C6.35181 16.3078 6.694 15.9187 7.03853 15.5273C7.16275 15.3867 7.24478 15.2226 7.24478 15.0305C7.24478 14.857 7.16744 14.6531 7.03853 14.5336C6.77134 14.2828 6.30259 14.2312 6.04244 14.5265Z" fill="#367971"/>
<path d="M20.3886 9.0258C20.3956 9.32814 20.405 9.62814 20.412 9.93048C20.4167 10.1344 20.4238 10.3406 20.4284 10.5445C20.4308 10.643 20.4425 10.7438 20.4331 10.8399C20.4425 10.7766 20.4495 10.7156 20.4589 10.6524C20.4566 10.6617 20.4519 10.6711 20.4495 10.6805C20.473 10.6242 20.4964 10.568 20.5199 10.5117C20.5831 10.4508 20.6464 10.3875 20.7097 10.3266C20.7659 10.3031 20.8222 10.2797 20.8784 10.2563C20.8691 10.261 20.8574 10.2633 20.848 10.268C20.9113 10.2586 20.9722 10.2516 21.0355 10.2422C21.0144 10.2469 20.9933 10.2469 20.9745 10.2422C21.0378 10.2516 21.0988 10.2586 21.162 10.268C21.1527 10.2656 21.1433 10.261 21.1339 10.2586C21.1902 10.282 21.2464 10.3055 21.3027 10.3289C21.3542 10.3617 21.537 10.6219 21.4644 10.4555C21.4409 10.3992 21.4152 10.343 21.3917 10.2867C21.3167 10.1156 21.2417 9.9422 21.1667 9.77111C21.0824 9.57658 21.012 9.35861 20.8972 9.17814C20.7214 8.90392 20.548 8.62736 20.3722 8.35314C20.3558 8.32736 20.3394 8.29923 20.3206 8.27345C20.1519 8.02736 19.88 7.83986 19.5683 7.86564C19.4206 7.87736 19.273 7.90548 19.1253 7.92423C18.9753 7.94533 18.837 7.95939 18.7034 8.04142C18.4878 8.17502 18.3402 8.39298 18.3074 8.64377C18.2863 8.79611 18.3097 8.93908 18.3472 9.08673C18.3847 9.24611 18.4245 9.40548 18.462 9.56486C18.4527 9.50158 18.4456 9.44064 18.4363 9.37736C18.4409 9.39611 18.4409 9.4172 18.4363 9.43595C18.4456 9.37267 18.4527 9.31173 18.462 9.24845C18.4597 9.25783 18.455 9.2672 18.4527 9.27658C18.4761 9.22033 18.4995 9.16408 18.523 9.10783C18.4152 9.34455 18.3097 9.57892 18.2019 9.81564C18.1292 9.97502 18.0589 10.132 17.9863 10.2914C17.9628 10.343 17.9394 10.3922 17.9183 10.4438C17.8527 10.5867 17.8902 10.4297 18.0777 10.3172C18.1339 10.2938 18.1902 10.2703 18.2464 10.2469C18.237 10.2492 18.2253 10.2539 18.2159 10.2563C17.8644 10.3664 17.6042 10.7508 17.7238 11.1211C17.8386 11.4727 18.2136 11.7305 18.5886 11.6133C18.8113 11.543 19.0128 11.4024 19.1183 11.1891C19.1441 11.1375 19.1652 11.086 19.1886 11.0344C19.2753 10.8445 19.362 10.6547 19.4464 10.4625C19.5261 10.2867 19.6058 10.111 19.6855 9.93752C19.7019 9.90002 19.7206 9.86252 19.737 9.82502C19.8402 9.59533 19.8636 9.39845 19.8097 9.1547C19.7675 8.97189 19.7206 8.79142 19.6784 8.61095C19.6878 8.67423 19.6949 8.73517 19.7042 8.79845C19.6995 8.7797 19.6995 8.76095 19.7019 8.73986C19.6925 8.80314 19.6855 8.86408 19.6761 8.92736C19.6784 8.91798 19.6808 8.90861 19.6831 8.90158C19.6597 8.95783 19.6363 9.01408 19.6128 9.07033C19.5659 9.14064 19.5074 9.19923 19.4394 9.24845C19.3831 9.27189 19.3269 9.29533 19.2706 9.31877C19.28 9.31642 19.2894 9.31408 19.2988 9.31173C19.2355 9.32111 19.1745 9.32814 19.1113 9.33752C19.2753 9.31642 19.4441 9.27658 19.6105 9.27423C19.5472 9.26486 19.4863 9.25783 19.423 9.24845C19.4324 9.2508 19.4417 9.25314 19.4534 9.25548C19.3972 9.23205 19.3409 9.20861 19.2847 9.18517C19.2519 9.17111 19.0644 8.92502 19.1159 9.00705C19.13 9.03283 19.1464 9.05627 19.1628 9.0797C19.212 9.15705 19.2613 9.23205 19.3081 9.30939C19.4183 9.48517 19.5308 9.65861 19.6409 9.83439C19.7816 10.057 19.8706 10.3102 19.9761 10.5516C20.0581 10.7367 20.1378 10.9242 20.2199 11.1094C20.2363 11.1492 20.2527 11.1891 20.2714 11.2289C20.4495 11.5711 20.8902 11.7399 21.2534 11.6227C21.6097 11.5078 21.8394 11.182 21.8441 10.8094C21.8441 10.7672 21.8417 10.725 21.8417 10.6828C21.837 10.4953 21.8324 10.3102 21.8277 10.1227C21.8183 9.75939 21.8089 9.39611 21.7972 9.03283C21.7878 8.66486 21.4808 8.3133 21.0941 8.3297C20.7191 8.33908 20.3769 8.63205 20.3886 9.0258ZM9.76204 7.16486C9.75267 7.16486 9.74329 7.16486 9.73157 7.16486C9.79485 7.17423 9.85579 7.18127 9.91907 7.19064C9.9097 7.1883 9.90032 7.18595 9.89095 7.18361C9.9472 7.20705 10.0034 7.23048 10.0597 7.25392C10.1136 7.2797 10.2261 7.42033 10.2402 7.44611C10.2331 7.43673 10.2261 7.42502 10.2191 7.41564C10.198 7.38048 10.1745 7.34533 10.1511 7.31017C10.1136 7.25392 10.0738 7.19767 10.0433 7.13673C10.0667 7.19298 10.0902 7.24923 10.1136 7.30548C10.1113 7.29377 10.1089 7.28439 10.1066 7.27267C10.1159 7.33595 10.123 7.39689 10.1324 7.46017C10.1324 7.44845 10.1347 7.43673 10.1347 7.42736C10.1253 7.49064 10.1183 7.55158 10.1089 7.61486C10.1394 7.44142 10.1699 7.26564 10.2003 7.0922C10.2308 6.91877 10.2472 6.73361 10.2964 6.56486C10.273 6.62111 10.2495 6.67736 10.2261 6.73361C10.1792 6.80392 10.1206 6.86252 10.0527 6.90939C9.99642 6.93283 9.94017 6.95627 9.88392 6.9797C9.89329 6.97736 9.90267 6.97502 9.91204 6.97267C9.84876 6.98205 9.78782 6.98908 9.72454 6.99845C9.95188 6.98908 10.1816 7.0383 10.4089 7.04298C10.7769 7.05236 11.1167 6.79455 11.2222 6.44533C11.2925 6.20627 11.2386 5.99064 11.1378 5.77033C11.0863 5.65548 11.0324 5.54298 10.9784 5.43048C11.0019 5.48673 11.0253 5.54298 11.0488 5.59923C11.0464 5.58986 11.0417 5.58048 11.0394 5.57111C11.0488 5.63439 11.0558 5.69533 11.0652 5.75861C11.0605 5.73986 11.0605 5.72111 11.0652 5.7047C11.0558 5.76798 11.0488 5.82892 11.0394 5.8922C11.0417 5.88283 11.0441 5.8758 11.0464 5.86642C11.023 5.92267 10.9995 5.97892 10.9761 6.03517C10.9292 6.10548 10.8706 6.16408 10.8003 6.21095C10.7441 6.23439 10.6878 6.25783 10.6316 6.28127C10.9316 6.16408 11.2339 6.04923 11.5339 5.93205C11.6605 5.88283 11.7894 5.83361 11.9159 5.78439C12.0284 5.73986 12.1011 5.71173 12.1902 5.64142C12.387 5.48908 12.5277 5.2547 12.5253 4.99689C12.5253 4.80939 12.4644 4.65002 12.3777 4.4883C12.2909 4.32189 12.2019 4.15783 12.1152 3.99142C12.1386 4.04767 12.162 4.10392 12.1855 4.16017C12.1761 4.14142 12.1714 4.12267 12.1691 4.10158C12.1784 4.16486 12.1855 4.2258 12.1949 4.28908C12.1949 4.2797 12.1972 4.26798 12.1972 4.25861C12.1878 4.32189 12.1808 4.38283 12.1714 4.44611C12.1738 4.43673 12.1784 4.42736 12.1808 4.41798C12.1574 4.47423 12.1339 4.53048 12.1105 4.58673C12.0378 4.7133 12.0167 4.69689 12.0824 4.64064C12.1269 4.60314 12.1714 4.56564 12.2159 4.5258C12.3589 4.40392 12.5019 4.28205 12.6449 4.16252C12.7878 4.04064 12.9308 3.92111 13.0714 3.79923C13.1183 3.75939 13.1675 3.71955 13.2144 3.67736C13.2753 3.6258 13.3597 3.59298 13.1605 3.71955C13.1042 3.74298 13.048 3.76642 12.9917 3.78986C13.0034 3.78752 13.0152 3.78283 13.0269 3.78048C12.9636 3.78986 12.9027 3.79689 12.8394 3.80627C12.8511 3.80627 12.8628 3.80627 12.8745 3.80627C12.8113 3.79689 12.7503 3.78986 12.687 3.78048C12.8019 3.80861 12.912 3.86486 13.0222 3.90939C13.1886 3.97502 13.3527 4.04298 13.5191 4.10861C13.8495 4.23986 14.1917 4.17189 14.4566 3.93283C14.5667 3.83439 14.6699 3.72658 14.7777 3.62345C14.9675 3.44064 15.1949 3.26017 15.2464 2.98595C15.2816 2.79845 15.2745 2.61564 15.1761 2.44455C15.0917 2.29923 14.923 2.15861 14.7566 2.12111C14.4097 2.04142 13.9644 2.22658 13.8917 2.6133C13.8894 2.62502 13.887 2.63439 13.8847 2.64611C13.9081 2.58986 13.9316 2.53361 13.955 2.47736C13.9949 2.39064 14.0605 2.36486 14.0089 2.41173C13.9855 2.43283 13.962 2.45627 13.9409 2.47736C13.8753 2.54064 13.8097 2.60392 13.7441 2.6672C13.6784 2.73048 13.6128 2.79377 13.5472 2.85705C13.5238 2.87814 13.5003 2.90158 13.4792 2.92267C13.3995 3.00236 13.662 2.81252 13.5472 2.86408C13.6034 2.84064 13.6597 2.8172 13.7159 2.79377C13.7066 2.79611 13.6949 2.79845 13.6855 2.8008C13.7488 2.79142 13.8097 2.78439 13.873 2.77502C13.8636 2.77502 13.8519 2.77502 13.8425 2.77502C13.9058 2.78439 13.9667 2.79142 14.03 2.8008C13.7792 2.73283 13.5355 2.60627 13.2941 2.51017C13.0808 2.4258 12.9003 2.36252 12.6566 2.4258C12.4667 2.47502 12.3261 2.59689 12.1831 2.72111C11.9511 2.91798 11.7191 3.11486 11.487 3.31173C11.2972 3.47345 11.0464 3.63283 10.9128 3.8508C10.7464 4.12502 10.7652 4.43673 10.9058 4.7133C10.9363 4.77423 10.9714 4.83517 11.0019 4.89611C11.0675 5.02033 11.1331 5.14455 11.2011 5.27111C11.1777 5.21486 11.1542 5.15861 11.1308 5.10236C11.1402 5.11877 11.1449 5.13752 11.1472 5.15861C11.1378 5.09533 11.1308 5.03439 11.1214 4.97111C11.1214 4.98048 11.1214 4.98986 11.1191 4.99923C11.1284 4.93595 11.1355 4.87502 11.1449 4.81173C11.1425 4.82111 11.1402 4.83048 11.1378 4.83986C11.1613 4.78361 11.1847 4.72736 11.2081 4.67111C11.255 4.60314 11.3136 4.54455 11.3816 4.49767C11.4378 4.47423 11.4941 4.4508 11.5503 4.42736C11.2925 4.52814 11.0324 4.62892 10.7745 4.7297C10.6269 4.78595 10.4792 4.84455 10.3316 4.9008C10.3058 4.91017 10.2824 4.91955 10.2566 4.92892C10.0808 4.99923 9.94251 5.08361 9.82767 5.23361C9.71048 5.38361 9.6472 5.57345 9.65892 5.7633C9.67298 6.02345 9.82532 6.27423 9.93313 6.50861C9.9097 6.45236 9.88626 6.39611 9.86282 6.33986C9.86517 6.34923 9.86985 6.35861 9.8722 6.36798C9.86282 6.3047 9.85579 6.24377 9.84642 6.18048C9.8511 6.19923 9.8511 6.21798 9.84642 6.23673C9.85579 6.17345 9.86282 6.11252 9.8722 6.04923C9.86985 6.05861 9.86751 6.06564 9.86517 6.07502C9.8886 6.01877 9.91204 5.96252 9.93548 5.90627C9.98235 5.83595 10.0409 5.77736 10.1113 5.72814C10.1675 5.7047 10.2238 5.68127 10.28 5.65783C10.2706 5.66017 10.2613 5.66252 10.2519 5.66486C10.3152 5.65548 10.3761 5.64845 10.4394 5.63908C10.2613 5.64611 10.0761 5.61798 9.89564 5.60392C9.76204 5.59455 9.64017 5.58752 9.50892 5.62736C9.22298 5.71408 8.98626 5.95314 8.92767 6.24845C8.89017 6.4383 8.8597 6.63283 8.82689 6.82267C8.79173 7.02423 8.73548 7.23986 8.7261 7.44611C8.71673 7.68986 8.83626 7.87267 8.96048 8.06252C8.98392 8.09767 9.00501 8.13283 9.02845 8.16564C9.20423 8.41642 9.44798 8.56877 9.76204 8.5758C10.13 8.58283 10.4816 8.24767 10.4652 7.87267C10.4464 7.48127 10.1558 7.17189 9.76204 7.16486Z" fill="#367971"/>
</svg>
