<svg width="24" height="24" viewBox="0 0 24 24" fill="none" xmlns="http://www.w3.org/2000/svg">
<path d="M20.7353 12.0093C20.4657 12.2788 20.1986 12.546 19.929 12.8156C19.2868 13.4578 18.6447 14.0999 18.0025 14.7421C17.2267 15.5179 16.4509 16.2937 15.6728 17.0718C15.0001 17.7445 14.3251 18.4195 13.6525 19.0921C13.3267 19.4179 12.9915 19.7343 12.6751 20.0695C12.6704 20.0742 12.6658 20.0788 12.6611 20.0835C12.9915 20.0835 13.3243 20.0835 13.6548 20.0835C12.9236 19.3523 12.1923 18.621 11.4611 17.8898C11.3579 17.7867 11.2525 17.6812 11.1493 17.5781C11.1493 17.9085 11.1493 18.2413 11.1493 18.5718C11.6462 18.0749 12.1431 17.5781 12.64 17.0812C13.2329 16.4882 13.8236 15.8976 14.4165 15.3046C14.897 14.8242 15.2533 14.2687 15.4993 13.6359C15.8087 12.8413 15.8509 11.9601 15.6915 11.1281C15.3611 9.4101 13.9454 7.98041 12.2345 7.62181C11.4001 7.44603 10.5095 7.48353 9.70794 7.78353C9.30013 7.93588 8.91106 8.13041 8.56419 8.39291C8.29934 8.59447 8.06262 8.81478 7.82825 9.04916C7.76966 9.10775 7.70872 9.16869 7.65012 9.22728C7.98059 9.22728 8.31341 9.22728 8.64387 9.22728C8.25012 8.83353 7.86341 8.44447 7.38059 8.15619C6.65169 7.71791 5.7845 7.49056 4.93372 7.514C4.39231 7.52806 3.84856 7.63353 3.34934 7.84213C3.647 8.06713 3.94231 8.29447 4.23997 8.51947C4.247 8.35775 4.26106 8.19838 4.28216 8.03666C4.27278 8.09994 4.26575 8.16088 4.25637 8.22416C4.31966 7.75306 4.44387 7.29369 4.62669 6.85541C4.60325 6.91166 4.57981 6.96791 4.55637 7.02416C4.68528 6.71947 4.83997 6.42885 5.02278 6.15228C5.06966 6.08197 5.11653 6.014 5.16575 5.94603C5.19856 5.9015 5.30403 5.79603 5.16106 5.94838C5.18684 5.92025 5.21028 5.88744 5.23372 5.85697C5.34153 5.72572 5.45872 5.59681 5.57825 5.47728C5.70012 5.35541 5.82669 5.24056 5.95794 5.13275C5.98841 5.10697 6.01888 5.08353 6.04934 5.0601C5.88997 5.19369 5.99075 5.10463 6.03059 5.0765C6.10325 5.0226 6.17591 4.97103 6.25325 4.92181C6.52981 4.739 6.82044 4.58432 7.12512 4.45541C7.06887 4.47885 7.01262 4.50228 6.95637 4.52572C7.39466 4.34291 7.85403 4.21869 8.32747 4.15541C8.26419 4.16478 8.20325 4.17181 8.13997 4.18119C8.60872 4.12025 9.08216 4.12025 9.55091 4.18119C9.48763 4.17181 9.42669 4.16478 9.36341 4.15541C9.8345 4.21869 10.2939 4.34291 10.7345 4.52572C10.6782 4.50228 10.622 4.47885 10.5657 4.45541C10.8634 4.58197 11.1517 4.73431 11.4212 4.91244C11.4915 4.95932 11.5595 5.00619 11.6275 5.05541C11.6579 5.07885 11.6884 5.10228 11.7212 5.12572C11.5525 5.00385 11.6626 5.08119 11.7025 5.11166C11.8361 5.21947 11.9626 5.33431 12.0845 5.45385C12.2767 5.64135 12.4642 5.83353 12.654 6.02338C12.9236 6.29291 13.3783 6.29291 13.6478 6.02338C13.8681 5.80306 14.0861 5.57572 14.3134 5.36244C14.4259 5.25697 14.5407 5.15853 14.6603 5.06478C14.7025 5.03197 14.6767 5.05072 14.5853 5.12338C14.604 5.10931 14.6204 5.09525 14.6392 5.08353C14.665 5.06244 14.6931 5.04369 14.7212 5.02494C14.7845 4.98041 14.8478 4.93588 14.9134 4.89369C15.1712 4.72728 15.4431 4.58431 15.7243 4.46244C15.6681 4.48588 15.6118 4.50931 15.5556 4.53275C15.9939 4.34994 16.4532 4.22338 16.9243 4.15775C16.8611 4.16713 16.8001 4.17416 16.7368 4.18353C17.215 4.12025 17.7001 4.12025 18.1782 4.18353C18.115 4.17416 18.054 4.16713 17.9907 4.15775C18.4618 4.22338 18.9212 4.3476 19.3595 4.53275C19.3032 4.50931 19.247 4.48588 19.1908 4.46244C19.4931 4.59135 19.7837 4.74603 20.0579 4.92885C20.1329 4.97807 20.2056 5.02963 20.2759 5.08353C20.3158 5.114 20.4118 5.19838 20.2407 5.05541C20.2759 5.08353 20.3111 5.11166 20.3462 5.13978C20.4775 5.2476 20.604 5.36244 20.7236 5.48431C20.8431 5.60385 20.9579 5.73041 21.0681 5.86166C21.0962 5.89447 21.129 5.92963 21.1525 5.96713C21.129 5.93666 21.1056 5.90853 21.0845 5.87806C21.0986 5.89681 21.1126 5.91322 21.1243 5.93197C21.1782 6.00228 21.2275 6.07728 21.279 6.14994C21.4618 6.42416 21.6165 6.71478 21.7454 7.01713C21.722 6.96088 21.6986 6.90463 21.6751 6.84838C21.8603 7.28666 21.9845 7.74603 22.0501 8.21713C22.0408 8.15385 22.0337 8.09291 22.0243 8.02963C22.0876 8.50775 22.0876 8.99291 22.0243 9.47103C22.0337 9.40775 22.0408 9.34681 22.0501 9.28353C21.9845 9.75463 21.8603 10.214 21.6751 10.6523C21.6986 10.596 21.722 10.5398 21.7454 10.4835C21.6165 10.7859 21.4618 11.0765 21.279 11.3507C21.2368 11.4163 21.1923 11.4796 21.1454 11.5429C21.1126 11.5874 21.0025 11.7163 21.1548 11.5335C21.1267 11.5687 21.0986 11.6038 21.0704 11.639C20.972 11.7609 20.8572 11.8874 20.7353 12.0093C20.4751 12.2695 20.454 12.7453 20.7353 13.0031C21.0142 13.2609 21.4525 13.282 21.729 13.0031C22.2001 12.5273 22.6056 11.9718 22.8892 11.3624C23.1915 10.7179 23.372 10.057 23.454 9.34916C23.6017 8.0601 23.2876 6.70306 22.6103 5.59681C21.8743 4.39916 20.7353 3.49681 19.4087 3.03744C18.1876 2.61556 16.7954 2.61088 15.572 3.02103C14.8876 3.25072 14.2712 3.59291 13.704 4.03822C13.3665 4.30306 13.0712 4.61244 12.7689 4.91478C12.7337 4.94994 12.7009 4.98275 12.6658 5.01791C12.9962 5.01791 13.329 5.01791 13.6595 5.01791C13.2118 4.57025 12.7759 4.12494 12.2533 3.76166C11.3978 3.16635 10.3876 2.83588 9.35638 2.73978C8.32747 2.64369 7.29622 2.8476 6.35403 3.2601C5.372 3.689 4.54466 4.41088 3.92356 5.27572C3.24856 6.21556 2.88997 7.36166 2.83841 8.51244C2.82903 8.73275 2.94856 8.93431 3.11497 9.06556C3.27434 9.18744 3.52747 9.27416 3.72903 9.19213C4.04778 9.05853 4.38059 8.96947 4.72044 8.9226C4.65716 8.93197 4.59622 8.939 4.53294 8.94838C4.87512 8.90385 5.21731 8.90385 5.5595 8.94838C5.49622 8.939 5.43528 8.93197 5.372 8.9226C5.71653 8.96947 6.05169 9.06088 6.37278 9.19681C6.31653 9.17338 6.26028 9.14994 6.20403 9.1265C6.41263 9.21556 6.61184 9.32338 6.80169 9.4476C6.84856 9.47807 6.89778 9.51088 6.94231 9.54603C7.03372 9.61166 6.947 9.54135 6.90716 9.51791C6.92825 9.53197 6.94934 9.55072 6.96809 9.56713C7.06419 9.64447 7.15559 9.72885 7.24466 9.81556C7.38059 9.94916 7.51419 10.0851 7.65012 10.221C7.91966 10.4906 8.37434 10.4906 8.64387 10.221C8.80325 10.0617 8.95794 9.89994 9.11966 9.7476C9.197 9.67494 9.28372 9.60931 9.36341 9.53666C9.18762 9.69135 9.33059 9.56244 9.38216 9.52494C9.42669 9.49213 9.47356 9.46166 9.52044 9.43119C9.70325 9.31166 9.89778 9.21088 10.0993 9.12416C10.0431 9.1476 9.98684 9.17103 9.93059 9.19447C10.2493 9.06088 10.5822 8.96947 10.9243 8.9226C10.8611 8.93197 10.8001 8.939 10.7368 8.94838C11.0767 8.90385 11.4212 8.90385 11.7611 8.94838C11.6978 8.939 11.6368 8.93197 11.5736 8.9226C11.9157 8.96947 12.2486 9.06088 12.5673 9.19447C12.5111 9.17103 12.4548 9.1476 12.3986 9.12416C12.6142 9.21791 12.8228 9.32806 13.0197 9.45931C13.0712 9.49213 13.1204 9.52728 13.1697 9.56478C13.1931 9.58119 13.2775 9.64681 13.179 9.57181C13.0806 9.49447 13.165 9.56244 13.1861 9.57885C13.2822 9.65853 13.3759 9.74291 13.4626 9.82963C13.547 9.914 13.6267 10.0031 13.704 10.0945C13.7228 10.1156 13.7392 10.139 13.7579 10.1601C13.615 9.99838 13.697 10.0804 13.7298 10.1249C13.7626 10.1695 13.7954 10.214 13.8259 10.2609C13.9595 10.4601 14.0743 10.6734 14.1681 10.896C14.1447 10.8398 14.1212 10.7835 14.0978 10.7273C14.2314 11.046 14.3228 11.3788 14.3697 11.721C14.3603 11.6578 14.3532 11.5968 14.3439 11.5335C14.3884 11.8734 14.3884 12.2179 14.3439 12.5578C14.3532 12.4945 14.3603 12.4335 14.3697 12.3703C14.3228 12.7124 14.2314 13.0453 14.0978 13.364C14.1212 13.3078 14.1447 13.2515 14.1681 13.1953C14.0954 13.3663 14.0111 13.5328 13.915 13.6898C13.8681 13.7648 13.8212 13.8398 13.7697 13.9124C13.7439 13.9476 13.7134 13.9828 13.69 14.0203C13.6923 14.0179 13.8072 13.8749 13.7368 13.957C13.7181 13.9781 13.7017 14.0015 13.6829 14.0226C13.5939 14.1281 13.5001 14.2242 13.404 14.3203C13.1814 14.5429 12.9587 14.7656 12.7361 14.9882C12.0493 15.6749 11.3626 16.3617 10.6783 17.046C10.5048 17.2195 10.329 17.3953 10.1556 17.5687C9.88606 17.8382 9.88606 18.2929 10.1556 18.5624C10.8868 19.2937 11.6181 20.0249 12.3493 20.7562C12.4525 20.8593 12.5579 20.9648 12.6611 21.0679C12.9306 21.3374 13.3853 21.3374 13.6548 21.0679C13.9243 20.7984 14.1915 20.5312 14.4611 20.2617C15.1032 19.6195 15.7454 18.9773 16.3876 18.3351C17.1634 17.5593 17.9392 16.7835 18.7173 16.0054C19.39 15.3328 20.065 14.6578 20.7376 13.9851C21.0634 13.6593 21.3962 13.3406 21.715 13.0078C21.7197 13.0031 21.7243 12.9984 21.729 12.9937C21.9892 12.7335 22.0079 12.2554 21.729 11.9999C21.4501 11.7515 21.0142 11.7304 20.7353 12.0093Z" fill="#367971"/>
<path d="M13.4722 14.2617C13.1722 14.5617 12.8698 14.864 12.5698 15.164C12.0261 15.7078 11.4823 16.2515 10.9409 16.7929C10.6784 17.0554 10.4159 17.3179 10.1511 17.5828C9.74794 17.9859 9.34481 18.389 8.94169 18.7922C8.52215 19.2117 8.09325 19.6265 7.6784 20.0554C7.67137 20.0625 7.662 20.0719 7.65497 20.0789C7.98544 20.0789 8.31825 20.0789 8.64872 20.0789C8.42606 19.8562 8.20575 19.6359 7.98309 19.4133C7.46044 18.8906 6.93544 18.3656 6.41278 17.8429C5.81044 17.2406 5.20809 16.6383 4.60809 16.0383C4.14169 15.5719 3.67528 15.1054 3.20887 14.639C3.09637 14.5265 2.98387 14.414 2.87372 14.3039C2.84794 14.2781 2.81981 14.2523 2.79403 14.2242C2.74247 14.1703 2.69325 14.1164 2.64403 14.0601C2.61825 14.0297 2.59247 13.9992 2.56903 13.9687C2.47762 13.8562 2.64872 14.0789 2.58544 13.9922C2.49403 13.8679 2.40731 13.739 2.32997 13.6031C2.25497 13.4695 2.187 13.3336 2.12606 13.1929C2.1495 13.2492 2.17294 13.3054 2.19637 13.3617C2.06278 13.0429 1.97137 12.7101 1.9245 12.3679C1.93387 12.4312 1.9409 12.4922 1.95028 12.5554C1.90575 12.2156 1.90575 11.8711 1.95028 11.5312C1.9409 11.5945 1.93387 11.6554 1.9245 11.7187C1.97137 11.3765 2.06278 11.0437 2.19637 10.725C2.17294 10.7812 2.1495 10.8375 2.12606 10.8937C2.21278 10.6922 2.31356 10.4976 2.43309 10.3148C2.46122 10.2726 2.487 10.2304 2.51747 10.1906C2.53387 10.1672 2.55028 10.1461 2.56669 10.1226C2.58309 10.0992 2.64872 10.0148 2.57372 10.1133C2.49637 10.2117 2.56434 10.1273 2.58075 10.1062C2.5995 10.0851 2.6159 10.064 2.63465 10.0406C2.67215 9.99842 2.70965 9.95623 2.7495 9.91404C2.83153 9.82498 2.92059 9.7406 3.012 9.66092C3.06122 9.61639 3.11278 9.56717 3.16669 9.53201C3.12215 9.56014 3.04715 9.62342 3.13622 9.55779C3.162 9.53904 3.19012 9.51795 3.21825 9.4992C3.43387 9.3492 3.66356 9.22498 3.90262 9.12185C3.84637 9.14529 3.79012 9.16873 3.73387 9.19217C4.05262 9.05857 4.38544 8.96951 4.72528 8.92264C4.662 8.93201 4.60106 8.93904 4.53778 8.94842C4.87997 8.90389 5.22215 8.90389 5.56434 8.94842C5.50106 8.93904 5.44012 8.93201 5.37684 8.92264C5.72137 8.96951 6.05653 9.06092 6.37762 9.19685C6.32137 9.17342 6.26512 9.14998 6.20887 9.12654C6.41747 9.2156 6.61669 9.32342 6.80653 9.44764C6.8534 9.4781 6.90262 9.51092 6.94715 9.54607C7.03856 9.6117 6.95184 9.54139 6.912 9.51795C6.93309 9.53201 6.95419 9.55076 6.97294 9.56717C7.06903 9.64451 7.16044 9.72888 7.2495 9.8156C7.38544 9.9492 7.51903 10.0851 7.65497 10.2211C7.9245 10.4906 8.37919 10.4906 8.64872 10.2211C8.80809 10.0617 8.96278 9.89998 9.1245 9.74764C9.20184 9.67498 9.28856 9.60935 9.36825 9.5367C9.19247 9.69139 9.33544 9.56248 9.387 9.52498C9.43153 9.49217 9.4784 9.4617 9.52528 9.43123C9.70809 9.3117 9.90262 9.21092 10.1042 9.1242C10.0479 9.14763 9.99169 9.17107 9.93544 9.19451C10.2542 9.06092 10.587 8.96951 10.9292 8.92264C10.8659 8.93201 10.805 8.93904 10.7417 8.94842C11.0815 8.90389 11.4261 8.90389 11.7659 8.94842C11.7026 8.93904 11.6417 8.93201 11.5784 8.92264C11.9206 8.96951 12.2534 9.06092 12.5722 9.19451C12.5159 9.17107 12.4597 9.14763 12.4034 9.1242C12.619 9.21795 12.8276 9.3281 13.0245 9.45935C13.0761 9.49217 13.1253 9.52732 13.1745 9.56482C13.1979 9.58123 13.2823 9.64685 13.1839 9.57185C13.0854 9.49451 13.1698 9.56248 13.1909 9.57889C13.287 9.65857 13.3807 9.74295 13.4675 9.82967C13.5518 9.91404 13.6315 10.0031 13.7089 10.0945C13.7276 10.1156 13.744 10.139 13.7628 10.1601C13.6198 9.99842 13.7018 10.0804 13.7347 10.125C13.7675 10.1695 13.8003 10.214 13.8307 10.2609C13.9643 10.4601 14.0792 10.6734 14.1729 10.8961C14.1495 10.8398 14.1261 10.7836 14.1026 10.7273C14.2362 11.0461 14.3276 11.3789 14.3745 11.7211C14.3651 11.6578 14.3581 11.5969 14.3487 11.5336C14.3932 11.8734 14.3932 12.2179 14.3487 12.5578C14.3581 12.4945 14.3651 12.4336 14.3745 12.3703C14.3276 12.7125 14.2362 13.0453 14.1026 13.364C14.1261 13.3078 14.1495 13.2515 14.1729 13.1953C14.0792 13.4109 13.969 13.6195 13.8378 13.8164C13.8073 13.8633 13.7745 13.9078 13.7417 13.9523C13.7253 13.9758 13.7089 13.9969 13.6925 14.0203C13.8214 13.8375 13.7511 13.9453 13.7182 13.9828C13.6432 14.0812 13.5589 14.1726 13.4722 14.2617C13.212 14.5242 13.1909 14.9976 13.4722 15.2554C13.7511 15.5133 14.1893 15.5344 14.4659 15.2554C14.8198 14.8992 15.1268 14.4797 15.3378 14.025C15.5675 13.5304 15.7034 13.0336 15.7643 12.4922C15.8768 11.5265 15.6354 10.5 15.1268 9.67498C14.5714 8.77263 13.7182 8.09998 12.7198 7.75076C11.8057 7.42967 10.7511 7.42732 9.83465 7.73435C9.26278 7.92654 8.75653 8.21717 8.29481 8.60389C8.06747 8.79373 7.86356 9.01404 7.65262 9.22498C7.98309 9.22498 8.3159 9.22498 8.64637 9.22498C8.43309 9.0117 8.22684 8.78904 7.99481 8.59685C7.4909 8.17732 6.92137 7.86092 6.2909 7.68045C5.01356 7.31717 3.55809 7.53748 2.47059 8.30857C1.51669 8.98357 0.813561 9.99842 0.60028 11.1562C0.396373 12.2578 0.572155 13.4062 1.14872 14.3742C1.39247 14.7844 1.71122 15.1312 2.04637 15.4664C2.3534 15.7734 2.66278 16.0828 2.96981 16.3898C3.90497 17.325 4.84247 18.2625 5.77762 19.1976C6.39403 19.814 7.0034 20.4351 7.62684 21.0469C7.63622 21.0562 7.64559 21.0656 7.65731 21.0773C7.92684 21.3469 8.38153 21.3469 8.65106 21.0773C9.012 20.7164 9.37059 20.3578 9.73153 19.9969C10.1862 19.5422 10.6409 19.0875 11.0956 18.6328C11.3159 18.4125 11.5386 18.1898 11.7589 17.9695C12.2979 17.4304 12.837 16.8914 13.3761 16.3523C13.7347 15.9937 14.1003 15.6398 14.4518 15.2765C14.4589 15.2695 14.4636 15.2648 14.4706 15.2578C14.7308 14.9976 14.7495 14.5195 14.4706 14.264C14.1847 14.0039 13.7487 13.9851 13.4722 14.2617Z" fill="#367971"/>
</svg>
