<svg width="24" height="24" viewBox="0 0 24 24" fill="none" xmlns="http://www.w3.org/2000/svg">
<g clip-path="url(#clip0_6738_2261)">
<path d="M12.7057 11.3016C12.7057 11.7516 12.7057 12.2039 12.7057 12.6539C12.94 12.4195 13.1744 12.1852 13.4088 11.9508C12.9072 11.9508 12.4033 11.9508 11.9018 11.9508C11.5221 11.9508 11.1986 12.2719 11.1986 12.6539C11.433 12.4195 11.6674 12.1852 11.9018 11.9508C11.4893 11.9508 11.0791 11.9508 10.6666 11.9508C10.5189 11.9508 10.3689 11.9485 10.2213 11.9508C9.68926 11.9555 9.20879 12.143 8.79629 12.4735C8.2666 12.8953 7.99707 13.5633 7.99707 14.2289C7.99707 14.475 7.99707 14.7188 7.99707 14.9649C7.99707 15.9563 7.99707 16.9477 7.99707 17.9391C7.99707 18.8813 7.99707 19.8235 7.99707 20.7656C7.99707 20.9438 7.99473 21.1219 7.99707 21.3C8.0041 22.268 8.62051 23.093 9.52285 23.4164C9.74316 23.4961 9.98926 23.5289 10.2236 23.5313C10.2236 23.0625 10.2236 22.5938 10.2236 22.125C9.45488 22.125 8.68613 22.125 7.91973 22.125C6.7291 22.125 5.53848 22.125 4.34785 22.125C4.02207 22.125 3.68457 22.1461 3.35879 22.1063C3.42207 22.1156 3.48301 22.1227 3.54629 22.132C3.34707 22.1039 3.15254 22.0524 2.96738 21.9774C3.02363 22.0008 3.07988 22.0242 3.13613 22.0477C3.00254 21.9914 2.87598 21.9235 2.7541 21.8438C2.72832 21.8274 2.70254 21.8086 2.6791 21.7899C2.58301 21.7242 2.83145 21.9164 2.7002 21.8063C2.64863 21.7641 2.59941 21.7195 2.55254 21.6703C2.50566 21.6235 2.46113 21.5742 2.4166 21.5227C2.30645 21.3914 2.49863 21.6399 2.43301 21.5438C2.4166 21.518 2.39785 21.4945 2.3791 21.4688C2.29941 21.3492 2.23145 21.2203 2.1752 21.0867C2.19863 21.143 2.22207 21.1992 2.24551 21.2555C2.16816 21.0703 2.1166 20.8758 2.09082 20.6766C2.1002 20.7399 2.10723 20.8008 2.1166 20.8641C2.09316 20.6789 2.09785 20.4938 2.09785 20.3086C2.09785 20.032 2.09785 19.7531 2.09785 19.4766C2.09785 18.525 2.09785 17.5735 2.09785 16.6219C2.09785 15.4594 2.09785 14.2969 2.09785 13.1344C2.09785 12.1406 2.09785 11.1469 2.09785 10.1531C2.09785 9.69845 2.09551 9.24142 2.09785 8.78673C2.09785 8.68595 2.10488 8.58751 2.1166 8.48908C2.10723 8.55236 2.1002 8.6133 2.09082 8.67658C2.11895 8.47736 2.17051 8.28283 2.24551 8.09767C2.22207 8.15392 2.19863 8.21017 2.1752 8.26642C2.23145 8.13283 2.29941 8.00626 2.3791 7.88439C2.39551 7.85861 2.41426 7.83283 2.43301 7.80939C2.49863 7.7133 2.30645 7.96173 2.4166 7.83048C2.45879 7.77892 2.50332 7.7297 2.55254 7.68283C2.59941 7.63595 2.64863 7.59142 2.7002 7.54689C2.83145 7.43673 2.58301 7.62892 2.6791 7.5633C2.70488 7.54689 2.72832 7.52814 2.7541 7.50939C2.87363 7.4297 3.00254 7.36173 3.13613 7.30548C3.07988 7.32892 3.02363 7.35236 2.96738 7.3758C3.15254 7.29845 3.34707 7.24689 3.54629 7.22111C3.48301 7.23048 3.42207 7.23751 3.35879 7.24689C3.73848 7.20001 4.13691 7.22814 4.51895 7.22814C5.2877 7.22814 6.05645 7.22814 6.8252 7.22814C7.77207 7.22814 8.7166 7.22814 9.66348 7.22814C10.4674 7.22814 11.2713 7.22814 12.0752 7.22814C12.4408 7.22814 12.8041 7.22579 13.1697 7.22814C13.2682 7.22814 13.3666 7.23517 13.465 7.24689C13.4018 7.23751 13.3408 7.23048 13.2775 7.22111C13.4768 7.24923 13.6689 7.3008 13.8564 7.3758C13.8002 7.35236 13.7439 7.32892 13.6877 7.30548C13.8213 7.36173 13.9479 7.4297 14.0697 7.50939C14.0955 7.52579 14.1213 7.54455 14.1447 7.5633C14.2408 7.62892 13.9924 7.43673 14.1236 7.54689C14.1752 7.58908 14.2244 7.63361 14.2713 7.68283C14.3182 7.7297 14.3627 7.77892 14.4072 7.83048C14.5174 7.96173 14.3252 7.7133 14.3908 7.80939C14.4072 7.83517 14.426 7.85861 14.4447 7.88439C14.5244 8.00392 14.5924 8.13283 14.6486 8.26642C14.6252 8.21017 14.6018 8.15392 14.5783 8.09767C14.6557 8.28283 14.7072 8.47736 14.733 8.67658C14.7236 8.6133 14.7166 8.55236 14.7072 8.48908C14.7494 8.84064 14.726 9.20861 14.726 9.56251C14.726 9.89298 14.726 10.2211 14.726 10.5516C14.9604 10.3172 15.1947 10.0828 15.4291 9.84845C15.0658 9.84845 14.7025 9.84845 14.3393 9.84845C14.0439 9.84845 13.765 9.88126 13.4955 10.0172C13.0057 10.2539 12.7174 10.7695 12.7057 11.3016C12.6986 11.6695 13.0338 12.0211 13.4088 12.0047C13.7955 11.9883 14.1025 11.6953 14.1119 11.3016C14.1119 11.2688 14.1143 11.236 14.1189 11.2031C14.1096 11.2664 14.1025 11.3274 14.0932 11.3906C14.1025 11.3274 14.1189 11.2688 14.14 11.2078C14.1166 11.2641 14.0932 11.3203 14.0697 11.3766C14.0885 11.3344 14.1119 11.2945 14.133 11.2524C14.1447 11.2289 14.1986 11.1633 14.1236 11.2617C14.0439 11.3649 14.1096 11.2828 14.1283 11.2641C14.133 11.2594 14.1705 11.2219 14.1729 11.2219C14.1799 11.2266 14.0182 11.325 14.1049 11.2758C14.1494 11.25 14.1939 11.2242 14.2408 11.2055C14.1846 11.2289 14.1283 11.2524 14.0721 11.2758C14.133 11.2524 14.1916 11.2383 14.2549 11.2289C14.1916 11.2383 14.1307 11.2453 14.0674 11.2547C14.2947 11.2313 14.5314 11.2477 14.7588 11.2477C14.9791 11.2477 15.2018 11.2477 15.4221 11.2477C15.8018 11.2477 16.1252 10.9266 16.1252 10.5445C16.1252 9.95626 16.1275 9.37033 16.1252 8.78205C16.1205 8.06955 15.8674 7.41329 15.4221 6.86486C15.0096 6.35626 14.3721 5.97892 13.7229 5.87111C13.3174 5.80314 12.9189 5.81486 12.5111 5.81486C11.8736 5.81486 11.2361 5.81486 10.5986 5.81486C9.7666 5.81486 8.93457 5.81486 8.10019 5.81486C7.29395 5.81486 6.4877 5.81486 5.68145 5.81486C5.12363 5.81486 4.56582 5.81486 4.00801 5.81486C3.89316 5.81486 3.78066 5.81486 3.66582 5.81486C3.14785 5.81486 2.63457 5.94611 2.18223 6.20158C1.2377 6.73595 0.68457 7.75548 0.68457 8.82892C0.68457 9.16642 0.68457 9.50392 0.68457 9.84142C0.68457 10.493 0.68457 11.1469 0.68457 11.7985C0.68457 12.6188 0.68457 13.4414 0.68457 14.2617C0.68457 15.1102 0.68457 15.9586 0.68457 16.807C0.68457 17.5289 0.68457 18.2485 0.68457 18.9703C0.68457 19.4227 0.68457 19.8727 0.68457 20.325C0.68457 20.9977 0.794727 21.6633 1.19551 22.2281C1.6127 22.8164 2.20801 23.2641 2.91582 23.4399C3.20176 23.5102 3.49707 23.5313 3.79004 23.5313C4.35723 23.5313 4.92441 23.5313 5.4916 23.5313C6.33301 23.5313 7.17441 23.5313 8.01582 23.5313C8.65332 23.5313 9.29082 23.5313 9.92832 23.5313C10.0244 23.5313 10.1229 23.5313 10.2189 23.5313C10.5869 23.5313 10.9385 23.2078 10.9221 22.8281C10.9057 22.4438 10.6127 22.1297 10.2189 22.125C10.1533 22.125 10.09 22.1203 10.0244 22.1133C10.0877 22.1227 10.1486 22.1297 10.2119 22.1391C10.076 22.1203 9.94707 22.0852 9.82051 22.0336C9.87676 22.057 9.93301 22.0805 9.98926 22.1039C9.90488 22.0688 9.82285 22.0266 9.74551 21.975C9.72441 21.961 9.70332 21.9445 9.68223 21.9328C9.62363 21.9 9.8252 22.0547 9.74082 21.9774C9.70801 21.9469 9.67285 21.9164 9.64004 21.886C9.60723 21.8531 9.5791 21.818 9.54863 21.7852C9.48301 21.7125 9.60488 21.8555 9.60254 21.8555C9.59785 21.8578 9.56269 21.7969 9.55801 21.7922C9.5041 21.7102 9.45957 21.6258 9.42207 21.5367C9.44551 21.593 9.46894 21.6492 9.49238 21.7055C9.44082 21.5789 9.40566 21.4477 9.38691 21.3141C9.39629 21.3774 9.40332 21.4383 9.41269 21.5016C9.37988 21.2203 9.40098 20.9274 9.40098 20.6461C9.40098 20.0742 9.40098 19.5 9.40098 18.9281C9.40098 17.6203 9.40098 16.3125 9.40098 15.007C9.40098 14.6719 9.3752 14.3203 9.41269 13.9875C9.40332 14.0508 9.39629 14.1117 9.38691 14.175C9.40566 14.0391 9.44082 13.9102 9.49238 13.7836C9.46894 13.8399 9.44551 13.8961 9.42207 13.9524C9.45723 13.868 9.49941 13.786 9.55098 13.7086C9.56504 13.6875 9.58144 13.6664 9.59316 13.6453C9.62598 13.5867 9.47129 13.7883 9.54863 13.7039C9.5791 13.6711 9.60957 13.636 9.64004 13.6031C9.67285 13.5703 9.70801 13.5422 9.74082 13.5117C9.81348 13.4461 9.67051 13.568 9.67051 13.5656C9.66816 13.561 9.7291 13.5258 9.73379 13.5211C9.81582 13.4672 9.9002 13.4227 9.98926 13.3852C9.93301 13.4086 9.87676 13.432 9.82051 13.4555C9.94707 13.4039 10.0783 13.3688 10.2119 13.35C10.1486 13.3594 10.0877 13.3664 10.0244 13.3758C10.3408 13.3383 10.6713 13.3641 10.9877 13.3641C11.29 13.3641 11.5947 13.3641 11.8971 13.3641C12.2768 13.3641 12.6002 13.043 12.6002 12.661C12.3658 12.8953 12.1314 13.1297 11.8971 13.3641C12.3986 13.3641 12.9025 13.3641 13.4041 13.3641C13.7838 13.3641 14.1072 13.043 14.1072 12.661C14.1072 12.211 14.1072 11.7586 14.1072 11.3086C14.1072 10.9406 13.7838 10.5891 13.4041 10.6055C13.0291 10.6172 12.7057 10.9078 12.7057 11.3016Z" fill="#367971"/>
<path d="M14.1117 12.6538C13.8773 12.8882 13.643 13.1226 13.4086 13.357C13.9969 13.357 14.5828 13.357 15.1711 13.357C15.2555 13.357 15.3398 13.357 15.4219 13.357C15.1875 13.1226 14.9531 12.8882 14.7188 12.6538C14.9531 12.4195 15.1875 12.1851 15.4219 11.9507C14.8336 11.9507 14.2477 11.9507 13.6594 11.9507C13.575 11.9507 13.4906 11.9507 13.4086 11.9507C13.0406 11.9507 12.6891 12.2742 12.7055 12.6538C12.7219 13.0359 13.0148 13.357 13.4086 13.357C13.9969 13.357 14.5828 13.357 15.1711 13.357C15.2555 13.357 15.3398 13.357 15.4219 13.357C15.8016 13.357 16.125 13.0359 16.125 12.6538C16.125 12.2742 15.8039 11.9507 15.4219 11.9507C14.8336 11.9507 14.2477 11.9507 13.6594 11.9507C13.575 11.9507 13.4906 11.9507 13.4086 11.9507C13.0289 11.9507 12.7055 12.2718 12.7055 12.6538C12.7055 13.0218 13.0289 13.3734 13.4086 13.357C13.7906 13.3406 14.1117 13.0476 14.1117 12.6538ZM9.70781 1.17182C9.70781 1.77416 9.70781 2.37885 9.70781 2.98119C9.70781 3.93979 9.70781 4.89604 9.70781 5.85463C9.70781 6.07494 9.70781 6.2976 9.70781 6.51791C9.94219 6.28354 10.1766 6.04916 10.4109 5.81479C9.96094 5.81479 9.51094 5.81479 9.06094 5.81479C8.33906 5.81479 7.61719 5.81479 6.89531 5.81479C6.72891 5.81479 6.56484 5.81479 6.39844 5.81479C6.63281 6.04916 6.86719 6.28354 7.10156 6.51791C7.10156 5.91557 7.10156 5.31088 7.10156 4.70854C7.10156 3.74994 7.10156 2.79369 7.10156 1.8351C7.10156 1.61479 7.10156 1.39213 7.10156 1.17182C6.86719 1.40619 6.63281 1.64057 6.39844 1.87494C6.84844 1.87494 7.29844 1.87494 7.74844 1.87494C8.47031 1.87494 9.19219 1.87494 9.91406 1.87494C10.0805 1.87494 10.2445 1.87494 10.4109 1.87494C10.7789 1.87494 11.1305 1.5515 11.1141 1.17182C11.0977 0.789786 10.8047 0.468692 10.4109 0.468692C9.96094 0.468692 9.51094 0.468692 9.06094 0.468692C8.33906 0.468692 7.61719 0.468692 6.89531 0.468692C6.72891 0.468692 6.56484 0.468692 6.39844 0.468692C6.01875 0.468692 5.69531 0.789786 5.69531 1.17182C5.69531 1.77416 5.69531 2.37885 5.69531 2.98119C5.69531 3.93979 5.69531 4.89604 5.69531 5.85463C5.69531 6.07494 5.69531 6.2976 5.69531 6.51791C5.69531 6.8976 6.01641 7.22104 6.39844 7.22104C6.84844 7.22104 7.29844 7.22104 7.74844 7.22104C8.47031 7.22104 9.19219 7.22104 9.91406 7.22104C10.0805 7.22104 10.2445 7.22104 10.4109 7.22104C10.7906 7.22104 11.1141 6.89994 11.1141 6.51791C11.1141 5.91557 11.1141 5.31088 11.1141 4.70854C11.1141 3.74994 11.1141 2.79369 11.1141 1.8351C11.1141 1.61479 11.1141 1.39213 11.1141 1.17182C11.1141 0.803848 10.7906 0.452286 10.4109 0.468692C10.0313 0.485098 9.70781 0.778067 9.70781 1.17182Z" fill="#367971"/>
<path d="M11.6043 0.46875C10.8847 0.46875 10.1629 0.46875 9.44333 0.46875C8.29489 0.46875 7.14645 0.46875 6.00036 0.46875C5.73786 0.46875 5.47536 0.46875 5.21051 0.46875C4.84254 0.46875 4.49098 0.792187 4.50739 1.17188C4.52379 1.55391 4.81676 1.875 5.21051 1.875C5.93004 1.875 6.65192 1.875 7.37145 1.875C8.51989 1.875 9.66833 1.875 10.8144 1.875C11.0769 1.875 11.3394 1.875 11.6043 1.875C11.9722 1.875 12.3238 1.55156 12.3074 1.17188C12.291 0.789844 11.998 0.46875 11.6043 0.46875ZM21.9074 14.1773C21.9074 15 21.9074 15.8227 21.9074 16.6453C21.9074 17.9273 21.9074 19.2117 21.9074 20.4938C21.9074 20.8242 21.9332 21.1687 21.8957 21.4992C21.905 21.4359 21.9121 21.375 21.9215 21.3117C21.9027 21.4477 21.8675 21.5766 21.816 21.7031C21.8394 21.6469 21.8629 21.5906 21.8863 21.5344C21.8511 21.6187 21.809 21.7008 21.7574 21.7781C21.7433 21.7992 21.7269 21.8203 21.7152 21.8414C21.6824 21.9 21.8371 21.6984 21.7597 21.7828C21.7293 21.8156 21.6988 21.8508 21.6683 21.8836C21.6355 21.9164 21.6004 21.9445 21.5675 21.975C21.4949 22.0406 21.6379 21.9187 21.6379 21.9211C21.6402 21.9258 21.5793 21.9609 21.5746 21.9656C21.4925 22.0195 21.4082 22.0641 21.3191 22.1016C21.3754 22.0781 21.4316 22.0547 21.4879 22.0312C21.3613 22.0828 21.23 22.118 21.0965 22.1367C21.1597 22.1273 21.2207 22.1203 21.284 22.1109C21.1363 22.1273 20.9886 22.1227 20.8386 22.1227C20.5808 22.1227 20.323 22.1227 20.0652 22.1227C19.191 22.1227 18.3168 22.1227 17.4402 22.1227C16.3785 22.1227 15.3144 22.1227 14.2527 22.1227C13.3363 22.1227 12.4199 22.1227 11.5035 22.1227C11.0793 22.1227 10.655 22.125 10.2308 22.1227C10.1629 22.1227 10.0972 22.118 10.0293 22.1109C10.0925 22.1203 10.1535 22.1273 10.2168 22.1367C10.0808 22.118 9.95192 22.0828 9.82536 22.0312C9.88161 22.0547 9.93786 22.0781 9.99411 22.1016C9.90973 22.0664 9.8277 22.0242 9.75036 21.9727C9.72926 21.9586 9.70817 21.9422 9.68708 21.9305C9.62848 21.8977 9.83004 22.0523 9.74567 21.975C9.71286 21.9445 9.6777 21.9141 9.64489 21.8836C9.61208 21.8508 9.58395 21.8156 9.55348 21.7828C9.48786 21.7102 9.60973 21.8531 9.60739 21.8531C9.6027 21.8555 9.56754 21.7945 9.56286 21.7898C9.50895 21.7078 9.46442 21.6234 9.42692 21.5344C9.45036 21.5906 9.4738 21.6469 9.49723 21.7031C9.44567 21.5766 9.41051 21.4453 9.39176 21.3117C9.40114 21.375 9.40817 21.4359 9.41754 21.4992C9.38473 21.218 9.40583 20.925 9.40583 20.6437C9.40583 20.0719 9.40583 19.4977 9.40583 18.9258C9.40583 17.618 9.40583 16.3102 9.40583 15.0047C9.40583 14.6695 9.38004 14.318 9.41754 13.9852C9.40817 14.0484 9.40114 14.1094 9.39176 14.1727C9.41051 14.0367 9.44567 13.9078 9.49723 13.7812C9.4738 13.8375 9.45036 13.8938 9.42692 13.95C9.46208 13.8656 9.50426 13.7836 9.55583 13.7062C9.56989 13.6852 9.5863 13.6641 9.59801 13.643C9.63083 13.5844 9.47614 13.7859 9.55348 13.7016C9.58395 13.6687 9.61442 13.6336 9.64489 13.6008C9.6777 13.568 9.71286 13.5398 9.74567 13.5094C9.81833 13.4438 9.67536 13.5656 9.67536 13.5633C9.67301 13.5586 9.73395 13.5234 9.73864 13.5187C9.82067 13.4648 9.90505 13.4203 9.99411 13.3828C9.93786 13.4062 9.88161 13.4297 9.82536 13.4531C9.95192 13.4016 10.0832 13.3664 10.2168 13.3477C10.1535 13.357 10.0925 13.3641 10.0293 13.3734C10.3457 13.3359 10.6761 13.3617 10.9925 13.3617C11.2949 13.3617 11.5996 13.3617 11.9019 13.3617C12.2816 13.3617 12.605 13.0406 12.605 12.6586C12.3707 12.893 12.1363 13.1273 11.9019 13.3617C12.4035 13.3617 12.9074 13.3617 13.409 13.3617C13.1746 13.1273 12.9402 12.893 12.7058 12.6586C12.7058 13.0383 13.0269 13.3617 13.409 13.3617C13.9152 13.3617 14.4215 13.3617 14.93 13.3617C15.734 13.3617 16.5379 13.3617 17.3418 13.3617C17.5269 13.3617 17.7144 13.3617 17.8996 13.3617C18.2793 13.3617 18.6027 13.0406 18.6027 12.6586C18.3683 12.893 18.134 13.1273 17.8996 13.3617C18.4035 13.3617 18.9074 13.3617 19.4136 13.3617C19.1793 13.1273 18.9449 12.893 18.7105 12.6586C18.7105 13.0383 19.0316 13.3617 19.4136 13.3617C19.716 13.3617 20.0183 13.3617 20.3207 13.3617C20.6371 13.3617 20.9652 13.3383 21.2816 13.3734C21.2183 13.3641 21.1574 13.357 21.0941 13.3477C21.23 13.3664 21.359 13.4016 21.4855 13.4531C21.4293 13.4297 21.373 13.4062 21.3168 13.3828C21.4011 13.418 21.4832 13.4602 21.5605 13.5117C21.5816 13.5258 21.6027 13.5422 21.6238 13.5539C21.6824 13.5867 21.4808 13.432 21.5652 13.5094C21.598 13.5398 21.6332 13.5703 21.666 13.6008C21.6988 13.6336 21.7269 13.6687 21.7574 13.7016C21.823 13.7742 21.7011 13.6312 21.7035 13.6312C21.7082 13.6289 21.7433 13.6898 21.748 13.6945C21.8019 13.7766 21.8465 13.8609 21.884 13.95C21.8605 13.8938 21.8371 13.8375 21.8136 13.7812C21.8652 13.9078 21.9004 14.0391 21.9191 14.1727C21.9097 14.1094 21.9027 14.0484 21.8933 13.9852C21.9027 14.0484 21.9074 14.1117 21.9074 14.1773C21.9121 14.5453 22.2285 14.8969 22.6105 14.8805C22.9879 14.8641 23.3183 14.5711 23.3136 14.1773C23.3019 13.1531 22.5566 12.1617 21.516 11.9953C21.0097 11.9156 20.4871 11.9508 19.9761 11.9508C19.7886 11.9508 19.6011 11.9508 19.4136 11.9508C19.648 12.1852 19.8824 12.4195 20.1168 12.6539C20.1168 12.2742 19.7957 11.9508 19.4136 11.9508C18.9097 11.9508 18.4058 11.9508 17.8996 11.9508C17.5199 11.9508 17.1965 12.2719 17.1965 12.6539C17.4308 12.4195 17.6652 12.1852 17.8996 11.9508C17.3933 11.9508 16.8871 11.9508 16.3785 11.9508C15.5746 11.9508 14.7707 11.9508 13.9668 11.9508C13.7816 11.9508 13.5941 11.9508 13.409 11.9508C13.6433 12.1852 13.8777 12.4195 14.1121 12.6539C14.1121 12.2742 13.791 11.9508 13.409 11.9508C12.9074 11.9508 12.4035 11.9508 11.9019 11.9508C11.5222 11.9508 11.1988 12.2719 11.1988 12.6539C11.4332 12.4195 11.6675 12.1852 11.9019 11.9508C11.3605 11.9508 10.8191 11.9508 10.28 11.9508C9.7152 11.9508 9.20895 12.1336 8.77301 12.4922C8.27614 12.8977 8.00192 13.5422 7.99723 14.1773C7.98786 15.0914 7.99723 16.0055 7.99723 16.9172C7.99723 18.2227 7.99723 19.5258 7.99723 20.8312C7.99723 20.9695 7.99723 21.1102 7.99723 21.2484C7.99723 21.6305 8.07926 21.9867 8.24801 22.3289C8.52458 22.8938 9.10348 23.3414 9.71755 23.4727C9.91442 23.5148 10.1113 23.5312 10.3129 23.5312C11.2011 23.5312 12.0894 23.5312 12.98 23.5312C14.4332 23.5312 15.8886 23.5312 17.3418 23.5312C18.448 23.5312 19.5566 23.5312 20.6629 23.5312C20.998 23.5312 21.3261 23.543 21.6566 23.4586C22.2683 23.3016 22.8285 22.8516 23.091 22.275C23.241 21.9422 23.316 21.6047 23.316 21.2391C23.316 20.1539 23.316 19.0711 23.316 17.9859C23.316 16.7859 23.316 15.5859 23.316 14.3859C23.316 14.3156 23.316 14.2453 23.316 14.175C23.316 13.807 22.9925 13.4555 22.6129 13.4719C22.2285 13.4906 21.9074 13.7836 21.9074 14.1773Z" fill="#367971"/>
<path d="M17.1958 11.3016C17.1958 11.7516 17.1958 12.2039 17.1958 12.6539C17.4301 12.4196 17.6645 12.1852 17.8989 11.9508C17.3926 11.9508 16.8864 11.9508 16.3778 11.9508C15.5739 11.9508 14.77 11.9508 13.9661 11.9508C13.7809 11.9508 13.5934 11.9508 13.4083 11.9508C13.6426 12.1852 13.877 12.4196 14.1114 12.6539C14.1114 12.4172 14.1114 12.1805 14.1114 11.9438C14.1114 11.7 14.0926 11.4469 14.1184 11.2055C14.1091 11.2688 14.102 11.3297 14.0926 11.393C14.102 11.3297 14.1184 11.2711 14.1395 11.2102C14.1161 11.2664 14.0926 11.3227 14.0692 11.3789C14.088 11.3367 14.1114 11.2969 14.1325 11.2547C14.1442 11.2313 14.1981 11.1656 14.1231 11.2641C14.0434 11.3672 14.109 11.2852 14.1278 11.2664C14.1325 11.2617 14.17 11.2242 14.1723 11.2242C14.1794 11.2289 14.0176 11.3274 14.1044 11.2781C14.1489 11.2524 14.1934 11.2266 14.2403 11.2078C14.184 11.2313 14.1278 11.2547 14.0716 11.2781C14.1325 11.2547 14.1911 11.2406 14.2544 11.2313C14.1911 11.2406 14.1301 11.2477 14.0669 11.2571C14.1887 11.243 14.313 11.25 14.4348 11.25C14.6762 11.25 14.9176 11.25 15.159 11.25C15.7051 11.25 16.2512 11.25 16.7973 11.25C16.9426 11.25 17.0926 11.2406 17.2403 11.2571C17.177 11.2477 17.1161 11.2406 17.0528 11.2313C17.1161 11.2406 17.1747 11.2571 17.2356 11.2781C17.1794 11.2547 17.1231 11.2313 17.0669 11.2078C17.1091 11.2266 17.1489 11.25 17.1911 11.2711C17.2145 11.2828 17.2801 11.3367 17.1817 11.2617C17.0786 11.1821 17.1606 11.2477 17.1794 11.2664C17.1841 11.2711 17.2216 11.3086 17.2216 11.311C17.2169 11.318 17.1184 11.1563 17.1676 11.243C17.1934 11.2875 17.2192 11.3321 17.238 11.3789C17.2145 11.3227 17.1911 11.2664 17.1676 11.2102C17.1911 11.2711 17.2051 11.3297 17.2145 11.393C17.2051 11.3297 17.1981 11.2688 17.1887 11.2055C17.1934 11.2383 17.1958 11.2688 17.1958 11.3016C17.2028 11.6696 17.5145 12.0211 17.8989 12.0047C18.2739 11.9883 18.6114 11.6953 18.602 11.3016C18.588 10.6547 18.1731 10.0899 17.5497 9.90002C17.3622 9.84377 17.1676 9.84143 16.9731 9.84143C16.5067 9.84143 16.038 9.84143 15.5716 9.84143C15.1356 9.84143 14.6997 9.84143 14.2661 9.84143C13.9708 9.84143 13.6778 9.89065 13.42 10.0453C12.9723 10.3172 12.7098 10.8 12.7051 11.3227C12.7028 11.7656 12.7051 12.2086 12.7051 12.6539C12.7051 13.0336 13.0262 13.3571 13.4083 13.3571C13.9145 13.3571 14.4208 13.3571 14.9294 13.3571C15.7333 13.3571 16.5372 13.3571 17.3411 13.3571C17.5262 13.3571 17.7137 13.3571 17.8989 13.3571C18.2786 13.3571 18.602 13.036 18.602 12.6539C18.602 12.2039 18.602 11.7516 18.602 11.3016C18.602 10.9336 18.2786 10.5821 17.8989 10.5985C17.5192 10.6172 17.1958 10.9078 17.1958 11.3016Z" fill="#367971"/>
<path d="M17.1957 12.6539C17.4301 12.4195 17.6645 12.1851 17.8988 11.9507C17.3926 11.9507 16.8863 11.9507 16.3777 11.9507C15.5738 11.9507 14.7699 11.9507 13.966 11.9507C13.7809 11.9507 13.5934 11.9507 13.4082 11.9507C13.6426 12.1851 13.877 12.4195 14.1113 12.6539C13.877 12.8882 13.6426 13.1226 13.4082 13.357C13.9145 13.357 14.4207 13.357 14.9293 13.357C15.7332 13.357 16.5371 13.357 17.341 13.357C17.5262 13.357 17.7137 13.357 17.8988 13.357C18.2668 13.357 18.6184 13.0336 18.602 12.6539C18.5855 12.2718 18.2926 11.9507 17.8988 11.9507C17.3926 11.9507 16.8863 11.9507 16.3777 11.9507C15.5738 11.9507 14.7699 11.9507 13.966 11.9507C13.7809 11.9507 13.5934 11.9507 13.4082 11.9507C13.0285 11.9507 12.7051 12.2718 12.7051 12.6539C12.7051 13.0336 13.0262 13.357 13.4082 13.357C13.9145 13.357 14.4207 13.357 14.9293 13.357C15.7332 13.357 16.5371 13.357 17.341 13.357C17.5262 13.357 17.7137 13.357 17.8988 13.357C18.2785 13.357 18.602 13.0359 18.602 12.6539C18.602 12.2859 18.2785 11.9343 17.8988 11.9507C17.5191 11.9672 17.1957 12.2601 17.1957 12.6539Z" fill="#367971"/>
<path d="M17.1957 12.6539C17.4301 12.4195 17.6645 12.1851 17.8988 11.9507C17.3926 11.9507 16.8863 11.9507 16.3777 11.9507C15.5738 11.9507 14.7699 11.9507 13.966 11.9507C13.7809 11.9507 13.5934 11.9507 13.4082 11.9507C13.6426 12.1851 13.877 12.4195 14.1113 12.6539C13.877 12.8882 13.6426 13.1226 13.4082 13.357C13.9145 13.357 14.4207 13.357 14.9293 13.357C15.7332 13.357 16.5371 13.357 17.341 13.357C17.5262 13.357 17.7137 13.357 17.8988 13.357C18.2668 13.357 18.6184 13.0336 18.602 12.6539C18.5855 12.2718 18.2926 11.9507 17.8988 11.9507C17.3926 11.9507 16.8863 11.9507 16.3777 11.9507C15.5738 11.9507 14.7699 11.9507 13.966 11.9507C13.7809 11.9507 13.5934 11.9507 13.4082 11.9507C13.0285 11.9507 12.7051 12.2718 12.7051 12.6539C12.7051 13.0336 13.0262 13.357 13.4082 13.357C13.9145 13.357 14.4207 13.357 14.9293 13.357C15.7332 13.357 16.5371 13.357 17.341 13.357C17.5262 13.357 17.7137 13.357 17.8988 13.357C18.2785 13.357 18.602 13.0359 18.602 12.6539C18.602 12.2859 18.2785 11.9343 17.8988 11.9507C17.5191 11.9672 17.1957 12.2601 17.1957 12.6539Z" fill="#367971"/>
</g>
<defs>
<clipPath id="clip0_6738_2261">
<rect width="24" height="24" fill="white"/>
</clipPath>
</defs>
</svg>
