<svg width="24" height="24" viewBox="0 0 24 24" fill="none" xmlns="http://www.w3.org/2000/svg">
<path d="M21.0655 5.65779C21.0655 6.18045 21.0655 6.7031 21.0655 7.22576C21.0655 8.47966 21.0655 9.73357 21.0655 10.9875C21.0655 12.5039 21.0655 14.0226 21.0655 15.539C21.0655 16.8515 21.0655 18.1617 21.0655 19.4742C21.0655 20.1094 21.0514 20.7492 21.0655 21.3844C21.0655 21.3937 21.0655 21.4008 21.0655 21.4101C21.4171 21.2086 21.771 21.0047 22.1225 20.8031C21.3139 20.3836 20.5053 19.9617 19.6944 19.5422C18.6116 18.9797 17.5288 18.4172 16.446 17.8547C16.3686 17.8148 16.2936 17.7726 16.2139 17.7351C15.9702 17.6179 15.771 17.625 15.546 17.714C15.1803 17.8594 14.8147 18.0047 14.4467 18.15C13.1788 18.6562 11.9061 19.1601 10.6335 19.6664C9.75456 20.0156 8.86862 20.3508 7.9944 20.714C7.98034 20.7187 7.96628 20.7258 7.95221 20.7304C8.13268 20.7539 8.31315 20.7773 8.49362 20.8008C7.82565 20.4539 7.15768 20.107 6.48971 19.7601C5.43268 19.2117 4.37565 18.6633 3.31862 18.1125C3.07487 17.9859 2.83112 17.8594 2.58503 17.7328C2.70221 17.9344 2.81706 18.1383 2.93424 18.3398C2.93424 17.8172 2.93424 17.2945 2.93424 16.7719C2.93424 15.5179 2.93424 14.264 2.93424 13.0101C2.93424 11.4937 2.93424 9.97498 2.93424 8.45857C2.93424 7.14607 2.93424 5.83591 2.93424 4.52341C2.93424 3.88826 2.94831 3.24841 2.93424 2.61326C2.93424 2.60388 2.93424 2.59685 2.93424 2.58748C2.58268 2.78904 2.22878 2.99295 1.87721 3.19451C2.68581 3.61404 3.4944 4.03591 4.30534 4.45545C5.38815 5.01795 6.47096 5.58045 7.55378 6.14295C7.63112 6.18279 7.70612 6.22498 7.78581 6.26248C8.02956 6.37966 8.22878 6.37263 8.45378 6.28357C8.8194 6.13826 9.18503 5.99295 9.553 5.84763C10.8257 5.34138 12.0983 4.83513 13.371 4.33123C14.2499 3.98201 15.1358 3.64685 16.01 3.28357C16.0241 3.27888 16.0382 3.27185 16.0522 3.26716C15.8717 3.24373 15.6913 3.22029 15.5108 3.19685C16.1788 3.54373 16.8467 3.8906 17.5147 4.23748C18.5717 4.78591 19.6288 5.33435 20.6858 5.88513C20.9296 6.0117 21.1733 6.13826 21.4194 6.26482C21.7452 6.43357 22.1975 6.35857 22.3803 6.0117C22.5514 5.68826 22.4764 5.23123 22.1272 5.05076C21.3186 4.63123 20.51 4.20935 19.6991 3.78982C18.6163 3.22732 17.5335 2.66482 16.4507 2.10232C16.3733 2.06248 16.2983 2.02029 16.2186 1.98279C15.9749 1.8656 15.7757 1.87263 15.5507 1.9617C15.185 2.10701 14.8194 2.25232 14.4514 2.39763C13.1788 2.90388 11.9061 3.41013 10.6335 3.91404C9.75456 4.26326 8.86862 4.59841 7.9944 4.9617C7.98034 4.96638 7.96628 4.97341 7.95221 4.9781C8.13268 5.00154 8.31315 5.02498 8.49362 5.04841C7.82565 4.70154 7.15768 4.35466 6.48971 4.00779C5.43268 3.45935 4.37565 2.91091 3.31862 2.36013C3.07487 2.23357 2.83112 2.10701 2.58503 1.98045C2.35768 1.86326 2.09987 1.8492 1.87487 1.98045C1.66159 2.10466 1.52565 2.33904 1.52565 2.58748C1.52565 3.11013 1.52565 3.63279 1.52565 4.15545C1.52565 5.40935 1.52565 6.66326 1.52565 7.91716C1.52565 9.43357 1.52565 10.9523 1.52565 12.4687C1.52565 13.7812 1.52565 15.0914 1.52565 16.4039C1.52565 17.039 1.51628 17.6765 1.52565 18.314C1.52565 18.3234 1.52565 18.3304 1.52565 18.3398C1.52565 18.5789 1.6569 18.8344 1.87487 18.9469C2.68346 19.3664 3.49206 19.7883 4.30299 20.2078C5.38581 20.7703 6.46862 21.3328 7.55143 21.8953C7.62878 21.9351 7.70378 21.9773 7.78346 22.0148C8.02721 22.132 8.22643 22.125 8.45143 22.0359C8.81706 21.8906 9.18268 21.7453 9.55065 21.6C10.8233 21.0937 12.096 20.5875 13.3686 20.0836C14.2475 19.7344 15.1335 19.3992 16.0077 19.0359C16.0217 19.0312 16.0358 19.0242 16.0499 19.0195C15.8694 18.9961 15.6889 18.9726 15.5085 18.9492C16.1764 19.2961 16.8444 19.6429 17.5124 19.9898C18.5694 20.5383 19.6264 21.0867 20.6835 21.6375C20.9272 21.764 21.171 21.8906 21.4171 22.0172C21.6444 22.1344 21.9022 22.1484 22.1272 22.0172C22.3405 21.8929 22.4764 21.6586 22.4764 21.4101C22.4764 20.8875 22.4764 20.3648 22.4764 19.8422C22.4764 18.5883 22.4764 17.3344 22.4764 16.0804C22.4764 14.564 22.4764 13.0453 22.4764 11.5289C22.4764 10.2164 22.4764 8.90623 22.4764 7.59373C22.4764 6.95857 22.4858 6.32107 22.4764 5.68357C22.4764 5.6742 22.4764 5.66716 22.4764 5.65779C22.4764 5.28982 22.153 4.93826 21.7733 4.95466C21.3866 4.97107 21.0655 5.26404 21.0655 5.65779Z" fill="#367971"/>
<path d="M6.2769 14.2078C6.61205 14.5289 7.03393 14.7914 7.4558 14.9836C7.87533 15.1734 8.30424 15.3211 8.76362 15.3867C9.36596 15.4711 9.95658 15.4547 10.5519 15.3141C11.616 15.0586 12.6027 14.4258 13.3574 13.6453C13.9339 13.05 14.3816 12.3516 14.8574 11.6813C14.916 11.5969 14.9769 11.5149 15.0378 11.4328C15.0519 11.4141 15.066 11.3953 15.08 11.3766C15.1691 11.257 14.9746 11.5102 15.0402 11.4258C15.0683 11.3906 15.0988 11.3531 15.1269 11.318C15.2535 11.1633 15.3847 11.0156 15.53 10.8774C15.6027 10.8094 15.6753 10.7414 15.7527 10.6781C15.7714 10.6641 15.7878 10.65 15.8066 10.6336C15.8839 10.568 15.6519 10.7484 15.7386 10.6875C15.7831 10.6547 15.8277 10.6242 15.8722 10.5914C16.048 10.4719 16.2331 10.3734 16.4277 10.2891C16.3714 10.3125 16.3152 10.3359 16.2589 10.3594C16.5871 10.2211 16.9316 10.1344 17.2831 10.0875C17.2199 10.0969 17.1589 10.1039 17.0956 10.1133C17.316 10.0852 17.5386 10.0688 17.7613 10.0641C18.1292 10.057 18.4808 9.74532 18.4644 9.36095C18.448 8.98595 18.155 8.65079 17.7613 8.65782C17.0183 8.67189 16.2988 8.80314 15.6238 9.11485C15.1246 9.34454 14.6792 9.70314 14.3136 10.1109C13.941 10.5234 13.6292 10.9852 13.3128 11.4422C13.1605 11.6602 13.0081 11.8781 12.8464 12.0914C12.7574 12.2086 12.9308 11.9836 12.8792 12.0516C12.8605 12.075 12.8417 12.0984 12.823 12.1219C12.7761 12.1805 12.7292 12.2367 12.6824 12.293C12.591 12.4008 12.4972 12.5063 12.3988 12.6094C12.2839 12.7289 12.1667 12.8438 12.0425 12.9539C11.9792 13.0102 11.9136 13.0664 11.848 13.1203C11.8175 13.1438 11.7871 13.1695 11.7566 13.193C11.9535 13.0359 11.8058 13.1531 11.7566 13.1906C11.4261 13.432 11.0675 13.6383 10.6902 13.8C10.7464 13.7766 10.8027 13.7531 10.8589 13.7297C10.5074 13.8774 10.1417 13.9805 9.7644 14.032C9.82768 14.0227 9.88862 14.0156 9.9519 14.0063C9.61908 14.0484 9.28158 14.0484 8.94877 14.0039C9.01205 14.0133 9.07299 14.0203 9.13627 14.0297C8.78236 13.9805 8.43549 13.8844 8.10502 13.7461C8.16127 13.7695 8.21752 13.793 8.27377 13.8164C7.97846 13.6922 7.69721 13.5352 7.43705 13.35C7.41361 13.3336 7.39018 13.3172 7.36674 13.2984C7.24955 13.2094 7.4769 13.3852 7.4394 13.3547C7.40893 13.3289 7.37611 13.3055 7.34565 13.2797C7.31986 13.2586 7.29408 13.2352 7.2683 13.2117C7.00346 12.9563 6.53471 12.9281 6.27455 13.2117C6.02377 13.4906 5.9933 13.9359 6.2769 14.2078Z" fill="#367971"/>
<path d="M6.17772 13.2914C6.17772 13.3336 6.17304 13.3781 6.16835 13.4203C6.17772 13.357 6.18475 13.2961 6.19413 13.2328C6.18241 13.3172 6.15897 13.3945 6.1285 13.4742C6.15194 13.418 6.17538 13.3617 6.19882 13.3055C6.17538 13.357 6.1496 13.4062 6.11913 13.4531C6.0535 13.5656 6.16132 13.3922 6.166 13.3969C6.16835 13.3992 6.10741 13.4601 6.10507 13.4648C6.08632 13.4836 6.06757 13.4976 6.04882 13.5164C5.99257 13.5726 6.19882 13.4156 6.10741 13.4719C6.0535 13.5047 6.00194 13.5351 5.94569 13.5586C6.00194 13.5351 6.05819 13.5117 6.11444 13.4883C6.0371 13.5187 5.95741 13.5422 5.87304 13.5539C5.93632 13.5445 5.99725 13.5375 6.06054 13.5281C5.97382 13.5375 5.88944 13.5375 5.80272 13.5281C5.866 13.5375 5.92694 13.5445 5.99022 13.5539C5.90585 13.5422 5.8285 13.5187 5.74882 13.4883C5.80507 13.5117 5.86132 13.5351 5.91757 13.5586C5.866 13.5351 5.81678 13.507 5.76991 13.4789C5.65741 13.4133 5.83085 13.5211 5.82616 13.5258C5.82382 13.5281 5.76288 13.4672 5.75819 13.4648C5.73944 13.4461 5.72538 13.4273 5.70663 13.4086C5.65038 13.3523 5.80741 13.5586 5.75116 13.4672C5.71835 13.4133 5.68788 13.3617 5.66444 13.3055C5.68788 13.3617 5.71132 13.418 5.73475 13.4742C5.70428 13.3969 5.68085 13.3172 5.66913 13.2328C5.6785 13.2961 5.68553 13.357 5.69491 13.4203C5.68553 13.3336 5.68553 13.2492 5.69491 13.1625C5.68553 13.2258 5.6785 13.2867 5.66913 13.35C5.68085 13.2656 5.70428 13.1883 5.73475 13.1086C5.71132 13.1648 5.68788 13.2211 5.66444 13.2773C5.68788 13.2258 5.716 13.1766 5.74413 13.1297C5.80975 13.0172 5.70194 13.1906 5.69725 13.1859C5.69491 13.1836 5.75585 13.1226 5.75819 13.118C5.77694 13.0992 5.79569 13.0851 5.81444 13.0664C5.87069 13.0101 5.66444 13.1672 5.75585 13.1109C5.80975 13.0781 5.86132 13.0476 5.91757 13.0242C5.86132 13.0476 5.80507 13.0711 5.74882 13.0945C5.82616 13.0641 5.90585 13.0406 5.99022 13.0289C5.92694 13.0383 5.866 13.0453 5.80272 13.0547C5.88944 13.0453 5.97382 13.0453 6.06054 13.0547C5.99725 13.0453 5.93632 13.0383 5.87304 13.0289C5.95741 13.0406 6.03475 13.0641 6.11444 13.0945C6.05819 13.0711 6.00194 13.0476 5.94569 13.0242C5.99725 13.0476 6.04647 13.0734 6.09335 13.1039C6.20585 13.1695 6.03241 13.0617 6.0371 13.057C6.03944 13.0547 6.10038 13.1156 6.10507 13.118C6.12382 13.1367 6.13788 13.1555 6.15663 13.1742C6.21288 13.2305 6.05585 13.0242 6.1121 13.1156C6.14491 13.1695 6.17538 13.2211 6.19882 13.2773C6.17538 13.2211 6.15194 13.1648 6.1285 13.1086C6.15897 13.1859 6.18241 13.2656 6.19413 13.35C6.18475 13.2867 6.17772 13.2258 6.16835 13.1625C6.17538 13.2047 6.17772 13.2469 6.17772 13.2914C6.18475 13.6594 6.49647 14.0109 6.88085 13.9945C7.25585 13.9781 7.591 13.6851 7.58397 13.2914C7.57225 12.5742 7.12694 11.9719 6.45897 11.7281C5.85897 11.5078 5.11366 11.707 4.70116 12.1922C4.24179 12.7312 4.13866 13.5047 4.50428 14.1281C4.87225 14.7586 5.59178 15.0375 6.29257 14.9039C7.04725 14.7633 7.56991 14.0367 7.58163 13.2937C7.58866 12.9258 7.2535 12.5742 6.8785 12.5906C6.49413 12.6047 6.18475 12.8976 6.17772 13.2914ZM16.3074 8.86405C16.9098 9.46639 17.5121 10.0687 18.1168 10.6734C18.2012 10.7578 18.2855 10.8422 18.3699 10.9266C18.6301 11.1867 19.1082 11.2055 19.3637 10.9266C19.6215 10.6453 19.6426 10.2094 19.3637 9.9328C18.7613 9.33046 18.159 8.72811 17.5543 8.12343C17.4699 8.03905 17.3855 7.95468 17.3012 7.8703C17.041 7.61014 16.5629 7.59139 16.3074 7.8703C16.0496 8.15155 16.0285 8.58749 16.3074 8.86405Z" fill="#367971"/>
<path d="M17.3014 10.9265C17.9037 10.3242 18.5061 9.72182 19.1107 9.11713C19.1951 9.03275 19.2795 8.94838 19.3639 8.86401C19.624 8.60385 19.6428 8.12572 19.3639 7.87025C19.0826 7.61244 18.6467 7.59135 18.3701 7.87025C17.7678 8.4726 17.1654 9.07494 16.5607 9.67963C16.4764 9.76401 16.392 9.84838 16.3076 9.93275C16.0475 10.1929 16.0287 10.671 16.3076 10.9265C16.5889 11.1843 17.0248 11.2054 17.3014 10.9265ZM7.43652 5.65775C7.43652 6.19682 7.43652 6.73354 7.43652 7.2726C7.43652 8.12572 7.43652 8.98119 7.43652 9.83432C7.43652 10.0312 7.43652 10.2304 7.43652 10.4273C7.43652 10.7953 7.75996 11.1468 8.13965 11.1304C8.52168 11.114 8.84277 10.821 8.84277 10.4273C8.84277 9.88822 8.84277 9.35151 8.84277 8.81244C8.84277 7.95932 8.84277 7.10385 8.84277 6.25072C8.84277 6.05385 8.84277 5.85463 8.84277 5.65775C8.84277 5.28979 8.51934 4.93822 8.13965 4.95463C7.75762 4.97104 7.43652 5.264 7.43652 5.65775ZM7.43652 17.5757C7.43652 18.696 7.43652 19.8163 7.43652 20.9367C7.43652 21.0937 7.43652 21.2531 7.43652 21.4101C7.43652 21.7781 7.75996 22.1296 8.13965 22.1132C8.52168 22.0968 8.84277 21.8038 8.84277 21.4101C8.84277 20.2898 8.84277 19.1695 8.84277 18.0492C8.84277 17.8921 8.84277 17.7328 8.84277 17.5757C8.84277 17.2078 8.51934 16.8562 8.13965 16.8726C7.75762 16.889 7.43652 17.182 7.43652 17.5757ZM16.5631 18.3421C16.5631 17.8593 16.5631 17.3765 16.5631 16.8913C16.5631 16.1203 16.5631 15.3468 16.5631 14.5757C16.5631 14.3976 16.5631 14.2171 16.5631 14.039C16.5631 13.671 16.2396 13.3195 15.86 13.3359C15.4779 13.3523 15.1568 13.6453 15.1568 14.039C15.1568 14.5218 15.1568 15.0046 15.1568 15.4898C15.1568 16.2609 15.1568 17.0343 15.1568 17.8054C15.1568 17.9835 15.1568 18.164 15.1568 18.3421C15.1568 18.7101 15.4803 19.0617 15.86 19.0453C16.242 19.0288 16.5631 18.7359 16.5631 18.3421ZM16.5631 5.95541C16.5631 4.97338 16.5631 3.989 16.5631 3.00697C16.5631 2.86869 16.5631 2.72807 16.5631 2.58979C16.5631 2.22182 16.2396 1.87025 15.86 1.88666C15.4779 1.90307 15.1568 2.19604 15.1568 2.58979C15.1568 3.57182 15.1568 4.55619 15.1568 5.53822C15.1568 5.6765 15.1568 5.81713 15.1568 5.95541C15.1568 6.32338 15.4803 6.67494 15.86 6.65854C16.242 6.64213 16.5631 6.34916 16.5631 5.95541Z" fill="#367971"/>
</svg>
