<svg width="24" height="24" viewBox="0 0 24 24" fill="none" xmlns="http://www.w3.org/2000/svg">
<path d="M22.1155 9.74996C22.1155 10.4742 22.1155 11.196 22.1155 11.9203C22.1155 13.0546 22.1155 14.1867 22.1155 15.321C22.1155 15.607 22.1389 15.9046 22.1061 16.1906C22.1155 16.1273 22.1225 16.0664 22.1319 16.0031C22.1155 16.1179 22.0874 16.2281 22.0428 16.3359C22.0663 16.2796 22.0897 16.2234 22.1132 16.1671C22.0803 16.2421 22.0428 16.3148 21.996 16.3828C21.9561 16.4414 21.8975 16.4695 22.0335 16.3382C22.0053 16.3664 21.9796 16.3992 21.9514 16.4273C21.9444 16.4343 21.8671 16.514 21.8624 16.5093C21.8647 16.5117 22.0335 16.3875 21.9069 16.4718C21.8389 16.5187 21.7663 16.5562 21.6913 16.589C21.7475 16.5656 21.8038 16.5421 21.86 16.5187C21.7522 16.5632 21.6421 16.5914 21.5272 16.6078C21.5905 16.5984 21.6514 16.5914 21.7147 16.582C21.4967 16.6078 21.2717 16.5914 21.0538 16.5914C20.8499 16.5914 20.6436 16.5914 20.4397 16.5914C20.6741 16.8257 20.9085 17.0601 21.1428 17.2945C21.1311 16.6921 20.9507 16.0734 20.5921 15.5835C20.2053 15.0585 19.7132 14.6812 19.1014 14.4515C17.9717 14.0296 16.5842 14.3976 15.8061 15.3187C15.3327 15.8789 15.0655 16.5562 15.0491 17.2921C15.2835 17.0578 15.5178 16.8234 15.7522 16.589C14.9038 16.589 14.0577 16.589 13.2092 16.589C11.8639 16.589 10.5186 16.589 9.17565 16.589C8.86862 16.589 8.55925 16.589 8.25221 16.589C8.48659 16.8234 8.72096 17.0578 8.95534 17.2921C8.94362 16.6898 8.76315 16.071 8.40456 15.5812C8.01784 15.0562 7.52565 14.6789 6.91393 14.4492C5.78425 14.0273 4.39674 14.3953 3.61862 15.3164C3.14518 15.8765 2.87799 16.5539 2.86159 17.2898C3.09596 17.0554 3.33034 16.821 3.56471 16.5867C3.36081 16.5867 3.15456 16.5867 2.95065 16.5867C2.73268 16.5867 2.50768 16.6007 2.28971 16.5773C2.35299 16.5867 2.41393 16.5937 2.47721 16.6031C2.36237 16.5867 2.25221 16.5585 2.1444 16.514C2.20065 16.5375 2.2569 16.5609 2.31315 16.5843C2.23815 16.5515 2.16549 16.514 2.09753 16.4671C2.03893 16.4273 2.01081 16.3687 2.14206 16.5046C2.11393 16.4765 2.08112 16.4507 2.05299 16.4226C2.04596 16.4156 1.96628 16.3382 1.97096 16.3335C1.96862 16.3359 2.09284 16.5046 2.00846 16.3781C1.96159 16.3101 1.92409 16.2375 1.89128 16.1625C1.91471 16.2187 1.93815 16.275 1.96159 16.3312C1.91706 16.2234 1.88893 16.1132 1.87253 15.9984C1.8819 16.0617 1.88893 16.1226 1.89831 16.1859C1.8819 16.0523 1.88893 15.914 1.88893 15.7781C1.88893 15.5273 1.88893 15.2789 1.88893 15.0281C1.88893 14.189 1.88893 13.35 1.88893 12.5109C1.88893 11.4937 1.88893 10.4765 1.88893 9.45933C1.88893 8.58042 1.88893 7.70386 1.88893 6.82495C1.88893 6.4148 1.88424 6.00464 1.88893 5.59683C1.88893 5.54058 1.89362 5.48199 1.89831 5.42574C1.88893 5.48902 1.8819 5.54995 1.87253 5.61324C1.88893 5.49839 1.91706 5.38824 1.96159 5.28042C1.93815 5.33667 1.91471 5.39292 1.89128 5.44917C1.92409 5.37417 1.96159 5.30152 2.00846 5.23355C2.04831 5.17495 2.1069 5.14683 1.97096 5.27808C1.99909 5.24995 2.02487 5.21714 2.05299 5.18902C2.06003 5.18199 2.13737 5.1023 2.14206 5.10699C2.13971 5.10464 1.97096 5.22886 2.09753 5.14449C2.16549 5.09761 2.23815 5.06011 2.31315 5.0273C2.2569 5.05074 2.20065 5.07417 2.1444 5.09761C2.25221 5.05308 2.36237 5.02495 2.47721 5.00855C2.41393 5.01792 2.35299 5.02495 2.28971 5.03433C2.46784 5.01324 2.65299 5.02495 2.83112 5.02495C3.20143 5.02495 3.57174 5.02495 3.93971 5.02495C5.16784 5.02495 6.39831 5.02495 7.62643 5.02495C9.10534 5.02495 10.5842 5.02495 12.0632 5.02495C13.31 5.02495 14.5569 5.02495 15.8014 5.02495C16.3335 5.02495 16.8632 5.02261 17.3952 5.02495C17.6342 5.02495 17.8733 5.04136 18.11 5.07183C18.0467 5.06245 17.9858 5.05542 17.9225 5.04605C18.403 5.11167 18.8717 5.23824 19.3194 5.42574C19.2632 5.4023 19.2069 5.37886 19.1507 5.35542C19.3967 5.46089 19.6358 5.58277 19.8655 5.72339C19.978 5.7937 20.0905 5.86636 20.1983 5.9437C20.2241 5.96245 20.2475 5.97886 20.2733 5.99761C20.278 5.99995 20.3178 6.02574 20.3225 6.03511C20.3272 6.04683 20.1889 5.92964 20.2405 5.97183C20.2921 6.01402 20.3436 6.05386 20.3952 6.09839C20.5991 6.26949 20.7889 6.45464 20.9647 6.65386C21.0092 6.70308 21.0514 6.75464 21.0936 6.8062C21.1124 6.82964 21.1311 6.85308 21.1522 6.87886C21.2413 6.98902 21.0491 6.74058 21.1358 6.85777C21.2155 6.96558 21.2905 7.07339 21.3632 7.18589C21.5272 7.44136 21.6678 7.71089 21.7874 7.99214C21.7639 7.93589 21.7405 7.87964 21.7171 7.82339C21.9046 8.27105 22.0311 8.7398 22.0967 9.22027C22.0874 9.15699 22.0803 9.09605 22.071 9.03277C22.0991 9.27417 22.1155 9.51089 22.1155 9.74996C22.1155 10.1179 22.4389 10.4695 22.8186 10.4531C23.1983 10.4367 23.5241 10.1437 23.5217 9.74996C23.5171 8.56167 23.1725 7.36402 22.5069 6.37495C21.8647 5.4187 20.9624 4.62417 19.903 4.16245C19.0897 3.80855 18.2342 3.62105 17.3436 3.62105C17.0905 3.62105 16.8374 3.62105 16.5842 3.62105C16.0827 3.62105 15.5811 3.62105 15.0796 3.62105C14.3999 3.62105 13.7202 3.62105 13.0428 3.62105C12.2671 3.62105 11.4913 3.62105 10.7155 3.62105C9.91159 3.62105 9.10768 3.62105 8.30378 3.62105C7.55378 3.62105 6.80378 3.62105 6.05378 3.62105C5.42565 3.62105 4.79987 3.62105 4.17174 3.62105C3.74753 3.62105 3.32331 3.62105 2.89909 3.62105C2.7069 3.62105 2.51003 3.60933 2.31784 3.62808C1.87956 3.67027 1.50924 3.82261 1.16706 4.09683C0.883464 4.32417 0.691276 4.64527 0.571745 4.98277C0.492057 5.20542 0.475651 5.44683 0.475651 5.68355C0.475651 6.04917 0.475651 6.4148 0.475651 6.78277C0.475651 7.43667 0.475651 8.08824 0.475651 8.74214C0.475651 9.53433 0.475651 10.3242 0.475651 11.1164C0.475651 11.8851 0.475651 12.6539 0.475651 13.4203C0.475651 14.0179 0.475651 14.6156 0.475651 15.2156C0.475651 15.4851 0.473307 15.7523 0.475651 16.0218C0.480339 16.6312 0.754557 17.2078 1.23737 17.5804C1.55612 17.8265 1.91471 17.9578 2.31549 17.9953C2.43971 18.007 2.56862 18.0023 2.69284 18.0023C2.98112 18.0023 3.2694 18.0023 3.55768 18.0023C3.9444 18.0023 4.25378 17.6789 4.26081 17.2992C4.26315 17.2007 4.27018 17.1046 4.2819 17.0062C4.27253 17.0695 4.2655 17.1304 4.25612 17.1937C4.28425 16.9945 4.33815 16.8 4.41549 16.6148C4.39206 16.671 4.36862 16.7273 4.34518 16.7835C4.40143 16.65 4.4694 16.521 4.54909 16.4015C4.57253 16.3664 4.59596 16.3335 4.6194 16.3007C4.68971 16.2 4.50924 16.432 4.58424 16.3453C4.63346 16.2867 4.68503 16.2281 4.73893 16.1742C4.79049 16.1226 4.8444 16.0757 4.89831 16.0289C5.01081 15.9304 4.76471 16.125 4.86549 16.0523C4.89596 16.0312 4.92409 16.0101 4.95456 15.9914C5.07878 15.907 5.21237 15.8367 5.35065 15.7781C5.2944 15.8015 5.23815 15.825 5.1819 15.8484C5.3694 15.771 5.56159 15.7195 5.76081 15.689C5.69753 15.6984 5.63659 15.7054 5.57331 15.7148C5.79128 15.6867 6.00924 15.6867 6.22487 15.7148C6.16159 15.7054 6.10065 15.6984 6.03737 15.689C6.23659 15.7171 6.42878 15.771 6.61628 15.8484C6.56003 15.825 6.50378 15.8015 6.44753 15.7781C6.58112 15.8343 6.71003 15.9023 6.82956 15.982C6.86471 16.0054 6.89753 16.0289 6.93034 16.0523C7.03112 16.1226 6.79909 15.9421 6.88581 16.0171C6.9444 16.0664 7.003 16.1179 7.0569 16.1718C7.10846 16.2234 7.15534 16.2773 7.20221 16.3312C7.30065 16.4437 7.10612 16.1976 7.17878 16.2984C7.19987 16.3289 7.22096 16.357 7.23971 16.3875C7.32409 16.5117 7.3944 16.6453 7.45299 16.7835C7.42956 16.7273 7.40612 16.671 7.38268 16.6148C7.46003 16.8023 7.51159 16.9945 7.54206 17.1937C7.53268 17.1304 7.52565 17.0695 7.51628 17.0062C7.528 17.1046 7.53737 17.2007 7.53737 17.2992C7.5444 17.6789 7.85378 18.0023 8.24049 18.0023C9.08893 18.0023 9.93503 18.0023 10.7835 18.0023C12.1288 18.0023 13.4741 18.0023 14.8171 18.0023C15.1241 18.0023 15.4335 18.0023 15.7405 18.0023C16.1272 18.0023 16.4366 17.6789 16.4436 17.2992C16.446 17.2007 16.453 17.1046 16.4647 17.0062C16.4553 17.0695 16.4483 17.1304 16.4389 17.1937C16.4671 16.9945 16.521 16.8 16.5983 16.6148C16.5749 16.671 16.5514 16.7273 16.528 16.7835C16.5842 16.65 16.6522 16.521 16.7319 16.4015C16.7553 16.3664 16.7788 16.3335 16.8022 16.3007C16.8725 16.2 16.6921 16.432 16.7671 16.3453C16.8163 16.2867 16.8678 16.2281 16.9217 16.1742C16.9733 16.1226 17.0272 16.0757 17.0811 16.0289C17.1936 15.9304 16.9475 16.125 17.0483 16.0523C17.0788 16.0312 17.1069 16.0101 17.1374 15.9914C17.2616 15.907 17.3952 15.8367 17.5335 15.7781C17.4772 15.8015 17.421 15.825 17.3647 15.8484C17.5522 15.771 17.7444 15.7195 17.9436 15.689C17.8803 15.6984 17.8194 15.7054 17.7561 15.7148C17.9741 15.6867 18.1921 15.6867 18.4077 15.7148C18.3444 15.7054 18.2835 15.6984 18.2202 15.689C18.4194 15.7171 18.6116 15.771 18.7991 15.8484C18.7428 15.825 18.6866 15.8015 18.6303 15.7781C18.7639 15.8343 18.8928 15.9023 19.0124 15.982C19.0475 16.0054 19.0803 16.0289 19.1132 16.0523C19.2139 16.1226 18.9819 15.9421 19.0686 16.0171C19.1272 16.0664 19.1858 16.1179 19.2397 16.1718C19.2913 16.2234 19.3382 16.2773 19.385 16.3312C19.4835 16.4437 19.2889 16.1976 19.3616 16.2984C19.3827 16.3289 19.4038 16.357 19.4225 16.3875C19.5069 16.5117 19.5772 16.6453 19.6358 16.7835C19.6124 16.7273 19.5889 16.671 19.5655 16.6148C19.6428 16.8023 19.6944 16.9945 19.7249 17.1937C19.7155 17.1304 19.7085 17.0695 19.6991 17.0062C19.7108 17.1046 19.7202 17.2007 19.7202 17.2992C19.7272 17.6789 20.0366 18.0023 20.4233 18.0023C20.7303 18.0023 21.0374 18.0023 21.3467 18.0023C21.546 18.0023 21.7335 17.9929 21.935 17.9601C22.2983 17.8992 22.6475 17.6976 22.9124 17.4468C23.3061 17.0718 23.51 16.5375 23.5124 15.9984C23.5124 15.839 23.5124 15.6796 23.5124 15.5203C23.5124 14.8335 23.5124 14.1492 23.5124 13.4625C23.5124 12.6703 23.5124 11.8781 23.5124 11.0859C23.5124 10.6476 23.5217 10.2093 23.5124 9.77105C23.5124 9.76402 23.5124 9.75933 23.5124 9.7523C23.5124 9.38433 23.1889 9.03277 22.8092 9.04917C22.4389 9.06558 22.1155 9.3562 22.1155 9.74996Z" fill="#367971"/>
<path d="M7.54687 17.332C7.54687 17.4398 7.53984 17.5476 7.52578 17.6554C7.53515 17.5922 7.54218 17.5312 7.55156 17.4679C7.52343 17.6648 7.47187 17.857 7.39453 18.0422C7.41796 17.9859 7.4414 17.9297 7.46484 17.8734C7.4039 18.0164 7.33359 18.1523 7.24687 18.2789C7.23046 18.3047 7.21171 18.3281 7.19531 18.3539C7.12968 18.45 7.32187 18.2015 7.21171 18.3328C7.16718 18.3867 7.11796 18.4406 7.06875 18.4898C7.01953 18.539 6.96562 18.5882 6.91171 18.6328C6.78046 18.7429 7.0289 18.5507 6.93281 18.6164C6.90703 18.6328 6.88359 18.6515 6.85781 18.6679C6.7289 18.7547 6.59296 18.825 6.45234 18.8859C6.50859 18.8625 6.56484 18.839 6.62109 18.8156C6.43593 18.8906 6.24375 18.9422 6.04687 18.9726C6.11015 18.9632 6.17109 18.9562 6.23437 18.9468C6.01875 18.975 5.80312 18.975 5.5875 18.9468C5.65078 18.9562 5.71171 18.9632 5.775 18.9726C5.57812 18.9445 5.38593 18.8929 5.20078 18.8156C5.25703 18.839 5.31328 18.8625 5.36953 18.8859C5.22656 18.825 5.09062 18.7547 4.96406 18.6679C4.93828 18.6515 4.91484 18.6328 4.88906 18.6164C4.79296 18.5507 5.0414 18.7429 4.91015 18.6328C4.85625 18.5882 4.80234 18.539 4.75312 18.4898C4.7039 18.4406 4.65468 18.3867 4.61015 18.3328C4.5 18.2015 4.69218 18.45 4.62656 18.3539C4.61015 18.3281 4.5914 18.3047 4.575 18.2789C4.48828 18.15 4.41796 18.014 4.35703 17.8734C4.38046 17.9297 4.4039 17.9859 4.42734 18.0422C4.35234 17.857 4.30078 17.6648 4.27031 17.4679C4.27968 17.5312 4.28671 17.5922 4.29609 17.6554C4.26796 17.4398 4.26796 17.2218 4.29609 17.0062C4.28671 17.0695 4.27968 17.1304 4.27031 17.1937C4.29843 16.9945 4.35234 16.8 4.42968 16.6148C4.40625 16.6711 4.38281 16.7273 4.35937 16.7836C4.41562 16.65 4.48359 16.5211 4.56328 16.4015C4.58671 16.3664 4.61015 16.3336 4.63359 16.3007C4.7039 16.2 4.52343 16.432 4.59843 16.3453C4.64765 16.2867 4.69921 16.2281 4.75312 16.1742C4.80468 16.1226 4.85859 16.0758 4.9125 16.0289C5.025 15.9304 4.7789 16.125 4.87968 16.0523C4.91015 16.0312 4.93828 16.0101 4.96875 15.9914C5.09296 15.907 5.22656 15.8367 5.36484 15.7781C5.30859 15.8015 5.25234 15.825 5.19609 15.8484C5.38359 15.7711 5.57578 15.7195 5.775 15.689C5.71171 15.6984 5.65078 15.7054 5.5875 15.7148C5.80546 15.6867 6.02343 15.6867 6.23906 15.7148C6.17578 15.7054 6.11484 15.6984 6.05156 15.689C6.25078 15.7172 6.44296 15.7711 6.63046 15.8484C6.57421 15.825 6.51796 15.8015 6.46171 15.7781C6.59531 15.8343 6.72421 15.9023 6.84375 15.982C6.8789 16.0054 6.91171 16.0289 6.94453 16.0523C7.04531 16.1226 6.81328 15.9422 6.9 16.0172C6.95859 16.0664 7.01718 16.1179 7.07109 16.1718C7.12265 16.2234 7.16953 16.2773 7.2164 16.3312C7.31484 16.4437 7.12031 16.1976 7.19296 16.2984C7.21406 16.3289 7.23515 16.357 7.2539 16.3875C7.33828 16.5117 7.40859 16.6453 7.46718 16.7836C7.44375 16.7273 7.42031 16.6711 7.39687 16.6148C7.47422 16.8023 7.52578 16.9945 7.55625 17.1937C7.54687 17.1304 7.53984 17.0695 7.53046 17.0062C7.5375 17.114 7.54453 17.2218 7.54687 17.332C7.55156 17.7 7.86562 18.0515 8.25 18.0351C8.62734 18.0187 8.95781 17.7257 8.95312 17.332C8.94375 16.7179 8.76796 16.0875 8.4 15.5882C8.00859 15.0562 7.50468 14.6695 6.88125 14.4468C5.73281 14.0367 4.34296 14.4257 3.57656 15.3726C3.15468 15.8953 2.91093 16.4953 2.86406 17.1679C2.82187 17.7679 2.98593 18.4031 3.3 18.914C3.60937 19.4156 4.06875 19.8445 4.61015 20.0859C5.23593 20.3648 5.89921 20.4445 6.57187 20.3039C7.95468 20.0156 8.94375 18.7218 8.95312 17.332C8.95546 16.964 8.62734 16.6125 8.25 16.6289C7.86796 16.6453 7.54921 16.9359 7.54687 17.332ZM19.7344 17.332C19.7344 17.4398 19.7273 17.5476 19.7133 17.6554C19.7227 17.5922 19.7297 17.5312 19.7391 17.4679C19.7109 17.6648 19.6594 17.857 19.582 18.0422C19.6055 17.9859 19.6289 17.9297 19.6523 17.8734C19.5914 18.0164 19.5211 18.1523 19.4344 18.2789C19.418 18.3047 19.3992 18.3281 19.3828 18.3539C19.3172 18.45 19.5094 18.2015 19.3992 18.3328C19.3547 18.3867 19.3055 18.4406 19.2562 18.4898C19.207 18.539 19.1531 18.5882 19.0992 18.6328C18.968 18.7429 19.2164 18.5507 19.1203 18.6164C19.0945 18.6328 19.0711 18.6515 19.0453 18.6679C18.9164 18.7547 18.7805 18.825 18.6398 18.8859C18.6961 18.8625 18.7523 18.839 18.8086 18.8156C18.6234 18.8906 18.4312 18.9422 18.2344 18.9726C18.2977 18.9632 18.3586 18.9562 18.4219 18.9468C18.2062 18.975 17.9906 18.975 17.775 18.9468C17.8383 18.9562 17.8992 18.9632 17.9625 18.9726C17.7656 18.9445 17.5734 18.8929 17.3883 18.8156C17.4445 18.839 17.5008 18.8625 17.557 18.8859C17.4141 18.825 17.2781 18.7547 17.1516 18.6679C17.1258 18.6515 17.1023 18.6328 17.0766 18.6164C16.9805 18.5507 17.2289 18.7429 17.0977 18.6328C17.0437 18.5882 16.9898 18.539 16.9406 18.4898C16.8914 18.4406 16.8422 18.3867 16.7977 18.3328C16.6875 18.2015 16.8797 18.45 16.8141 18.3539C16.7977 18.3281 16.7789 18.3047 16.7625 18.2789C16.6758 18.15 16.6055 18.014 16.5445 17.8734C16.568 17.9297 16.5914 17.9859 16.6148 18.0422C16.5398 17.857 16.4883 17.6648 16.4578 17.4679C16.4672 17.5312 16.4742 17.5922 16.4836 17.6554C16.4555 17.4398 16.4555 17.2218 16.4836 17.0062C16.4742 17.0695 16.4672 17.1304 16.4578 17.1937C16.4859 16.9945 16.5398 16.8 16.6172 16.6148C16.5937 16.6711 16.5703 16.7273 16.5469 16.7836C16.6031 16.65 16.6711 16.5211 16.7508 16.4015C16.7742 16.3664 16.7977 16.3336 16.8211 16.3007C16.8914 16.2 16.7109 16.432 16.7859 16.3453C16.8352 16.2867 16.8867 16.2281 16.9406 16.1742C16.9922 16.1226 17.0461 16.0758 17.1 16.0289C17.2125 15.9304 16.9664 16.125 17.0672 16.0523C17.0977 16.0312 17.1258 16.0101 17.1562 15.9914C17.2805 15.907 17.4141 15.8367 17.5523 15.7781C17.4961 15.8015 17.4398 15.825 17.3836 15.8484C17.5711 15.7711 17.7633 15.7195 17.9625 15.689C17.8992 15.6984 17.8383 15.7054 17.775 15.7148C17.993 15.6867 18.2109 15.6867 18.4266 15.7148C18.3633 15.7054 18.3023 15.6984 18.2391 15.689C18.4383 15.7172 18.6305 15.7711 18.818 15.8484C18.7617 15.825 18.7055 15.8015 18.6492 15.7781C18.7828 15.8343 18.9117 15.9023 19.0312 15.982C19.0664 16.0054 19.0992 16.0289 19.132 16.0523C19.2328 16.1226 19.0008 15.9422 19.0875 16.0172C19.1461 16.0664 19.2047 16.1179 19.2586 16.1718C19.3102 16.2234 19.357 16.2773 19.4039 16.3312C19.5023 16.4437 19.3078 16.1976 19.3805 16.2984C19.4016 16.3289 19.4227 16.357 19.4414 16.3875C19.5258 16.5117 19.5961 16.6453 19.6547 16.7836C19.6312 16.7273 19.6078 16.6711 19.5844 16.6148C19.6617 16.8023 19.7133 16.9945 19.7437 17.1937C19.7344 17.1304 19.7273 17.0695 19.718 17.0062C19.725 17.114 19.732 17.2218 19.7344 17.332C19.7391 17.7 20.0531 18.0515 20.4375 18.0351C20.8148 18.0187 21.1453 17.7257 21.1406 17.332C21.1312 16.7179 20.9555 16.0875 20.5875 15.5882C20.1961 15.0562 19.6922 14.6695 19.0687 14.4468C17.9203 14.0367 16.5305 14.4257 15.7641 15.3726C15.3422 15.8953 15.0984 16.4953 15.0516 17.1679C15.0094 17.7679 15.1734 18.4031 15.4875 18.914C15.7969 19.4156 16.2562 19.8445 16.7977 20.0859C17.4234 20.3648 18.0867 20.4445 18.7594 20.3039C20.1422 20.0156 21.1312 18.7218 21.1406 17.332C21.143 16.964 20.8148 16.6125 20.4375 16.6289C20.0555 16.6453 19.7367 16.9359 19.7344 17.332ZM22.1156 9.74997C22.1156 9.97262 22.1156 10.1976 22.1156 10.4203C22.35 10.1859 22.5844 9.95153 22.8187 9.71716C22.6242 9.71716 22.432 9.71716 22.2375 9.71716C21.7125 9.71716 21.1898 9.71716 20.6648 9.71716C19.8867 9.71716 19.1086 9.71716 18.3305 9.71716C17.3836 9.71716 16.4391 9.71716 15.4922 9.71716C14.4562 9.71716 13.4203 9.71716 12.3844 9.71716C11.3391 9.71716 10.2937 9.71716 9.24843 9.71716C8.26875 9.71716 7.2914 9.71716 6.31171 9.71716C5.48437 9.71716 4.65937 9.71716 3.83203 9.71716C3.23906 9.71716 2.64843 9.71716 2.05546 9.71716C1.77421 9.71716 1.49531 9.71247 1.21406 9.71716C1.20234 9.71716 1.19062 9.71716 1.1789 9.71716C1.41328 9.95153 1.64765 10.1859 1.88203 10.4203C1.88203 9.86247 1.88203 9.30466 1.88203 8.7445C1.88203 7.87262 1.88203 6.99841 1.88203 6.12653C1.88203 5.89684 1.86562 5.65778 1.8914 5.43044C1.88203 5.49372 1.875 5.55466 1.86562 5.61794C1.88203 5.50309 1.91015 5.39294 1.95468 5.28512C1.93125 5.34137 1.90781 5.39762 1.88437 5.45387C1.91718 5.37887 1.95468 5.30622 2.00156 5.23825C2.0414 5.17966 2.1 5.15153 1.96406 5.28278C1.99218 5.25466 2.01796 5.22184 2.04609 5.19372C2.05312 5.18669 2.13046 5.107 2.13515 5.11169C2.13281 5.10934 1.96406 5.23356 2.09062 5.14919C2.15859 5.10231 2.23125 5.06481 2.30625 5.032C2.25 5.05544 2.19375 5.07887 2.1375 5.10231C2.24531 5.05778 2.35546 5.02966 2.47031 5.01325C2.40703 5.02262 2.34609 5.02966 2.28281 5.03903C2.46093 5.01794 2.64609 5.02966 2.82421 5.02966C3.19453 5.02966 3.56484 5.02966 3.93281 5.02966C5.16093 5.02966 6.3914 5.02966 7.61953 5.02966C9.09843 5.02966 10.5773 5.02966 12.0562 5.02966C13.3031 5.02966 14.55 5.02966 15.7945 5.02966C16.3266 5.02966 16.8562 5.02731 17.3883 5.02966C17.6273 5.02966 17.8664 5.04606 18.1031 5.07653C18.0398 5.06716 17.9789 5.06012 17.9156 5.05075C18.3961 5.11637 18.8648 5.24294 19.3125 5.43044C19.2562 5.407 19.2 5.38356 19.1437 5.36012C19.3898 5.46559 19.6289 5.58747 19.8586 5.72809C19.9711 5.79841 20.0836 5.87106 20.1914 5.94841C20.2172 5.96716 20.2406 5.98356 20.2664 6.00231C20.2711 6.00466 20.3109 6.03044 20.3156 6.03981C20.3203 6.05153 20.182 5.93434 20.2336 5.97653C20.2852 6.01872 20.3367 6.05856 20.3883 6.10309C20.5922 6.27419 20.782 6.45934 20.9578 6.65856C21.0023 6.70778 21.0445 6.75934 21.0867 6.81091C21.1055 6.83434 21.1242 6.85778 21.1453 6.88356C21.2344 6.99372 21.0422 6.74528 21.1289 6.86247C21.2086 6.97028 21.2836 7.07809 21.3562 7.19059C21.5203 7.44606 21.6609 7.71559 21.7805 7.99684C21.757 7.94059 21.7336 7.88434 21.7102 7.82809C21.8977 8.27575 22.0242 8.7445 22.0898 9.22497C22.0805 9.16169 22.0734 9.10075 22.0641 9.03747C22.0992 9.27419 22.1156 9.51091 22.1156 9.74997C22.1156 10.1179 22.4391 10.4695 22.8187 10.4531C23.1984 10.4367 23.5242 10.1437 23.5219 9.74997C23.5172 7.94762 22.7039 6.16403 21.293 5.02731C20.5805 4.45309 19.7672 4.0195 18.8742 3.80153C18.3703 3.67731 17.8477 3.62106 17.3273 3.62106C16.8117 3.62106 16.2984 3.62106 15.7828 3.62106C14.7891 3.62106 13.7953 3.62106 12.8016 3.62106C11.5945 3.62106 10.3875 3.62106 9.18046 3.62106C8.02734 3.62106 6.87421 3.62106 5.72109 3.62106C4.88671 3.62106 4.05468 3.62106 3.22031 3.62106C2.59218 3.62106 1.93359 3.56247 1.38281 3.93278C0.862496 4.28434 0.555465 4.807 0.485152 5.43044C0.473434 5.53825 0.475777 5.64606 0.475777 5.75387C0.475777 6.18747 0.475777 6.62106 0.475777 7.057C0.475777 8.11169 0.475777 9.16403 0.475777 10.2187C0.475777 10.2867 0.475777 10.3523 0.475777 10.4203C0.475777 10.8 0.796871 11.1234 1.1789 11.1234C1.37343 11.1234 1.56562 11.1234 1.76015 11.1234C2.28515 11.1234 2.80781 11.1234 3.33281 11.1234C4.11093 11.1234 4.88906 11.1234 5.66718 11.1234C6.61406 11.1234 7.55859 11.1234 8.50546 11.1234C9.5414 11.1234 10.5773 11.1234 11.6133 11.1234C12.6586 11.1234 13.7039 11.1234 14.7492 11.1234C15.7289 11.1234 16.7062 11.1234 17.6859 11.1234C18.5133 11.1234 19.3383 11.1234 20.1656 11.1234C20.7586 11.1234 21.3492 11.1234 21.9422 11.1234C22.2234 11.1234 22.5023 11.1257 22.7836 11.1234C22.7953 11.1234 22.807 11.1234 22.8187 11.1234C23.1984 11.1234 23.5219 10.8023 23.5219 10.4203C23.5219 10.1976 23.5219 9.97262 23.5219 9.74997C23.5219 9.382 23.1984 9.03044 22.8187 9.04684C22.4391 9.06559 22.1156 9.35622 22.1156 9.74997Z" fill="#367971"/>
<path d="M9.09644 10.4203C9.09644 9.73119 9.09644 9.03979 9.09644 8.35072C9.09644 7.26088 9.09644 6.17104 9.09644 5.07885C9.09644 4.82807 9.09644 4.57494 9.09644 4.32416C9.09644 3.95619 8.773 3.60463 8.39331 3.62104C8.01128 3.63744 7.69019 3.93041 7.69019 4.32416C7.69019 5.01322 7.69019 5.70463 7.69019 6.39369C7.69019 7.48354 7.69019 8.57338 7.69019 9.66557C7.69019 9.91635 7.69019 10.1695 7.69019 10.4203C7.69019 10.7882 8.01362 11.1398 8.39331 11.1234C8.77534 11.107 9.09644 10.8163 9.09644 10.4203ZM16.3105 10.4203C16.3105 9.73119 16.3105 9.03979 16.3105 8.35072C16.3105 7.26088 16.3105 6.17104 16.3105 5.07885C16.3105 4.82807 16.3105 4.57494 16.3105 4.32416C16.3105 3.95619 15.9871 3.60463 15.6074 3.62104C15.2253 3.63744 14.9042 3.93041 14.9042 4.32416C14.9042 5.01322 14.9042 5.70463 14.9042 6.39369C14.9042 7.48354 14.9042 8.57338 14.9042 9.66557C14.9042 9.91635 14.9042 10.1695 14.9042 10.4203C14.9042 10.7882 15.2277 11.1398 15.6074 11.1234C15.9871 11.107 16.3105 10.8163 16.3105 10.4203ZM5.37925 17.332C5.37925 17.339 5.37925 17.3437 5.37925 17.3507C5.38862 17.2874 5.39565 17.2265 5.40503 17.1632C5.40269 17.182 5.398 17.1984 5.39097 17.2171C5.4144 17.1609 5.43784 17.1046 5.46128 17.0484C5.45659 17.0601 5.44956 17.0695 5.44253 17.0788C5.48003 17.032 5.51519 16.9851 5.55269 16.9359C5.54097 16.9499 5.52925 16.9617 5.51519 16.9734C5.56206 16.9359 5.60894 16.9007 5.65815 16.8632C5.64878 16.8703 5.63706 16.8773 5.62769 16.882C5.68394 16.8585 5.74019 16.8351 5.79644 16.8117C5.77769 16.8187 5.76128 16.8234 5.74253 16.8257C5.80581 16.8163 5.86675 16.8093 5.93003 16.7999C5.91831 16.8023 5.90425 16.8023 5.89253 16.7999C5.95581 16.8093 6.01675 16.8163 6.08003 16.8257C6.06128 16.8234 6.04487 16.8187 6.02612 16.8117C6.08237 16.8351 6.13862 16.8585 6.19487 16.882C6.18315 16.8773 6.17378 16.8703 6.1644 16.8632C6.21128 16.9007 6.25815 16.9359 6.30737 16.9734C6.29331 16.9617 6.28159 16.9499 6.26987 16.9359C6.30737 16.9828 6.34253 17.0296 6.38003 17.0788C6.373 17.0695 6.36597 17.0578 6.36128 17.0484C6.38472 17.1046 6.40815 17.1609 6.43159 17.2171C6.42456 17.1984 6.41987 17.182 6.41753 17.1632C6.4269 17.2265 6.43394 17.2874 6.44331 17.3507C6.44097 17.339 6.44097 17.3249 6.44331 17.3132C6.43394 17.3765 6.4269 17.4374 6.41753 17.5007C6.41987 17.482 6.42456 17.4656 6.43159 17.4468C6.40815 17.5031 6.38472 17.5593 6.36128 17.6156C6.36597 17.6038 6.373 17.5945 6.38003 17.5851C6.34253 17.632 6.30737 17.6788 6.26987 17.7281C6.28159 17.714 6.29331 17.7023 6.30737 17.6906C6.2605 17.7281 6.21362 17.7632 6.1644 17.8007C6.17378 17.7937 6.1855 17.7867 6.19487 17.782C6.13862 17.8054 6.08237 17.8288 6.02612 17.8523C6.04487 17.8453 6.06128 17.8406 6.08003 17.8382C6.01675 17.8476 5.95581 17.8546 5.89253 17.864C5.90425 17.8617 5.91831 17.8617 5.93003 17.864C5.86675 17.8546 5.80581 17.8476 5.74253 17.8382C5.76128 17.8406 5.77769 17.8453 5.79644 17.8523C5.74019 17.8288 5.68394 17.8054 5.62769 17.782C5.6394 17.7867 5.64878 17.7937 5.65815 17.8007C5.61128 17.7632 5.5644 17.7281 5.51519 17.6906C5.52925 17.7023 5.54097 17.714 5.55269 17.7281C5.51519 17.6812 5.48003 17.6343 5.44253 17.5851C5.44956 17.5945 5.45659 17.6062 5.46128 17.6156C5.43784 17.5593 5.4144 17.5031 5.39097 17.4468C5.398 17.4656 5.40269 17.482 5.40503 17.5007C5.39565 17.4374 5.38862 17.3765 5.37925 17.3132C5.37925 17.3179 5.37925 17.3249 5.37925 17.332C5.38862 17.5171 5.4519 17.6953 5.5855 17.8288C5.70737 17.9507 5.90659 18.0421 6.08237 18.0351C6.26519 18.0281 6.45269 17.9671 6.57925 17.8288C6.70112 17.6953 6.79487 17.5171 6.7855 17.332C6.77378 17.0976 6.69644 16.8796 6.52769 16.7109C6.36597 16.5492 6.13628 16.4531 5.90659 16.4531C5.6769 16.4531 5.44722 16.5468 5.2855 16.7109C5.11909 16.8773 5.03472 17.0999 5.02769 17.332C5.01362 17.8078 5.4355 18.2038 5.89722 18.2109C6.12456 18.2132 6.36128 18.1218 6.52065 17.9601C6.69409 17.7843 6.77144 17.5757 6.7855 17.332C6.79487 17.1585 6.70112 16.9546 6.57925 16.8351C6.45737 16.7132 6.25815 16.6218 6.08237 16.6288C5.89956 16.6359 5.71206 16.6968 5.5855 16.8351C5.45425 16.9757 5.38862 17.1374 5.37925 17.332ZM17.5667 17.332C17.5667 17.339 17.5667 17.3437 17.5667 17.3507C17.5761 17.2874 17.5832 17.2265 17.5925 17.1632C17.5902 17.182 17.5855 17.1984 17.5785 17.2171C17.6019 17.1609 17.6253 17.1046 17.6488 17.0484C17.6441 17.0601 17.6371 17.0695 17.63 17.0788C17.6675 17.032 17.7027 16.9851 17.7402 16.9359C17.7285 16.9499 17.7167 16.9617 17.7027 16.9734C17.7496 16.9359 17.7964 16.9007 17.8457 16.8632C17.8363 16.8703 17.8246 16.8773 17.8152 16.882C17.8714 16.8585 17.9277 16.8351 17.9839 16.8117C17.9652 16.8187 17.9488 16.8234 17.93 16.8257C17.9933 16.8163 18.0542 16.8093 18.1175 16.7999C18.1058 16.8023 18.0917 16.8023 18.08 16.7999C18.1433 16.8093 18.2042 16.8163 18.2675 16.8257C18.2488 16.8234 18.2324 16.8187 18.2136 16.8117C18.2699 16.8351 18.3261 16.8585 18.3824 16.882C18.3707 16.8773 18.3613 16.8703 18.3519 16.8632C18.3988 16.9007 18.4457 16.9359 18.4949 16.9734C18.4808 16.9617 18.4691 16.9499 18.4574 16.9359C18.4949 16.9828 18.53 17.0296 18.5675 17.0788C18.5605 17.0695 18.5535 17.0578 18.5488 17.0484C18.5722 17.1046 18.5957 17.1609 18.6191 17.2171C18.6121 17.1984 18.6074 17.182 18.605 17.1632C18.6144 17.2265 18.6214 17.2874 18.6308 17.3507C18.6285 17.339 18.6285 17.3249 18.6308 17.3132C18.6214 17.3765 18.6144 17.4374 18.605 17.5007C18.6074 17.482 18.6121 17.4656 18.6191 17.4468C18.5957 17.5031 18.5722 17.5593 18.5488 17.6156C18.5535 17.6038 18.5605 17.5945 18.5675 17.5851C18.53 17.632 18.4949 17.6788 18.4574 17.7281C18.4691 17.714 18.4808 17.7023 18.4949 17.6906C18.448 17.7281 18.4011 17.7632 18.3519 17.8007C18.3613 17.7937 18.373 17.7867 18.3824 17.782C18.3261 17.8054 18.2699 17.8288 18.2136 17.8523C18.2324 17.8453 18.2488 17.8406 18.2675 17.8382C18.2042 17.8476 18.1433 17.8546 18.08 17.864C18.0917 17.8617 18.1058 17.8617 18.1175 17.864C18.0542 17.8546 17.9933 17.8476 17.93 17.8382C17.9488 17.8406 17.9652 17.8453 17.9839 17.8523C17.9277 17.8288 17.8714 17.8054 17.8152 17.782C17.8269 17.7867 17.8363 17.7937 17.8457 17.8007C17.7988 17.7632 17.7519 17.7281 17.7027 17.6906C17.7167 17.7023 17.7285 17.714 17.7402 17.7281C17.7027 17.6812 17.6675 17.6343 17.63 17.5851C17.6371 17.5945 17.6441 17.6062 17.6488 17.6156C17.6253 17.5593 17.6019 17.5031 17.5785 17.4468C17.5855 17.4656 17.5902 17.482 17.5925 17.5007C17.5832 17.4374 17.5761 17.3765 17.5667 17.3132C17.5667 17.3179 17.5667 17.3249 17.5667 17.332C17.5761 17.5171 17.6394 17.6953 17.773 17.8288C17.8949 17.9507 18.0941 18.0421 18.2699 18.0351C18.4527 18.0281 18.6402 17.9671 18.7667 17.8288C18.8886 17.6953 18.9824 17.5171 18.973 17.332C18.9613 17.0976 18.8839 16.8796 18.7152 16.7109C18.5535 16.5492 18.3238 16.4531 18.0941 16.4531C17.8644 16.4531 17.6347 16.5468 17.473 16.7109C17.3066 16.8773 17.2222 17.0999 17.2152 17.332C17.2011 17.8078 17.623 18.2038 18.0847 18.2109C18.3121 18.2132 18.5488 18.1218 18.7082 17.9601C18.8816 17.7843 18.9589 17.5757 18.973 17.332C18.9824 17.1585 18.8886 16.9546 18.7667 16.8351C18.6449 16.7132 18.4457 16.6218 18.2699 16.6288C18.0871 16.6359 17.8996 16.6968 17.773 16.8351C17.6417 16.9757 17.5761 17.1374 17.5667 17.332ZM12.7035 17.2968C12.7035 16.5234 12.7035 15.7476 12.7035 14.9742C12.7035 13.739 12.7035 12.5062 12.7035 11.271C12.7035 10.9874 12.7035 10.7038 12.7035 10.4203C12.7035 10.0523 12.38 9.70072 12.0003 9.71713C11.6183 9.73354 11.2972 10.0265 11.2972 10.4203C11.2972 11.1937 11.2972 11.9695 11.2972 12.7429C11.2972 13.9781 11.2972 15.2109 11.2972 16.446C11.2972 16.7296 11.2972 17.0132 11.2972 17.2968C11.2972 17.6648 11.6207 18.0163 12.0003 17.9999C12.3824 17.9835 12.7035 17.6929 12.7035 17.2968Z" fill="#367971"/>
</svg>
