<svg width="24" height="24" viewBox="0 0 24 24" fill="none" xmlns="http://www.w3.org/2000/svg">
<path d="M13.7533 10.9547C13.5916 11.2336 13.4322 11.5125 13.2705 11.7914C12.8838 12.4617 12.4971 13.1297 12.1104 13.8C11.6416 14.6133 11.1705 15.4265 10.7018 16.2398C10.2963 16.9406 9.89318 17.6414 9.48771 18.3398C9.29084 18.6797 9.08459 19.0148 8.89709 19.3617C8.89474 19.3664 8.8924 19.3711 8.88771 19.3758C9.08928 19.2586 9.29318 19.1437 9.49475 19.0265C9.22521 19.0265 8.95568 19.0265 8.68615 19.0265C8.03928 19.0265 7.3924 19.0265 6.74553 19.0265C5.96271 19.0265 5.1799 19.0265 4.39943 19.0265C3.72209 19.0265 3.04709 19.0265 2.36975 19.0265C2.04162 19.0265 1.71115 19.0172 1.38303 19.0265C1.37834 19.0265 1.37365 19.0265 1.36896 19.0265C1.57053 19.3781 1.77443 19.732 1.976 20.0836C2.08146 19.9008 2.18693 19.7203 2.2924 19.5375C2.56662 19.064 2.8385 18.5906 3.11271 18.1172C3.49475 17.4562 3.87678 16.7953 4.25646 16.1344C4.68537 15.389 5.11662 14.6461 5.54553 13.9008C5.96506 13.1742 6.38693 12.4453 6.80646 11.7187C7.15334 11.1187 7.50021 10.5187 7.84475 9.91873C8.06037 9.54607 8.27365 9.17576 8.48928 8.8031C8.57365 8.65544 8.66037 8.50779 8.74475 8.36013C9.11271 7.72498 9.47834 7.08982 9.84631 6.45466C10.1791 5.8781 10.5119 5.30154 10.8447 4.72498C10.8635 4.69216 10.8822 4.65935 10.901 4.62654C10.4955 4.62654 10.0924 4.62654 9.68693 4.62654C9.89787 4.98982 10.1065 5.35544 10.3174 5.71873C10.6971 6.37732 11.0768 7.03357 11.4565 7.69216C11.6393 8.01091 11.8244 8.32966 12.0072 8.64841C12.2862 9.13123 12.5651 9.61638 12.8463 10.0992C13.1416 10.6101 13.4299 11.1281 13.7322 11.6343C13.7369 11.6437 13.7416 11.6531 13.7487 11.6625C13.9338 11.9812 14.3932 12.1195 14.7096 11.9156C15.0307 11.7094 15.1596 11.2945 14.9627 10.9547C14.7096 10.5187 14.4588 10.0804 14.2057 9.64451C13.8893 9.09607 13.5729 8.54998 13.2565 8.00154C13.1018 7.73435 12.9494 7.46951 12.7947 7.20232C12.4174 6.55076 12.0424 5.89919 11.6651 5.24529C11.4143 4.80935 11.1705 4.36873 10.9104 3.93748C10.9057 3.93044 10.9033 3.92341 10.8987 3.91638C10.6362 3.45935 9.94709 3.45935 9.68459 3.91638C9.43615 4.34763 9.18771 4.77888 8.93693 5.21013C8.53146 5.91091 8.12599 6.61404 7.72287 7.31482C7.59865 7.53044 7.47443 7.74373 7.35021 7.95935C7.17678 8.25935 7.00334 8.55935 6.8299 8.85935C6.50881 9.41482 6.18771 9.97263 5.86662 10.5281C5.46115 11.2312 5.05334 11.9344 4.64787 12.6398C4.21428 13.3898 3.78303 14.1375 3.34943 14.8875C2.94865 15.5812 2.54787 16.275 2.14709 16.9687C1.8424 17.4961 1.53771 18.0258 1.23303 18.5531C1.08068 18.8156 0.928339 19.0758 0.778339 19.3383C0.771308 19.35 0.764276 19.3617 0.757245 19.3734C0.490058 19.8351 0.829901 20.4304 1.36428 20.4304C1.68771 20.4304 2.00881 20.4304 2.33225 20.4304C3.08459 20.4304 3.83693 20.4304 4.58693 20.4304C5.4424 20.4304 6.30021 20.4304 7.15568 20.4304C7.79084 20.4304 8.42834 20.4304 9.0635 20.4304C9.19709 20.4304 9.33068 20.4351 9.46428 20.4304C9.72678 20.4234 9.95412 20.3015 10.0971 20.0789C10.1135 20.0531 10.1276 20.0273 10.1416 20.0015C10.3572 19.6289 10.5729 19.2562 10.7885 18.8836C11.1682 18.225 11.5502 17.5664 11.9299 16.9078C12.3612 16.1625 12.7901 15.4172 13.2213 14.6719C13.594 14.0273 13.9643 13.3851 14.3369 12.7406C14.5362 12.3984 14.733 12.0539 14.9322 11.7117C14.9416 11.6953 14.951 11.6789 14.9604 11.6648C15.1455 11.3461 15.0447 10.8797 14.7072 10.7039C14.3791 10.5234 13.9479 10.6125 13.7533 10.9547Z" fill="#367971"/>
<path d="M12.1148 7.7812C11.6273 8.36714 11.1398 8.95542 10.6523 9.54136C10.5843 9.62339 10.514 9.70776 10.4461 9.7898C10.7765 9.7898 11.1093 9.7898 11.4398 9.7898C11.0742 9.38433 10.7109 8.97886 10.3453 8.57339C10.1578 8.3648 10.0172 8.16792 9.7359 8.06948C9.48512 7.98276 9.23434 7.90073 8.98121 7.8187C8.71871 7.73198 8.45621 7.64292 8.19371 7.5562C8.33434 7.90073 8.47496 8.24526 8.61324 8.5898C8.87106 8.14214 9.13121 7.69448 9.38903 7.24683C9.79918 6.53667 10.2093 5.82886 10.6195 5.1187C10.7132 4.95464 10.8093 4.79058 10.9031 4.62651C10.4976 4.62651 10.0945 4.62651 9.68903 4.62651C9.94918 5.07886 10.2117 5.5312 10.4718 5.98355C10.8867 6.70073 11.3015 7.41792 11.7164 8.13511C11.8125 8.30151 11.9086 8.46792 12.0047 8.63433C12.1898 8.95308 12.6492 9.09136 12.9656 8.88745C13.2867 8.6812 13.4156 8.26636 13.2187 7.92651C12.9586 7.47417 12.6961 7.02183 12.4359 6.56948C12.0211 5.85229 11.6062 5.13511 11.1914 4.41792C11.0953 4.25151 10.9992 4.08511 10.9031 3.9187C10.6406 3.46167 9.95153 3.46167 9.68903 3.9187C9.43121 4.36636 9.17106 4.81401 8.91324 5.26167C8.50309 5.97183 8.09293 6.67964 7.68278 7.3898C7.58903 7.55386 7.49293 7.71792 7.39918 7.88198C7.16246 8.29214 7.38981 8.77261 7.81871 8.91558C8.33668 9.08901 8.85465 9.26011 9.37262 9.43355C9.26949 9.37261 9.16637 9.31401 9.06324 9.25308C9.46637 9.70073 9.86715 10.1484 10.2703 10.596C10.3289 10.6593 10.3851 10.725 10.4437 10.7882C10.6804 11.0531 11.2031 11.0695 11.4375 10.7882C11.925 10.2023 12.4125 9.61401 12.9 9.02808C12.9679 8.94605 13.0382 8.86167 13.1062 8.77964C13.2281 8.63198 13.3125 8.47964 13.3125 8.28276C13.3125 8.10933 13.2351 7.90542 13.1062 7.78589C12.8507 7.54214 12.3656 7.47886 12.1148 7.7812ZM22.6289 19.0265C22.1929 19.0265 21.7547 19.0265 21.3187 19.0265C20.2734 19.0265 19.2281 19.0265 18.1828 19.0265C16.9148 19.0265 15.6492 19.0265 14.3812 19.0265C13.289 19.0265 12.1992 19.0265 11.107 19.0265C10.5773 19.0265 10.0476 19.0125 9.51793 19.0265C9.5109 19.0265 9.50387 19.0265 9.49684 19.0265C9.6984 19.3781 9.90231 19.732 10.1039 20.0835C10.2679 19.8 10.4297 19.5187 10.5937 19.2351C10.9851 18.5578 11.3765 17.8781 11.7679 17.2007C12.239 16.3875 12.7078 15.5742 13.1789 14.7585C13.5843 14.0578 13.9875 13.357 14.3929 12.6562C14.5828 12.3281 14.7726 11.9976 14.9625 11.6695C14.9718 11.6554 14.9789 11.6414 14.9882 11.625C14.7234 11.7328 14.4586 11.8406 14.1937 11.9484C14.5734 12.075 14.9554 12.2015 15.3351 12.3281C15.232 12.2671 15.1289 12.2085 15.0257 12.1476C15.3632 12.525 15.7031 12.9 16.0406 13.2773C16.2773 13.5421 16.8 13.5585 17.0343 13.2773C17.4422 12.7851 17.8523 12.2929 18.2601 11.8007C17.8922 11.7539 17.5242 11.707 17.1562 11.6578C17.3203 11.932 17.4773 12.2132 17.6367 12.4898C18.0234 13.1578 18.4078 13.8257 18.7945 14.4937C19.2632 15.307 19.7343 16.1203 20.2031 16.9335C20.6086 17.6343 21.014 18.3351 21.4172 19.0359C21.614 19.3781 21.8062 19.725 22.0101 20.0648C22.0125 20.0695 22.0148 20.0742 22.0195 20.0789C22.2046 20.3976 22.664 20.5359 22.9804 20.332C23.3015 20.1257 23.4304 19.7109 23.2336 19.371C23.0718 19.0898 22.9101 18.8085 22.7461 18.5296C22.3593 17.8593 21.9726 17.189 21.5836 16.5187C21.1148 15.7054 20.6437 14.8921 20.175 14.0789C19.7718 13.3804 19.3664 12.6796 18.9632 11.9812C18.7687 11.6437 18.5789 11.2992 18.3773 10.9664C18.375 10.9617 18.3703 10.957 18.3679 10.95C18.1547 10.5914 17.5593 10.4507 17.264 10.807C16.8562 11.2992 16.4461 11.7914 16.0382 12.2835C16.3687 12.2835 16.7015 12.2835 17.032 12.2835C16.7625 11.9835 16.4929 11.6835 16.2234 11.3835C16.0593 11.2007 15.9468 11.0578 15.6961 10.9687C15.5109 10.9031 15.3211 10.8445 15.1336 10.7812C14.9437 10.7179 14.7539 10.6546 14.5617 10.5914C14.2734 10.4953 13.9125 10.6546 13.7672 10.9148C13.6101 11.196 13.4461 11.4703 13.2843 11.7492C12.8976 12.4171 12.5109 13.0875 12.1242 13.7554C11.6554 14.5687 11.1843 15.382 10.7156 16.1953C10.3054 16.9031 9.89762 17.6132 9.48746 18.321C9.28824 18.6656 9.08199 19.0078 8.88981 19.357C8.88746 19.3617 8.88512 19.3664 8.88043 19.371C8.61324 19.8328 8.95309 20.4281 9.48746 20.4281C9.9234 20.4281 10.3617 20.4281 10.7976 20.4281C11.8429 20.4281 12.8882 20.4281 13.9336 20.4281C15.2015 20.4281 16.4672 20.4281 17.7351 20.4281C18.8273 20.4281 19.9172 20.4281 21.0093 20.4281C21.539 20.4281 22.0687 20.4375 22.5984 20.4281C22.6054 20.4281 22.6125 20.4281 22.6195 20.4281C22.9875 20.4281 23.339 20.1046 23.3226 19.725C23.3156 19.3476 23.0226 19.0265 22.6289 19.0265Z" fill="#367971"/>
<path d="M17.2662 10.8094C16.8584 11.3015 16.4482 11.7937 16.0404 12.2859C16.3709 12.2859 16.7037 12.2859 17.0341 12.2859C16.7646 11.9859 16.4951 11.6859 16.2255 11.3859C16.0615 11.2031 15.949 11.0601 15.6982 10.9711C15.513 10.9054 15.3232 10.8469 15.1357 10.7836C14.9459 10.7203 14.756 10.657 14.5638 10.5937C14.7045 10.9383 14.8451 11.2828 14.9834 11.6273C15.4755 10.7765 15.9654 9.92576 16.4576 9.07498C16.5279 8.95544 16.5959 8.83357 16.6662 8.71404C16.2607 8.71404 15.8576 8.71404 15.4521 8.71404C15.949 9.57419 16.4459 10.4344 16.9427 11.2969C17.0131 11.4187 17.0834 11.5406 17.1537 11.6625C17.3365 11.9812 17.7982 12.1195 18.1146 11.9156C18.4357 11.7094 18.5646 11.2945 18.3677 10.9547C17.8709 10.0945 17.374 9.23435 16.8771 8.37185C16.8068 8.24998 16.7365 8.1281 16.6662 8.00623C16.4037 7.54919 15.7146 7.54919 15.4521 8.00623C14.9599 8.85701 14.4701 9.70779 13.9779 10.5586C13.9076 10.6781 13.8396 10.8 13.7693 10.9195C13.5326 11.3297 13.7599 11.8101 14.1888 11.9531C14.5685 12.0797 14.9505 12.2062 15.3302 12.3328C15.2271 12.2719 15.124 12.2133 15.0209 12.1523C15.3584 12.5297 15.6982 12.9047 16.0357 13.282C16.2724 13.5469 16.7951 13.5633 17.0295 13.282C17.4373 12.7898 17.8474 12.2976 18.2552 11.8054C18.3771 11.6578 18.4615 11.5054 18.4615 11.3086C18.4615 11.1351 18.3841 10.9312 18.2552 10.8117C18.0021 10.5703 17.517 10.507 17.2662 10.8094Z" fill="#367971"/>
</svg>
