<svg width="24" height="24" viewBox="0 0 24 24" fill="none" xmlns="http://www.w3.org/2000/svg">
<g clip-path="url(#clip0_6738_2290)">
<path d="M22.6123 14.8101C22.2655 14.8101 21.9209 14.8101 21.5741 14.8101C20.7444 14.8101 19.9123 14.8101 19.0827 14.8101C18.0819 14.8101 17.0811 14.8101 16.0803 14.8101C15.2108 14.8101 14.3436 14.8101 13.4741 14.8101C13.0522 14.8101 12.628 14.7984 12.2084 14.8101C12.2014 14.8101 12.1967 14.8101 12.1897 14.8101C12.3913 15.1617 12.5952 15.5156 12.7967 15.8672C13.1506 15.1922 13.5045 14.5148 13.8584 13.8398C14.4186 12.7711 14.9788 11.7023 15.5389 10.6336C15.6678 10.3875 15.7967 10.1414 15.9256 9.89295C16.1694 9.42654 15.8694 8.83591 15.3186 8.83591C14.6577 8.83591 13.9967 8.83591 13.3381 8.83591C13.2444 8.83591 13.1506 8.83591 13.0569 8.83591C13.2584 9.18748 13.4623 9.54138 13.6639 9.89295C13.8069 9.62107 13.9522 9.34919 14.0952 9.07966C14.4397 8.4281 14.7866 7.77419 15.1311 7.12263C15.5506 6.33044 15.9702 5.53591 16.3897 4.74373C16.7506 4.06169 17.1116 3.37732 17.4748 2.69529C17.6483 2.36248 17.8358 2.03435 17.9998 1.69919C18.0022 1.69451 18.0045 1.68982 18.0069 1.68513C17.6014 1.68513 17.1983 1.68513 16.7928 1.68513C16.9358 1.95701 17.0811 2.22888 17.2241 2.49841C17.5686 3.14998 17.9155 3.80388 18.26 4.45545C18.6795 5.24763 19.0991 6.04216 19.5186 6.83435C19.8795 7.51638 20.2405 8.20076 20.6038 8.88279C20.7795 9.2156 20.9459 9.5531 21.1311 9.87888C21.1334 9.88357 21.1358 9.88826 21.1381 9.89295C21.3397 9.54138 21.5436 9.18748 21.7452 8.83591C21.0842 8.83591 20.4233 8.83591 19.7647 8.83591C19.6709 8.83591 19.5772 8.83591 19.4834 8.83591C18.9327 8.83591 18.6327 9.42888 18.8764 9.89295C19.2303 10.5679 19.5842 11.2453 19.9381 11.9203C20.4983 12.989 21.0584 14.0578 21.6186 15.1265C21.7475 15.3726 21.8764 15.6187 22.0053 15.8672C22.1764 16.1929 22.6592 16.3195 22.9663 16.1203C23.2991 15.907 23.4022 15.5062 23.2194 15.1594C22.8655 14.4844 22.5116 13.807 22.1577 13.132C21.5975 12.0633 21.0373 10.9945 20.4772 9.92576C20.3483 9.67966 20.2194 9.43357 20.0905 9.18513C19.8889 9.53669 19.685 9.8906 19.4834 10.2422C20.1444 10.2422 20.8053 10.2422 21.4639 10.2422C21.5577 10.2422 21.6514 10.2422 21.7452 10.2422C22.2959 10.2422 22.5983 9.64919 22.3522 9.18513C22.2092 8.91326 22.0639 8.64138 21.9209 8.37185C21.5764 7.72029 21.2295 7.06638 20.885 6.41482C20.4655 5.62263 20.0459 4.8281 19.6264 4.03591C19.2655 3.35388 18.9045 2.66951 18.5413 1.98748C18.3655 1.65466 18.1991 1.31716 18.0139 0.991382C18.0116 0.986695 18.0092 0.982007 18.0069 0.97732C17.7655 0.515601 17.0366 0.515601 16.7952 0.974976C16.6522 1.24685 16.5069 1.51873 16.3639 1.78826C16.0194 2.43982 15.6725 3.09373 15.328 3.74529C14.9084 4.53748 14.4889 5.33201 14.0694 6.12419C13.7084 6.80623 13.3475 7.4906 12.9842 8.17263C12.8084 8.50545 12.628 8.83591 12.4569 9.16873C12.4545 9.17341 12.4522 9.1781 12.4498 9.18279C12.2038 9.64919 12.5061 10.2398 13.0569 10.2398C13.7178 10.2398 14.3788 10.2398 15.0373 10.2398C15.1311 10.2398 15.2248 10.2398 15.3186 10.2398C15.117 9.88826 14.9131 9.53435 14.7116 9.18279C14.3577 9.85779 14.0038 10.5351 13.6498 11.2101C13.0897 12.2789 12.5295 13.3476 11.9694 14.4164C11.8405 14.6625 11.7116 14.9086 11.5827 15.157C11.3389 15.6234 11.6389 16.214 12.1897 16.214C12.5366 16.214 12.8811 16.214 13.228 16.214C14.0577 16.214 14.8897 16.214 15.7194 16.214C16.7202 16.214 17.7209 16.214 18.7217 16.214C19.5913 16.214 20.4584 16.214 21.328 16.214C21.7498 16.214 22.1717 16.2234 22.5936 16.214C22.6006 16.214 22.6053 16.214 22.6123 16.214C22.9803 16.214 23.3319 15.8906 23.3155 15.5109C23.2991 15.1312 23.0061 14.8101 22.6123 14.8101Z" fill="#367971"/>
<path d="M16.6992 15.5132C16.6992 16.3195 16.6992 17.1234 16.6992 17.9297C16.6992 19.214 16.6992 20.4984 16.6992 21.7828C16.6992 22.0781 16.6992 22.3734 16.6992 22.6711C16.6992 23.039 17.0227 23.3906 17.4023 23.3742C17.7844 23.3578 18.1055 23.0648 18.1055 22.6711C18.1055 21.8648 18.1055 21.0609 18.1055 20.2547C18.1055 18.9703 18.1055 17.6859 18.1055 16.4015C18.1055 16.1062 18.1055 15.8109 18.1055 15.5132C18.1055 15.1453 17.782 14.7937 17.4023 14.8101C17.0203 14.8265 16.6992 15.1195 16.6992 15.5132Z" fill="#367971"/>
<path d="M15.9886 23.3742C16.8113 23.3742 17.6363 23.3742 18.4589 23.3742C18.5761 23.3742 18.6933 23.3742 18.8128 23.3742C19.1808 23.3742 19.5324 23.0508 19.516 22.6711C19.4995 22.2891 19.2066 21.968 18.8128 21.968C17.9902 21.968 17.1652 21.968 16.3425 21.968C16.2253 21.968 16.1081 21.968 15.9886 21.968C15.6206 21.968 15.2691 22.2914 15.2855 22.6711C15.3019 23.0531 15.5949 23.3742 15.9886 23.3742ZM9.48236 17.3273C9.48236 17.9766 9.48236 18.6258 9.48236 19.275C9.48236 19.3781 9.48705 19.4836 9.47768 19.5891C9.48705 19.5258 9.49408 19.4648 9.50346 19.4016C9.49643 19.4555 9.48236 19.5047 9.46361 19.5539C9.48705 19.4977 9.51049 19.4414 9.53393 19.3852C9.51986 19.4133 9.5058 19.4391 9.49174 19.4672C9.43783 19.5727 9.60424 19.3336 9.52455 19.4203C9.44955 19.5023 9.67689 19.3313 9.57143 19.3875C9.5433 19.4016 9.51752 19.418 9.48939 19.4297C9.54564 19.4062 9.60189 19.3828 9.65814 19.3594C9.60893 19.3781 9.55971 19.3922 9.5058 19.3992C9.56908 19.3898 9.63002 19.3828 9.6933 19.3734C9.42611 19.3969 9.14955 19.3781 8.88002 19.3781C8.26361 19.3781 7.64721 19.3781 7.03314 19.3781C5.64799 19.3781 4.26517 19.3781 2.88002 19.3781C2.55189 19.3781 2.21205 19.4039 1.88392 19.3734C1.94721 19.3828 2.00814 19.3898 2.07142 19.3992C2.01752 19.3922 1.9683 19.3781 1.91908 19.3594C1.97533 19.3828 2.03158 19.4062 2.08783 19.4297C2.05971 19.4156 2.03392 19.4016 2.0058 19.3875C1.90033 19.3336 2.13939 19.5 2.05267 19.4203C1.97064 19.3453 2.14174 19.5727 2.08549 19.4672C2.07142 19.4391 2.05502 19.4133 2.0433 19.3852C2.06674 19.4414 2.09017 19.4977 2.11361 19.5539C2.09486 19.5047 2.0808 19.4555 2.07377 19.4016C2.08314 19.4648 2.09017 19.5258 2.09955 19.5891C2.07611 19.3266 2.09486 19.057 2.09486 18.7922C2.09486 18.3891 2.09486 17.9859 2.09486 17.5828C2.09486 17.4773 2.09017 17.3672 2.09955 17.2617C2.09017 17.325 2.08314 17.3859 2.07377 17.4492C2.0808 17.3953 2.09486 17.3461 2.11361 17.2969C2.09017 17.3531 2.06674 17.4094 2.0433 17.4656C2.05736 17.4375 2.07142 17.4117 2.08549 17.3836C2.13939 17.2781 1.97299 17.5172 2.05267 17.4305C2.12767 17.3484 1.90033 17.5195 2.0058 17.4633C2.03392 17.4492 2.05971 17.4328 2.08783 17.4211C2.03158 17.4445 1.97533 17.468 1.91908 17.4914C1.9683 17.4727 2.01752 17.4586 2.07142 17.4516C2.00814 17.4609 1.94721 17.468 1.88392 17.4773C2.15111 17.4539 2.42767 17.4727 2.69721 17.4727C3.31361 17.4727 3.93002 17.4727 4.54408 17.4727C5.92924 17.4727 7.31205 17.4727 8.69721 17.4727C9.02533 17.4727 9.36518 17.4469 9.6933 17.4773C9.63002 17.468 9.56908 17.4609 9.5058 17.4516C9.55971 17.4586 9.60893 17.4727 9.65814 17.4914C9.60189 17.468 9.54564 17.4445 9.48939 17.4211C9.51752 17.4352 9.5433 17.4492 9.57143 17.4633C9.67689 17.5172 9.43783 17.3508 9.52455 17.4305C9.60658 17.5055 9.43549 17.2781 9.49174 17.3836C9.5058 17.4117 9.52221 17.4375 9.53393 17.4656C9.51049 17.4094 9.48705 17.3531 9.46361 17.2969C9.48236 17.3461 9.49643 17.3953 9.50346 17.4492C9.49408 17.3859 9.48705 17.325 9.47768 17.2617C9.48002 17.2852 9.48236 17.3062 9.48236 17.3273C9.49408 17.6953 9.79877 18.0469 10.1855 18.0305C10.5581 18.0141 10.9003 17.7211 10.8886 17.3273C10.8675 16.6312 10.3261 16.0828 9.62768 16.0664C9.59252 16.0664 9.55502 16.0664 9.51986 16.0664C9.26674 16.0664 9.01361 16.0664 8.75814 16.0664C7.81361 16.0664 6.87142 16.0664 5.92689 16.0664C4.95424 16.0664 3.98158 16.0664 3.00892 16.0664C2.72064 16.0664 2.43236 16.0664 2.14408 16.0664C2.08314 16.0664 2.02221 16.0664 1.96127 16.0664C1.5183 16.0711 1.11986 16.2891 0.876112 16.6617C0.611268 17.0672 0.683924 17.6297 0.683924 18.0914C0.683924 18.5414 0.683924 18.9914 0.683924 19.4414C0.683924 19.8117 0.796424 20.1609 1.06596 20.4281C1.30971 20.6672 1.63783 20.7867 1.97767 20.7867C2.17455 20.7891 2.37142 20.7867 2.57064 20.7867C3.46361 20.7867 4.35892 20.7867 5.25189 20.7867C6.25736 20.7867 7.26283 20.7867 8.2683 20.7867C8.6058 20.7867 8.9433 20.7867 9.27846 20.7867C9.50111 20.7867 9.72377 20.7984 9.94408 20.7469C10.5089 20.6156 10.8792 20.0789 10.891 19.5164C10.8933 19.3828 10.891 19.2469 10.891 19.1133C10.891 18.6234 10.891 18.1313 10.891 17.6414C10.891 17.5359 10.891 17.4328 10.891 17.3273C10.891 16.9594 10.5675 16.6078 10.1878 16.6242C9.80346 16.6406 9.48236 16.9336 9.48236 17.3273Z" fill="#367971"/>
<path d="M3.8418 22.6711C3.8418 21.9141 3.8418 21.1594 3.8418 20.4024C3.8418 20.2946 3.8418 20.1891 3.8418 20.0813C3.60742 20.3157 3.37305 20.55 3.13867 20.7844C3.73398 20.7844 4.32695 20.7844 4.92227 20.7844C5.87383 20.7844 6.82773 20.7844 7.7793 20.7844C7.99727 20.7844 8.21523 20.7844 8.4332 20.7844C8.19883 20.55 7.96445 20.3157 7.73008 20.0813C7.73008 20.8383 7.73008 21.593 7.73008 22.35C7.73008 22.4579 7.73008 22.5633 7.73008 22.6711C7.73008 23.0391 8.05352 23.3907 8.4332 23.3743C8.81523 23.3579 9.13633 23.0649 9.13633 22.6711C9.13633 21.9141 9.13633 21.1594 9.13633 20.4024C9.13633 20.2946 9.13633 20.1891 9.13633 20.0813C9.13633 19.7016 8.81523 19.3782 8.4332 19.3782C7.83789 19.3782 7.24492 19.3782 6.64961 19.3782C5.69805 19.3782 4.74414 19.3782 3.79258 19.3782C3.57461 19.3782 3.35664 19.3782 3.13867 19.3782C2.75898 19.3782 2.43555 19.6993 2.43555 20.0813C2.43555 20.8383 2.43555 21.593 2.43555 22.35C2.43555 22.4579 2.43555 22.5633 2.43555 22.6711C2.43555 23.0391 2.75898 23.3907 3.13867 23.3743C3.5207 23.3579 3.8418 23.0649 3.8418 22.6711Z" fill="#367971"/>
</g>
<defs>
<clipPath id="clip0_6738_2290">
<rect width="24" height="24" fill="white"/>
</clipPath>
</defs>
</svg>
