<svg width="24" height="24" viewBox="0 0 24 24" fill="none" xmlns="http://www.w3.org/2000/svg">
<path d="M22.8515 20.9696C22.3711 20.9696 21.8929 20.9696 21.4125 20.9696C21.0304 20.9696 20.6484 20.9696 20.2664 20.9696C19.5234 20.9696 18.7828 20.9696 18.0398 20.9696C17.2922 20.9696 16.5422 20.9696 15.7945 20.9696C15.4054 20.9696 15.0164 20.9625 14.6273 20.9696C14.6203 20.9696 14.6156 20.9696 14.6086 20.9696C14.2406 20.9696 13.889 21.293 13.9054 21.6727C13.9218 22.0547 14.2148 22.3758 14.6086 22.3758C14.9273 22.3758 15.2461 22.3758 15.5648 22.3758C16.289 22.3758 17.0109 22.3758 17.7351 22.3758C18.4968 22.3758 19.2586 22.3758 20.0203 22.3758C20.4679 22.3758 20.9156 22.3758 21.3632 22.3758C21.832 22.3758 22.3007 22.3758 22.7718 22.3758C22.7976 22.3758 22.8234 22.3758 22.8492 22.3758C23.2172 22.3758 23.5687 22.0524 23.5523 21.6727C23.5382 21.293 23.2453 20.9696 22.8515 20.9696ZM9.38903 20.9696C9.06793 20.9696 8.74684 20.9696 8.42575 20.9696C7.70153 20.9696 6.97497 20.9696 6.25075 20.9696C5.49137 20.9696 4.732 20.9696 3.97262 20.9696C3.53669 20.9696 3.10309 20.9696 2.66715 20.9696C2.18434 20.9696 1.70387 20.9696 1.22106 20.9696C1.19528 20.9696 1.17184 20.9696 1.14606 20.9696C0.778092 20.9696 0.426529 21.293 0.442935 21.6727C0.459342 22.0547 0.75231 22.3758 1.14606 22.3758C1.64059 22.3758 2.13278 22.3758 2.62731 22.3758C2.99528 22.3758 3.36325 22.3758 3.73122 22.3758C4.4695 22.3758 5.20778 22.3758 5.94606 22.3758C6.69606 22.3758 7.44606 22.3758 8.19606 22.3758C8.58747 22.3758 8.97887 22.3828 9.37028 22.3758C9.37731 22.3758 9.382 22.3758 9.38903 22.3758C9.757 22.3758 10.1086 22.0524 10.0922 21.6727C10.0757 21.293 9.78512 20.9696 9.38903 20.9696Z" fill="#367971"/>
<path d="M13.8587 1.97111C13.7485 2.14455 13.6384 2.31564 13.5282 2.48908C13.2282 2.95783 12.9306 3.42892 12.6306 3.89767C12.1876 4.59142 11.7446 5.28752 11.304 5.98127C10.7649 6.8297 10.2235 7.6758 9.68447 8.52423C9.09619 9.45002 8.50556 10.3735 7.91728 11.2992C7.31962 12.2367 6.72431 13.1719 6.12665 14.1094C5.57118 14.9836 5.01337 15.8555 4.4579 16.7297C3.98915 17.4656 3.5204 18.2016 3.05165 18.9375C2.71181 19.4695 2.37197 20.0016 2.03447 20.536C1.87509 20.7867 1.71103 21.0352 1.55634 21.286C1.54931 21.2977 1.54228 21.307 1.53525 21.3188C1.33837 21.6305 1.46025 22.1086 1.78837 22.2797C2.13525 22.4625 2.53837 22.3594 2.74931 22.0266C2.85947 21.8531 2.96962 21.682 3.07978 21.5086C3.37978 21.0399 3.67743 20.5688 3.97743 20.1C4.4204 19.4063 4.86337 18.7102 5.304 18.0164C5.84306 17.168 6.38447 16.3219 6.92353 15.4735C7.51181 14.5477 8.10243 13.6242 8.69072 12.6985C9.28837 11.761 9.88369 10.8258 10.4813 9.8883C11.0368 9.01408 11.5946 8.1422 12.1501 7.26798C12.6188 6.53205 13.0876 5.79611 13.5563 5.06017C13.8962 4.52814 14.236 3.99611 14.5735 3.46173C14.7329 3.21095 14.897 2.96252 15.0517 2.71173C15.0587 2.70002 15.0657 2.69064 15.0727 2.67892C15.2696 2.3672 15.1477 1.88908 14.8196 1.71798C14.4727 1.53517 14.0696 1.64064 13.8587 1.97111Z" fill="#367971"/>
<path d="M8.97702 2.6812C9.08717 2.85464 9.19733 3.02574 9.30749 3.19917C9.60749 3.66792 9.90514 4.13902 10.2051 4.60777C10.6481 5.30152 11.0911 5.99761 11.5317 6.69136C12.0708 7.5398 12.6122 8.38589 13.1512 9.23433C13.7395 10.1601 14.3301 11.0835 14.9184 12.0093C15.5161 12.9468 16.1114 13.882 16.709 14.8195C17.2645 15.6937 17.8223 16.5656 18.3778 17.4398C18.8465 18.1757 19.3153 18.9117 19.784 19.6476C20.1239 20.1796 20.4637 20.7117 20.8012 21.246C20.9606 21.4968 21.1176 21.7476 21.2794 21.996C21.2864 22.0078 21.2934 22.0171 21.3005 22.0289C21.4973 22.3382 21.9356 22.4929 22.2614 22.282C22.5708 22.0828 22.7255 21.6515 22.5145 21.321C22.4044 21.1476 22.2942 20.9765 22.184 20.8031C21.884 20.3343 21.5864 19.8632 21.2864 19.3945C20.8434 18.7007 20.4005 18.0046 19.9598 17.3109C19.4208 16.4625 18.8794 15.6164 18.3403 14.7679C17.752 13.8421 17.1614 12.9187 16.5731 11.9929C15.9755 11.0554 15.3801 10.1203 14.7825 9.18277C14.227 8.30855 13.6692 7.43667 13.1137 6.56245C12.645 5.82652 12.1762 5.09058 11.7075 4.35464C11.3676 3.82261 11.0278 3.29058 10.6903 2.7562C10.5309 2.50542 10.3739 2.25464 10.2122 2.0062C10.2051 1.99449 10.1981 1.98511 10.1911 1.97339C9.99421 1.66402 9.55592 1.50933 9.23014 1.72027C8.91842 1.91949 8.76608 2.35074 8.97702 2.6812ZM14.1848 17.0578C14.1848 17.5781 14.1848 18.0984 14.1848 18.6164C14.1848 19.4437 14.1848 20.2734 14.1848 21.1007C14.1848 21.2906 14.1848 21.4804 14.1848 21.6703C14.4192 21.4359 14.6536 21.2015 14.888 20.9671C14.2364 20.9671 13.5848 20.9671 12.9333 20.9671C11.895 20.9671 10.859 20.9671 9.82077 20.9671C9.58405 20.9671 9.34733 20.9671 9.11061 20.9671C9.34499 21.2015 9.57936 21.4359 9.81374 21.6703C9.81374 21.1171 9.81374 20.564 9.81374 20.0109C9.81374 19.1695 9.81374 18.3304 9.81374 17.489C9.81374 17.2148 9.80436 16.9382 9.83952 16.6664C9.83014 16.7296 9.82311 16.7906 9.81374 16.8539C9.84889 16.6031 9.91452 16.3593 10.013 16.125C9.98952 16.1812 9.96608 16.2375 9.94264 16.2937C10.013 16.1273 10.0973 15.9679 10.1981 15.8179C10.2239 15.7804 10.2497 15.7429 10.2778 15.7054C10.3317 15.6281 10.2239 15.7734 10.2239 15.7734C10.2239 15.7617 10.2637 15.7242 10.2731 15.7148C10.3317 15.6445 10.3926 15.5765 10.4583 15.5109C10.5192 15.45 10.5848 15.3914 10.6505 15.3351C10.6692 15.3187 10.6903 15.3023 10.709 15.2859C10.77 15.2343 10.5731 15.3843 10.6387 15.3398C10.6762 15.314 10.7137 15.2859 10.7512 15.2601C10.9059 15.157 11.07 15.0703 11.2411 14.9976C11.1848 15.021 11.1286 15.0445 11.0723 15.0679C11.3067 14.9718 11.5505 14.9062 11.8012 14.871C11.738 14.8804 11.677 14.8875 11.6137 14.8968C11.8692 14.864 12.127 14.864 12.3825 14.8945C12.3192 14.8851 12.2583 14.8781 12.195 14.8687C12.4505 14.9039 12.6989 14.9718 12.938 15.0703C12.8817 15.0468 12.8255 15.0234 12.7692 15C12.9356 15.0703 13.095 15.157 13.245 15.2554C13.2848 15.2812 13.3223 15.3093 13.3622 15.3375C13.4606 15.4078 13.2192 15.2203 13.3598 15.3375C13.4231 15.3914 13.4864 15.4476 13.545 15.5062C13.6036 15.5648 13.6598 15.6257 13.7137 15.6914C13.8333 15.832 13.6458 15.5906 13.7137 15.689C13.7419 15.7289 13.77 15.7664 13.7958 15.8062C13.8965 15.9562 13.9809 16.1156 14.0512 16.282C14.0278 16.2257 14.0044 16.1695 13.9809 16.1132C14.0794 16.3523 14.1473 16.6007 14.1825 16.8585C14.1731 16.7953 14.1661 16.7343 14.1567 16.671C14.1755 16.8046 14.1848 16.9312 14.1848 17.0578C14.1872 17.4257 14.5059 17.7773 14.888 17.7609C15.2676 17.7445 15.5934 17.4515 15.5911 17.0578C15.5864 16.2 15.2817 15.4078 14.745 14.7445C14.2692 14.1539 13.5497 13.7203 12.809 13.5585C12.0215 13.3875 11.2364 13.4765 10.5028 13.8C9.88405 14.0718 9.36608 14.5429 8.99108 15.0984C8.60671 15.6703 8.40983 16.371 8.40749 17.0601C8.40749 17.2101 8.40749 17.3578 8.40749 17.5078C8.40749 18.2953 8.40749 19.0804 8.40749 19.8679C8.40749 20.4609 8.39811 21.0539 8.40749 21.6468C8.40749 21.6562 8.40749 21.6679 8.40749 21.6773C8.40749 22.057 8.72858 22.3804 9.11061 22.3804C9.76217 22.3804 10.4137 22.3804 11.0653 22.3804C12.1036 22.3804 13.1395 22.3804 14.1778 22.3804C14.4145 22.3804 14.6512 22.3804 14.888 22.3804C15.2676 22.3804 15.5911 22.0593 15.5911 21.6773C15.5911 21.157 15.5911 20.6367 15.5911 20.1187C15.5911 19.2914 15.5911 18.4617 15.5911 17.6343C15.5911 17.4445 15.5911 17.2546 15.5911 17.0648C15.5911 16.6968 15.2676 16.3453 14.888 16.3617C14.5083 16.3734 14.1848 16.664 14.1848 17.0578Z" fill="#367971"/>
</svg>
