<svg width="24" height="24" viewBox="0 0 24 24" fill="none" xmlns="http://www.w3.org/2000/svg">
<path fill-rule="evenodd" clip-rule="evenodd" d="M8.25 1.5C8.66423 1.5 9 1.83579 9 2.25V3H12.75C13.1642 3 13.5 3.33579 13.5 3.75C13.5 4.16421 13.1642 4.5 12.75 4.5H9V5.25C9 5.66421 8.66423 6 8.25 6C7.83577 6 7.5 5.66421 7.5 5.25V4.5H6C4.34314 4.5 3 5.84314 3 7.5V18C3 19.6568 4.34314 21 6 21H18C19.6568 21 21 19.6568 21 18V7.5C21 5.84314 19.6568 4.5 18 4.5H16.5V5.25C16.5 5.66421 16.1642 6 15.75 6C15.3358 6 15 5.66421 15 5.25V2.25C15 1.83579 15.3358 1.5 15.75 1.5C16.1642 1.5 16.5 1.83579 16.5 2.25V3H18C20.4853 3 22.5 5.01472 22.5 7.5V18C22.5 20.4853 20.4853 22.5 18 22.5H6C3.51472 22.5 1.5 20.4853 1.5 18V7.5C1.5 5.01472 3.51472 3 6 3H7.5V2.25C7.5 1.83579 7.83577 1.5 8.25 1.5ZM5.25 9C5.25 8.58577 5.58579 8.25 6 8.25H18C18.4142 8.25 18.75 8.58577 18.75 9C18.75 9.41423 18.4142 9.75 18 9.75H6C5.58579 9.75 5.25 9.41423 5.25 9ZM14.7803 12.2197C14.4874 11.9268 14.0126 11.9268 13.7197 12.2197C13.4268 12.5126 13.4268 12.9874 13.7197 13.2803L14.6894 14.25H7.5C7.08579 14.25 6.75 14.5858 6.75 15C6.75 15.4142 7.08579 15.75 7.5 15.75H14.6894L13.7197 16.7197C13.4268 17.0126 13.4268 17.4874 13.7197 17.7803C14.0126 18.0732 14.4874 18.0732 14.7803 17.7803L17.0303 15.5303C17.3232 15.2374 17.3232 14.7626 17.0303 14.4697L14.7803 12.2197Z" fill="#367971"/>
</svg>
