<svg width="24" height="24" viewBox="0 0 24 24" fill="none" xmlns="http://www.w3.org/2000/svg">
<path d="M18.8789 15.5156C18.8789 15.614 18.8719 15.7101 18.8578 15.8086C18.8672 15.7453 18.8742 15.6843 18.8836 15.6211C18.8578 15.7992 18.8086 15.9726 18.7406 16.139C18.7641 16.0828 18.7875 16.0265 18.8109 15.9703C18.7594 16.0898 18.6984 16.2046 18.6258 16.3125C18.6164 16.3265 18.5789 16.3992 18.5625 16.4015C18.5836 16.3992 18.6891 16.2468 18.5953 16.357C18.5555 16.4039 18.5133 16.4507 18.4711 16.4929C18.4266 16.5375 18.382 16.5773 18.3352 16.6171C18.2906 16.6546 18.2016 16.6992 18.3797 16.5843C18.3539 16.6007 18.3305 16.6218 18.3047 16.6382C18.1922 16.7132 18.075 16.7765 17.9508 16.8304C18.007 16.807 18.0633 16.7836 18.1195 16.7601C17.9531 16.8304 17.7797 16.8773 17.6016 16.9031C17.6648 16.8937 17.7258 16.8867 17.7891 16.8773C17.6133 16.9007 17.4375 16.8984 17.2594 16.8984C16.9992 16.8984 16.7414 16.8984 16.4813 16.8984C15.593 16.8984 14.707 16.8984 13.8187 16.8984C12.7336 16.8984 11.6461 16.8984 10.5609 16.8984C9.62813 16.8984 8.69531 16.8984 7.76484 16.8984C7.33828 16.8984 6.91406 16.9007 6.4875 16.8984C6.39844 16.8984 6.30938 16.8914 6.22266 16.882C6.28594 16.8914 6.34687 16.8984 6.41016 16.9078C6.22031 16.882 6.0375 16.8328 5.86172 16.7578C5.91797 16.7812 5.97422 16.8046 6.03047 16.8281C5.91094 16.7765 5.79609 16.7156 5.68828 16.6429C5.67187 16.6336 5.60391 16.5984 5.59922 16.5796C5.60391 16.6007 5.75391 16.7039 5.64375 16.6125C5.59688 16.5726 5.55 16.5304 5.50781 16.4882C5.46328 16.4437 5.42109 16.3992 5.38359 16.3523C5.34609 16.3078 5.29922 16.2187 5.41641 16.3968C5.4 16.3711 5.37891 16.3476 5.3625 16.3218C5.2875 16.2093 5.22187 16.0921 5.16797 15.9679C5.19141 16.0242 5.21484 16.0804 5.23828 16.1367C5.16562 15.9609 5.11406 15.7781 5.08828 15.5882C5.09766 15.6515 5.10469 15.7125 5.11406 15.7757C5.08594 15.539 5.09766 15.2953 5.09766 15.0562C5.09766 14.6203 5.09766 14.1843 5.09766 13.7484C5.09766 12.7242 5.09766 11.7023 5.09766 10.6781C5.09766 10.439 5.09766 10.2 5.09766 9.96324C4.86328 10.1976 4.62891 10.432 4.39453 10.6664C4.89844 10.6664 5.40469 10.6664 5.90859 10.6664C7.12031 10.6664 8.33203 10.6664 9.54375 10.6664C11.0016 10.6664 12.457 10.6664 13.9148 10.6664C15.1805 10.6664 16.4484 10.6664 17.7141 10.6664C18.3281 10.6664 18.9445 10.6804 19.5563 10.6664C19.5656 10.6664 19.5727 10.6664 19.582 10.6664C19.3477 10.432 19.1133 10.1976 18.8789 9.96324C18.8789 10.589 18.8789 11.2171 18.8789 11.8429C18.8789 12.8414 18.8789 13.8375 18.8789 14.8359C18.8789 15.0609 18.8789 15.2882 18.8789 15.5156C18.8789 15.8836 19.2023 16.2351 19.582 16.2187C19.9641 16.2023 20.2852 15.9093 20.2852 15.5156C20.2852 14.8898 20.2852 14.2617 20.2852 13.6359C20.2852 12.6375 20.2852 11.6414 20.2852 10.6429C20.2852 10.4156 20.2852 10.1882 20.2852 9.9609C20.2852 9.58121 19.9641 9.25777 19.582 9.25777C19.0781 9.25777 18.5719 9.25777 18.068 9.25777C16.8563 9.25777 15.6445 9.25777 14.4328 9.25777C12.975 9.25777 11.5195 9.25777 10.0617 9.25777C8.79609 9.25777 7.52813 9.25777 6.2625 9.25777C5.64844 9.25777 5.03438 9.24605 4.42031 9.25777C4.41094 9.25777 4.40391 9.25777 4.39453 9.25777C4.01484 9.25777 3.69141 9.57887 3.69141 9.9609C3.69141 10.4859 3.69141 11.0109 3.69141 11.5336C3.69141 12.4664 3.69141 13.3992 3.69141 14.3296C3.69141 14.6507 3.69141 14.9695 3.69141 15.2906C3.69141 15.6211 3.70547 15.9515 3.79688 16.2726C4.01719 17.0367 4.58437 17.7234 5.31797 18.0421C5.71641 18.2156 6.11953 18.3046 6.55547 18.3046C7.00781 18.3046 7.45781 18.3046 7.91016 18.3046C8.74453 18.3046 9.58125 18.3046 10.4156 18.3046C11.3812 18.3046 12.3469 18.3046 13.3148 18.3046C14.168 18.3046 15.0234 18.3046 15.8766 18.3046C16.3734 18.3046 16.8703 18.3046 17.3672 18.3046C17.6461 18.3046 17.925 18.2859 18.1969 18.2156C18.9586 18.0211 19.6594 17.4656 19.9945 16.7507C20.1797 16.3593 20.2828 15.9515 20.2875 15.5156C20.2898 15.1476 19.9617 14.7961 19.5844 14.8125C19.1977 14.8289 18.8813 15.1218 18.8789 15.5156Z" fill="#367971"/>
<path d="M18.8788 4.05466C18.8788 4.72029 18.8788 5.38591 18.8788 6.05154C18.8788 7.11091 18.8788 8.17263 18.8788 9.23201C18.8788 9.47576 18.8788 9.71716 18.8788 9.96091C19.1132 9.72654 19.3476 9.49216 19.5819 9.25779C19.078 9.25779 18.5718 9.25779 18.0679 9.25779C16.8561 9.25779 15.6444 9.25779 14.4327 9.25779C12.9749 9.25779 11.5194 9.25779 10.0616 9.25779C8.79599 9.25779 7.52802 9.25779 6.2624 9.25779C5.64833 9.25779 5.03193 9.24373 4.42021 9.25779C4.41083 9.25779 4.4038 9.25779 4.39443 9.25779C4.6288 9.49216 4.86318 9.72654 5.09755 9.96091C5.09755 9.26482 5.09755 8.57107 5.09755 7.87498C5.09755 6.80388 5.09755 5.73044 5.09755 4.65935C5.09755 4.35232 5.08115 4.03591 5.11865 3.72888C5.10927 3.79216 5.10224 3.8531 5.09287 3.91638C5.12333 3.69607 5.18193 3.48513 5.2663 3.28123C5.24287 3.33748 5.21943 3.39373 5.19599 3.44998C5.25693 3.30701 5.32958 3.17107 5.4163 3.04216C5.43974 3.00701 5.46552 2.97654 5.48662 2.94138C5.35771 3.13826 5.43271 3.00935 5.47255 2.96248C5.52177 2.90388 5.57333 2.84763 5.62958 2.79373C5.68349 2.73982 5.74208 2.6906 5.80068 2.63904C5.88974 2.56404 5.6413 2.75623 5.77958 2.65544C5.80771 2.63435 5.83818 2.61326 5.86865 2.59451C6.00224 2.50544 6.14521 2.43044 6.29287 2.36951C6.23662 2.39294 6.18037 2.41638 6.12412 2.43982C6.33037 2.35544 6.54365 2.29919 6.76396 2.26873C6.70068 2.2781 6.63974 2.28513 6.57646 2.29451C6.98662 2.24294 7.41552 2.27341 7.82802 2.27341C8.65302 2.27341 9.48037 2.27341 10.3054 2.27341C11.3132 2.27341 12.321 2.27341 13.3311 2.27341C14.1983 2.27341 15.0632 2.27341 15.9304 2.27341C16.3171 2.27341 16.7061 2.27107 17.0929 2.27341C17.203 2.27341 17.3108 2.28044 17.4186 2.29451C17.3554 2.28513 17.2944 2.2781 17.2311 2.26873C17.4515 2.29919 17.6624 2.35544 17.8663 2.43982C17.8101 2.41638 17.7538 2.39294 17.6976 2.36951C17.8405 2.43044 17.9765 2.50076 18.1054 2.58748C18.1405 2.61091 18.1733 2.63435 18.2061 2.65779C18.3022 2.72576 18.0515 2.53123 18.1851 2.64138C18.2436 2.6906 18.2999 2.74216 18.3538 2.79607C18.4077 2.84998 18.4593 2.90623 18.5085 2.96482C18.6186 3.09607 18.4265 2.84763 18.4921 2.94373C18.5132 2.97185 18.5343 3.00232 18.553 3.03044C18.6421 3.16404 18.7171 3.30466 18.778 3.44998C18.7546 3.39373 18.7311 3.33748 18.7077 3.28123C18.7921 3.48513 18.8483 3.69841 18.8788 3.91638C18.8694 3.8531 18.8624 3.79216 18.853 3.72888C18.8718 3.83904 18.8788 3.94685 18.8788 4.05466C18.8811 4.42263 19.1999 4.77419 19.5819 4.75779C19.9616 4.74138 20.2874 4.44841 20.2851 4.05466C20.2804 3.23669 19.9663 2.45154 19.4038 1.85623C18.8413 1.25857 18.0561 0.921069 17.2429 0.87185C16.8866 0.850756 16.5257 0.867163 16.1671 0.867163C15.3772 0.867163 14.5897 0.867163 13.7999 0.867163C12.8296 0.867163 11.8616 0.867163 10.8913 0.867163C10.0335 0.867163 9.17333 0.867163 8.31552 0.867163C7.85849 0.867163 7.4038 0.867163 6.94677 0.867163C6.43115 0.867163 5.94599 0.982006 5.47958 1.19998C4.74599 1.54216 4.20458 2.18435 3.90224 2.92263C3.63505 3.57654 3.68662 4.29607 3.68662 4.98748C3.68662 5.90857 3.68662 6.82966 3.68662 7.75076C3.68662 8.44919 3.68662 9.14998 3.68662 9.84841C3.68662 9.88591 3.68662 9.92341 3.68662 9.96091C3.68662 10.3406 4.00771 10.664 4.38974 10.664C4.89365 10.664 5.3999 10.664 5.9038 10.664C7.11552 10.664 8.32724 10.664 9.53896 10.664C10.9968 10.664 12.4522 10.664 13.9101 10.664C15.1757 10.664 16.4436 10.664 17.7093 10.664C18.3233 10.664 18.9374 10.6758 19.5515 10.664C19.5608 10.664 19.5679 10.664 19.5772 10.664C19.9569 10.664 20.2804 10.3429 20.2804 9.96091C20.2804 9.29529 20.2804 8.62966 20.2804 7.96404C20.2804 6.90466 20.2804 5.84294 20.2804 4.78357C20.2804 4.53982 20.2804 4.29841 20.2804 4.05466C20.2804 3.68669 19.9569 3.33513 19.5772 3.35154C19.1999 3.36794 18.8788 3.66091 18.8788 4.05466ZM19.4296 19.6172C18.9351 19.6172 18.4405 19.6172 17.946 19.6172C16.7601 19.6172 15.5741 19.6172 14.3858 19.6172C12.9585 19.6172 11.5335 19.6172 10.1061 19.6172C8.8663 19.6172 7.6288 19.6172 6.38896 19.6172C5.7913 19.6172 5.1913 19.6031 4.59365 19.6172C4.58427 19.6172 4.57724 19.6172 4.56787 19.6172C4.73427 20.0179 4.89833 20.4164 5.06474 20.8172C5.72568 20.0226 6.38662 19.2304 7.0499 18.4359C7.14365 18.3234 7.2374 18.2109 7.33115 18.0984C7.16474 18.1664 7.00068 18.2367 6.83427 18.3047C7.17646 18.3047 7.51865 18.3047 7.86083 18.3047C8.68349 18.3047 9.5038 18.3047 10.3265 18.3047C11.3202 18.3047 12.3163 18.3047 13.3101 18.3047C14.1702 18.3047 15.0304 18.3047 15.8905 18.3047C16.3077 18.3047 16.7272 18.3164 17.1444 18.3047C17.1515 18.3047 17.1561 18.3047 17.1632 18.3047C16.9968 18.2367 16.8327 18.1664 16.6663 18.0984C17.3272 18.8929 17.9882 19.6851 18.6515 20.4797C18.7452 20.5922 18.839 20.7047 18.9327 20.8172C19.0429 20.9484 19.2655 21.0234 19.4296 21.0234C19.603 21.0234 19.8069 20.9461 19.9265 20.8172C20.0483 20.6836 20.1397 20.5078 20.1327 20.3203C20.1233 20.1234 20.053 19.9734 19.9265 19.8234C19.5679 19.3945 19.2116 18.9656 18.853 18.5367C18.5976 18.2297 18.3421 17.925 18.0866 17.6179C17.9483 17.4515 17.8171 17.2734 17.6671 17.1164C17.3976 16.8281 16.9007 16.9008 16.5421 16.9008C15.9444 16.9008 15.3468 16.9008 14.7468 16.9008C13.9358 16.9008 13.1249 16.9008 12.314 16.9008C11.4796 16.9008 10.6452 16.9008 9.81083 16.9008C9.14052 16.9008 8.47255 16.9008 7.80224 16.9008C7.48583 16.9008 7.16708 16.8937 6.85068 16.9008C6.50849 16.9078 6.36552 17.0719 6.18271 17.2898C5.96708 17.55 5.75146 17.8078 5.53583 18.0679C5.07646 18.6187 4.61708 19.1695 4.16005 19.7203C4.12958 19.7554 4.10146 19.7906 4.07099 19.8258C3.88583 20.0484 3.80849 20.3133 3.92568 20.5945C4.03583 20.8453 4.28896 21.0234 4.57021 21.0234C5.06474 21.0234 5.55927 21.0234 6.0538 21.0234C7.23974 21.0234 8.42568 21.0234 9.61396 21.0234C11.0413 21.0234 12.4663 21.0234 13.8936 21.0234C15.1335 21.0234 16.371 21.0234 17.6108 21.0234C18.2085 21.0234 18.8085 21.0328 19.4061 21.0234C19.4155 21.0234 19.4226 21.0234 19.4319 21.0234C19.7999 21.0234 20.1515 20.7 20.1351 20.3203C20.1163 19.9383 19.8233 19.6172 19.4296 19.6172Z" fill="#367971"/>
<path d="M3.30937 22.9265C3.825 22.3078 4.34062 21.689 4.85625 21.0703C4.92656 20.9859 4.99687 20.9015 5.06719 20.8171C4.90078 20.8851 4.73672 20.9554 4.57031 21.0234C5.06484 21.0234 5.55937 21.0234 6.05391 21.0234C7.23984 21.0234 8.42578 21.0234 9.61406 21.0234C11.0414 21.0234 12.4664 21.0234 13.8937 21.0234C15.1336 21.0234 16.3711 21.0234 17.6109 21.0234C18.2086 21.0234 18.8086 21.0375 19.4062 21.0234C19.4156 21.0234 19.4227 21.0234 19.432 21.0234C19.2656 20.9554 19.1016 20.8851 18.9352 20.8171C19.4484 21.4289 19.9594 22.0453 20.4703 22.6593C20.5453 22.7484 20.618 22.8375 20.693 22.9265C20.8031 23.0578 21.0258 23.1328 21.1898 23.1328C21.3633 23.1328 21.5672 23.0554 21.6867 22.9265C21.8086 22.7929 21.9 22.6171 21.893 22.4296C21.8836 22.2328 21.8133 22.0828 21.6867 21.9328C21.2086 21.3586 20.7281 20.782 20.25 20.2078C20.018 19.9312 19.8375 19.6289 19.425 19.6171C19.3383 19.6148 19.2492 19.6171 19.1625 19.6171C18.6656 19.6171 18.1711 19.6171 17.6742 19.6171C16.8703 19.6171 16.0664 19.6171 15.2625 19.6171C14.2969 19.6171 13.3312 19.6171 12.3656 19.6171C11.3812 19.6171 10.3992 19.6171 9.41484 19.6171C8.55938 19.6171 7.70156 19.6171 6.84609 19.6171C6.2625 19.6171 5.67891 19.6171 5.09531 19.6171C4.95 19.6171 4.80703 19.6171 4.66172 19.6171C4.63359 19.6171 4.60547 19.6171 4.57969 19.6171C4.36172 19.6265 4.16484 19.7179 4.02656 19.8843C3.50625 20.5101 2.98594 21.1336 2.46562 21.7593C2.41641 21.8179 2.36953 21.8765 2.32031 21.9328C2.19375 22.0781 2.10938 22.2328 2.10938 22.4296C2.10938 22.6031 2.18672 22.807 2.31563 22.9265C2.57578 23.1656 3.05859 23.2289 3.30937 22.9265ZM18.8789 4.05465C18.8789 4.72027 18.8789 5.3859 18.8789 6.05152C18.8789 7.1109 18.8789 8.17262 18.8789 9.23199C18.8789 9.47574 18.8789 9.71715 18.8789 9.9609C19.1133 9.72652 19.3477 9.49215 19.582 9.25777C19.0781 9.25777 18.5719 9.25777 18.068 9.25777C16.8563 9.25777 15.6445 9.25777 14.4328 9.25777C12.975 9.25777 11.5195 9.25777 10.0617 9.25777C8.79609 9.25777 7.52813 9.25777 6.2625 9.25777C5.64844 9.25777 5.03203 9.24371 4.42031 9.25777C4.41094 9.25777 4.40391 9.25777 4.39453 9.25777C4.62891 9.49215 4.86328 9.72652 5.09766 9.9609C5.09766 9.29527 5.09766 8.62965 5.09766 7.96402C5.09766 6.90465 5.09766 5.84293 5.09766 4.78355C5.09766 4.5398 5.09766 4.2984 5.09766 4.05465C4.86328 4.28902 4.62891 4.5234 4.39453 4.75777C4.89844 4.75777 5.40469 4.75777 5.90859 4.75777C7.12031 4.75777 8.33203 4.75777 9.54375 4.75777C11.0016 4.75777 12.457 4.75777 13.9148 4.75777C15.1805 4.75777 16.4484 4.75777 17.7141 4.75777C18.3281 4.75777 18.9422 4.76949 19.5563 4.75777C19.5656 4.75777 19.5727 4.75777 19.582 4.75777C19.95 4.75777 20.3016 4.43433 20.2852 4.05465C20.2687 3.67262 19.9758 3.35152 19.582 3.35152C19.0781 3.35152 18.5719 3.35152 18.068 3.35152C16.8563 3.35152 15.6445 3.35152 14.4328 3.35152C12.975 3.35152 11.5195 3.35152 10.0617 3.35152C8.79609 3.35152 7.52813 3.35152 6.2625 3.35152C5.64844 3.35152 5.03438 3.3398 4.42031 3.35152C4.41094 3.35152 4.40391 3.35152 4.39453 3.35152C4.01484 3.35152 3.69141 3.67262 3.69141 4.05465C3.69141 4.72027 3.69141 5.3859 3.69141 6.05152C3.69141 7.1109 3.69141 8.17262 3.69141 9.23199C3.69141 9.47574 3.69141 9.71715 3.69141 9.9609C3.69141 10.3406 4.0125 10.664 4.39453 10.664C4.89844 10.664 5.40469 10.664 5.90859 10.664C7.12031 10.664 8.33203 10.664 9.54375 10.664C11.0016 10.664 12.457 10.664 13.9148 10.664C15.1805 10.664 16.4484 10.664 17.7141 10.664C18.3281 10.664 18.9422 10.6757 19.5563 10.664C19.5656 10.664 19.5727 10.664 19.582 10.664C19.9617 10.664 20.2852 10.3429 20.2852 9.9609C20.2852 9.29527 20.2852 8.62965 20.2852 7.96402C20.2852 6.90465 20.2852 5.84293 20.2852 4.78355C20.2852 4.5398 20.2852 4.2984 20.2852 4.05465C20.2852 3.68668 19.9617 3.33512 19.582 3.35152C19.2 3.36793 18.8789 3.6609 18.8789 4.05465Z" fill="#367971"/>
<path d="M11.2849 4.05463C11.2849 4.71791 11.2849 5.38354 11.2849 6.04682C11.2849 7.10385 11.2849 8.16322 11.2849 9.22025C11.2849 9.464 11.2849 9.70541 11.2849 9.94916C11.2849 10.3171 11.6084 10.6687 11.988 10.6523C12.3701 10.6359 12.6912 10.3429 12.6912 9.94916C12.6912 9.28588 12.6912 8.62025 12.6912 7.95697C12.6912 6.89994 12.6912 5.84057 12.6912 4.78354C12.6912 4.53979 12.6912 4.29838 12.6912 4.05463C12.6912 3.68666 12.3677 3.3351 11.988 3.3515C11.606 3.36791 11.2849 3.66088 11.2849 4.05463ZM8.83571 13.6992C8.83571 13.7531 8.83102 13.807 8.82633 13.8609C8.83571 13.7976 8.84274 13.7367 8.85211 13.6734C8.83571 13.7882 8.80758 13.8984 8.76305 14.0038C8.78649 13.9476 8.80992 13.8913 8.83336 13.8351C8.80055 13.9101 8.76305 13.9828 8.71617 14.0507C8.67633 14.1093 8.61774 14.1374 8.75367 14.0062C8.72555 14.0343 8.69977 14.0671 8.67164 14.0953C8.66461 14.1023 8.58727 14.1796 8.58258 14.1773C8.58492 14.1773 8.75367 14.0554 8.62711 14.1398C8.55914 14.1867 8.48649 14.2242 8.41149 14.257C8.46774 14.2335 8.52399 14.2101 8.58024 14.1867C8.47242 14.2312 8.36461 14.2593 8.24977 14.2757C8.31305 14.2663 8.37399 14.2593 8.43727 14.2499C8.32946 14.2617 8.22164 14.2617 8.11383 14.2499C8.17711 14.2593 8.23805 14.2663 8.30133 14.2757C8.18649 14.2593 8.07633 14.2312 7.97086 14.1867C8.02711 14.2101 8.08336 14.2335 8.13961 14.257C8.06461 14.2242 7.99196 14.1867 7.92399 14.1398C7.86539 14.0999 7.83727 14.0413 7.96852 14.1773C7.94039 14.1492 7.90758 14.1234 7.87946 14.0953C7.87243 14.0882 7.79508 14.0109 7.79742 14.0062C7.79742 14.0085 7.9193 14.1773 7.83492 14.0507C7.78805 13.9828 7.75055 13.9101 7.71774 13.8351C7.74117 13.8913 7.76461 13.9476 7.78805 14.0038C7.74352 13.896 7.71539 13.7882 7.69899 13.6734C7.70836 13.7367 7.71539 13.7976 7.72477 13.8609C7.71305 13.7531 7.71305 13.6453 7.72477 13.5374C7.71539 13.6007 7.70836 13.6617 7.69899 13.7249C7.71539 13.6101 7.74352 13.4999 7.78805 13.3945C7.76461 13.4507 7.74117 13.507 7.71774 13.5632C7.75055 13.4882 7.78805 13.4156 7.83492 13.3476C7.87477 13.289 7.93336 13.2609 7.79742 13.3921C7.82555 13.364 7.85133 13.3312 7.87946 13.3031C7.88649 13.296 7.96383 13.2187 7.96852 13.221C7.96617 13.221 7.79742 13.3429 7.92399 13.2585C7.99196 13.2117 8.06461 13.1742 8.13961 13.1413C8.08336 13.1648 8.02711 13.1882 7.97086 13.2117C8.07867 13.1671 8.18649 13.139 8.30133 13.1226C8.23805 13.132 8.17711 13.139 8.11383 13.1484C8.22164 13.1367 8.32946 13.1367 8.43727 13.1484C8.37399 13.139 8.31305 13.132 8.24977 13.1226C8.36461 13.139 8.47477 13.1671 8.58024 13.2117C8.52399 13.1882 8.46774 13.1648 8.41149 13.1413C8.48649 13.1742 8.55914 13.2117 8.62711 13.2585C8.68571 13.2984 8.71383 13.357 8.58258 13.221C8.61071 13.2492 8.64352 13.2749 8.67164 13.3031C8.67867 13.3101 8.75602 13.3874 8.75367 13.3921C8.75367 13.3898 8.6318 13.221 8.71617 13.3476C8.76305 13.4156 8.80055 13.4882 8.83336 13.5632C8.80992 13.507 8.78649 13.4507 8.76305 13.3945C8.80758 13.5023 8.83571 13.6101 8.85211 13.7249C8.84274 13.6617 8.83571 13.6007 8.82633 13.5374C8.83102 13.5913 8.83571 13.6453 8.83571 13.6992C8.84039 14.0671 9.1568 14.4187 9.53883 14.4023C9.91617 14.3859 10.2466 14.0929 10.242 13.6992C10.2302 12.8484 9.69821 12.1312 8.91071 11.8382C8.19117 11.571 7.29118 11.8078 6.80133 12.3984C6.51071 12.7453 6.35133 13.1367 6.31149 13.5867C6.27867 13.9687 6.38649 14.3859 6.58571 14.7117C6.77555 15.0257 7.06383 15.307 7.39899 15.4617C7.81852 15.6538 8.24742 15.7078 8.70211 15.621C9.59977 15.4499 10.2326 14.5921 10.2443 13.6992C10.249 13.3312 9.91852 12.9796 9.54117 12.996C9.15446 13.0124 8.84039 13.3054 8.83571 13.6992ZM16.2888 13.6992C16.2888 13.7531 16.2841 13.807 16.2795 13.8609C16.2888 13.7976 16.2959 13.7367 16.3052 13.6734C16.2888 13.7882 16.2607 13.8984 16.2162 14.0038C16.2396 13.9476 16.2631 13.8913 16.2865 13.8351C16.2537 13.9101 16.2162 13.9828 16.1693 14.0507C16.1295 14.1093 16.0709 14.1374 16.2068 14.0062C16.1787 14.0343 16.1529 14.0671 16.1248 14.0953C16.1177 14.1023 16.0404 14.1796 16.0357 14.1773C16.038 14.1773 16.2068 14.0554 16.0802 14.1398C16.0123 14.1867 15.9396 14.2242 15.8646 14.257C15.9209 14.2335 15.9771 14.2101 16.0334 14.1867C15.9255 14.2312 15.8177 14.2593 15.7029 14.2757C15.7662 14.2663 15.8271 14.2593 15.8904 14.2499C15.7826 14.2617 15.6748 14.2617 15.567 14.2499C15.6302 14.2593 15.6912 14.2663 15.7545 14.2757C15.6396 14.2593 15.5295 14.2312 15.424 14.1867C15.4802 14.2101 15.5365 14.2335 15.5927 14.257C15.5177 14.2242 15.4451 14.1867 15.3771 14.1398C15.3185 14.0999 15.2904 14.0413 15.4216 14.1773C15.3935 14.1492 15.3607 14.1234 15.3326 14.0953C15.3256 14.0882 15.2482 14.0109 15.2506 14.0062C15.2506 14.0085 15.3724 14.1773 15.288 14.0507C15.2412 13.9828 15.2037 13.9101 15.1709 13.8351C15.1943 13.8913 15.2177 13.9476 15.2412 14.0038C15.1966 13.896 15.1685 13.7882 15.1521 13.6734C15.1615 13.7367 15.1685 13.7976 15.1779 13.8609C15.1662 13.7531 15.1662 13.6453 15.1779 13.5374C15.1685 13.6007 15.1615 13.6617 15.1521 13.7249C15.1685 13.6101 15.1966 13.4999 15.2412 13.3945C15.2177 13.4507 15.1943 13.507 15.1709 13.5632C15.2037 13.4882 15.2412 13.4156 15.288 13.3476C15.3279 13.289 15.3865 13.2609 15.2506 13.3921C15.2787 13.364 15.3045 13.3312 15.3326 13.3031C15.3396 13.296 15.417 13.2187 15.4216 13.221C15.4193 13.221 15.2505 13.3429 15.3771 13.2585C15.4451 13.2117 15.5177 13.1742 15.5927 13.1413C15.5365 13.1648 15.4802 13.1882 15.424 13.2117C15.5318 13.1671 15.6396 13.139 15.7545 13.1226C15.6912 13.132 15.6302 13.139 15.567 13.1484C15.6748 13.1367 15.7826 13.1367 15.8904 13.1484C15.8271 13.139 15.7662 13.132 15.7029 13.1226C15.8177 13.139 15.9279 13.1671 16.0334 13.2117C15.9771 13.1882 15.9209 13.1648 15.8646 13.1413C15.9396 13.1742 16.0123 13.2117 16.0802 13.2585C16.1388 13.2984 16.167 13.357 16.0357 13.221C16.0638 13.2492 16.0966 13.2749 16.1248 13.3031C16.1318 13.3101 16.2091 13.3874 16.2068 13.3921C16.2068 13.3898 16.0849 13.221 16.1693 13.3476C16.2162 13.4156 16.2537 13.4882 16.2865 13.5632C16.2631 13.507 16.2396 13.4507 16.2162 13.3945C16.2607 13.5023 16.2888 13.6101 16.3052 13.7249C16.2959 13.6617 16.2888 13.6007 16.2795 13.5374C16.2841 13.5913 16.2888 13.6453 16.2888 13.6992C16.2935 14.0671 16.6099 14.4187 16.992 14.4023C17.3693 14.3859 17.6998 14.0929 17.6951 13.6992C17.6834 12.8484 17.1513 12.1312 16.3638 11.8382C15.6443 11.571 14.7443 11.8078 14.2545 12.3984C13.9638 12.7453 13.8045 13.1367 13.7646 13.5867C13.7318 13.9687 13.8396 14.3859 14.0388 14.7117C14.2287 15.0257 14.517 15.307 14.8521 15.4617C15.2716 15.6538 15.7005 15.7078 16.1552 15.621C17.0529 15.4499 17.6857 14.5921 17.6974 13.6992C17.7021 13.3312 17.3716 12.9796 16.9943 12.996C16.6076 13.0124 16.2935 13.3054 16.2888 13.6992Z" fill="#367971"/>
</svg>
