<svg width="24" height="24" viewBox="0 0 24 24" fill="none" xmlns="http://www.w3.org/2000/svg">
<path d="M11.8221 7.03593C11.8221 7.22109 11.8081 7.40624 11.7846 7.58905C11.794 7.52577 11.801 7.46484 11.8104 7.40155C11.7612 7.7578 11.6674 8.10468 11.5292 8.43515C11.5526 8.3789 11.576 8.32265 11.5995 8.2664C11.4987 8.50312 11.3768 8.7328 11.2339 8.94609C11.1964 9.00234 11.1589 9.05624 11.119 9.11015C11.0323 9.23202 11.2221 8.98359 11.1448 9.07734C11.126 9.10077 11.1073 9.12421 11.0862 9.14999C11.0042 9.24843 10.9174 9.34218 10.8284 9.43359C10.737 9.52499 10.6432 9.60937 10.5448 9.6914C10.5214 9.71015 10.4979 9.73124 10.4721 9.74999C10.376 9.82734 10.6104 9.64687 10.5167 9.71484C10.4628 9.75468 10.4089 9.79218 10.3526 9.82968C10.1346 9.97734 9.90026 10.1016 9.65886 10.2047C9.71511 10.1812 9.77136 10.1578 9.82761 10.1344C9.49479 10.2726 9.15026 10.3664 8.79401 10.4156C8.85729 10.4062 8.91823 10.3992 8.98151 10.3898C8.61354 10.4391 8.24323 10.4391 7.87526 10.3898C7.93854 10.3992 7.99948 10.4062 8.06276 10.4156C7.70651 10.3664 7.35964 10.2726 7.02917 10.1344C7.08542 10.1578 7.14167 10.1812 7.19792 10.2047C6.9612 10.1039 6.73151 9.98202 6.51823 9.83905C6.46198 9.80155 6.40807 9.76405 6.35417 9.72421C6.23229 9.63749 6.48073 9.82734 6.38698 9.74999C6.36354 9.73124 6.34011 9.71249 6.31432 9.6914C6.21589 9.60937 6.12214 9.52265 6.03073 9.43359C5.93932 9.34218 5.85495 9.24843 5.77292 9.14999C5.75417 9.12655 5.73307 9.10312 5.71432 9.07734C5.63698 8.98124 5.81745 9.21562 5.74948 9.12187C5.70964 9.06796 5.67214 9.01405 5.63464 8.9578C5.48698 8.73984 5.36276 8.50546 5.25964 8.26405C5.28307 8.3203 5.30651 8.37655 5.32995 8.4328C5.19167 8.09999 5.09792 7.75546 5.0487 7.39921C5.05807 7.46249 5.06511 7.52343 5.07448 7.58671C5.02526 7.21874 5.02526 6.84843 5.07448 6.48046C5.06511 6.54374 5.05807 6.60468 5.0487 6.66796C5.09792 6.31171 5.19167 5.96484 5.32995 5.63437C5.30651 5.69062 5.28307 5.74687 5.25964 5.80312C5.36042 5.5664 5.48229 5.33671 5.62526 5.12343C5.66276 5.06718 5.70026 5.01327 5.74011 4.95937C5.82682 4.83749 5.63698 5.08593 5.71432 4.99218C5.73307 4.96874 5.75182 4.9453 5.77292 4.91952C5.85495 4.82108 5.94167 4.72733 6.03073 4.63593C6.12214 4.54452 6.21589 4.46015 6.31432 4.37812C6.33776 4.35937 6.3612 4.33827 6.38698 4.31952C6.48307 4.24218 6.2487 4.42265 6.34245 4.35468C6.39636 4.31484 6.45026 4.27733 6.50651 4.23983C6.72448 4.09218 6.95886 3.96796 7.20026 3.86483C7.14401 3.88827 7.08776 3.91171 7.03151 3.93515C7.36432 3.79687 7.70886 3.70312 8.06511 3.6539C8.00182 3.66327 7.94089 3.6703 7.87761 3.67968C8.24557 3.63046 8.61589 3.63046 8.98386 3.67968C8.92057 3.6703 8.85964 3.66327 8.79636 3.6539C9.15261 3.70312 9.49948 3.79687 9.82995 3.93515C9.7737 3.91171 9.71745 3.88827 9.6612 3.86483C9.89792 3.96562 10.1276 4.08749 10.3409 4.23046C10.3971 4.26796 10.451 4.30546 10.5049 4.3453C10.6268 4.43202 10.3784 4.24218 10.4721 4.31952C10.4956 4.33827 10.519 4.35702 10.5448 4.37812C10.6432 4.46015 10.737 4.54687 10.8284 4.63593C10.9198 4.72733 11.0042 4.82108 11.0862 4.91952C11.1049 4.94296 11.126 4.9664 11.1448 4.99218C11.2221 5.08827 11.0417 4.8539 11.1096 4.94765C11.1495 5.00155 11.187 5.05546 11.2245 5.11171C11.3721 5.32968 11.4964 5.56405 11.5995 5.80546C11.576 5.74921 11.5526 5.69296 11.5292 5.63671C11.6674 5.96952 11.7612 6.31405 11.8104 6.6703C11.801 6.60702 11.794 6.54609 11.7846 6.4828C11.8081 6.66796 11.8198 6.85077 11.8221 7.03593C11.8245 7.4039 12.1456 7.75546 12.5253 7.73905C12.905 7.72265 13.2307 7.42968 13.2284 7.03593C13.2237 6.06327 12.9307 5.07655 12.3589 4.28671C11.7682 3.46874 10.976 2.85937 10.0268 2.51249C8.19167 1.83749 5.99089 2.43515 4.75339 3.94921C4.10417 4.74608 3.71979 5.68124 3.63776 6.7078C3.56042 7.67343 3.80651 8.67421 4.30573 9.5039C4.79323 10.3125 5.53151 10.9969 6.39636 11.3859C7.35261 11.8148 8.3862 11.9391 9.41745 11.7328C11.2995 11.3578 12.8651 9.74296 13.1534 7.83984C13.1932 7.57265 13.2237 7.30546 13.2237 7.03593C13.226 6.66796 12.9003 6.3164 12.5206 6.3328C12.1432 6.35155 11.8221 6.64218 11.8221 7.03593ZM19.8401 8.67655C19.8401 8.8078 19.8307 8.93671 19.8143 9.06562C19.8237 9.00234 19.8307 8.9414 19.8401 8.87812C19.805 9.14062 19.7346 9.39374 19.6315 9.63515C19.6549 9.5789 19.6784 9.52265 19.7018 9.4664C19.6292 9.6328 19.5448 9.78984 19.4464 9.94218C19.4206 9.97968 19.3925 10.0172 19.3667 10.0547C19.3128 10.132 19.4206 9.98671 19.4206 9.98671C19.4206 9.99843 19.3807 10.0359 19.3714 10.0453C19.3128 10.1156 19.2518 10.1836 19.1862 10.2492C19.1253 10.3101 19.062 10.3687 18.994 10.425C18.9753 10.4414 18.9542 10.4578 18.9354 10.4742C18.8745 10.5258 19.0714 10.3758 19.0057 10.4203C18.9682 10.4461 18.9307 10.4742 18.8932 10.5C18.7385 10.6031 18.5768 10.6922 18.4057 10.7648C18.462 10.7414 18.5182 10.718 18.5745 10.6945C18.3307 10.7976 18.0776 10.8656 17.8175 10.9031C17.8807 10.8937 17.9417 10.8867 18.005 10.8773C17.7448 10.9101 17.4846 10.9101 17.2245 10.8773C17.2878 10.8867 17.3487 10.8937 17.412 10.9031C17.1495 10.868 16.8964 10.7976 16.6549 10.6945C16.7112 10.718 16.7675 10.7414 16.8237 10.7648C16.6573 10.6922 16.5003 10.6078 16.3479 10.5094C16.3104 10.4836 16.2729 10.4555 16.2354 10.4297C16.1581 10.3758 16.3034 10.4836 16.3034 10.4836C16.2917 10.4836 16.2542 10.4437 16.2448 10.4344C16.1745 10.3758 16.1065 10.3148 16.0409 10.2492C15.98 10.1883 15.9214 10.125 15.8651 10.057C15.8487 10.0383 15.8323 10.0172 15.8159 9.99843C15.7643 9.93749 15.9143 10.1344 15.8698 10.0687C15.844 10.0312 15.8159 9.99374 15.7901 9.95624C15.687 9.80155 15.5979 9.63984 15.5253 9.46874C15.5487 9.52499 15.5721 9.58124 15.5956 9.63749C15.4925 9.39374 15.4245 9.14062 15.387 8.88046C15.3964 8.94374 15.4034 9.00468 15.4128 9.06796C15.3799 8.8078 15.3799 8.54765 15.4128 8.28749C15.4034 8.35077 15.3964 8.41171 15.387 8.47499C15.4221 8.21249 15.4925 7.95937 15.5956 7.71796C15.5721 7.77421 15.5487 7.83046 15.5253 7.88671C15.5979 7.7203 15.6823 7.56327 15.7807 7.41093C15.8065 7.37343 15.8346 7.33593 15.8604 7.29843C15.9143 7.22109 15.8065 7.3664 15.8065 7.3664C15.8065 7.35468 15.8464 7.31718 15.8557 7.3078C15.9143 7.23749 15.9753 7.16952 16.0409 7.1039C16.1018 7.04296 16.1651 6.98437 16.2331 6.92812C16.2518 6.91171 16.2729 6.8953 16.2917 6.8789C16.3526 6.82734 16.1557 6.97733 16.2214 6.9328C16.2589 6.90702 16.2964 6.8789 16.3339 6.85312C16.4885 6.74999 16.6503 6.66093 16.8214 6.58827C16.7651 6.61171 16.7089 6.63515 16.6526 6.65859C16.8964 6.55546 17.1495 6.48749 17.4096 6.44999C17.3464 6.45937 17.2854 6.4664 17.2221 6.47577C17.4823 6.44296 17.7424 6.44296 18.0026 6.47577C17.9393 6.4664 17.8784 6.45937 17.8151 6.44999C18.0776 6.48515 18.3307 6.55546 18.5721 6.65859C18.5159 6.63515 18.4596 6.61171 18.4034 6.58827C18.5698 6.66093 18.7268 6.7453 18.8792 6.84374C18.9167 6.86952 18.9542 6.89765 18.9917 6.92343C19.069 6.97733 18.9237 6.86952 18.9237 6.86952C18.9354 6.86952 18.9729 6.90937 18.9823 6.91874C19.0526 6.97734 19.1206 7.03827 19.1862 7.1039C19.2471 7.16484 19.3057 7.22812 19.362 7.29608C19.3784 7.31484 19.3948 7.33593 19.4112 7.35468C19.4628 7.41562 19.3128 7.21874 19.3573 7.28437C19.3831 7.32187 19.4112 7.35937 19.437 7.39687C19.5401 7.55155 19.6292 7.71327 19.7018 7.88437C19.6784 7.82812 19.6549 7.77187 19.6315 7.71562C19.7346 7.95937 19.8026 8.21249 19.8401 8.47265C19.8307 8.40937 19.8237 8.34843 19.8143 8.28515C19.8307 8.4164 19.8401 8.54765 19.8401 8.67655C19.8425 9.04452 20.1612 9.39609 20.5432 9.37968C20.9229 9.36327 21.2487 9.0703 21.2464 8.67655C21.2417 7.94999 21.026 7.20468 20.5995 6.61171C20.1448 5.98124 19.5471 5.51952 18.8182 5.24999C17.4471 4.7414 15.776 5.1914 14.8479 6.32343C14.3464 6.93515 14.0534 7.64296 13.9901 8.4328C13.9292 9.16171 14.1214 9.92812 14.4987 10.5516C14.862 11.1516 15.4104 11.6672 16.0526 11.9578C16.7909 12.2906 17.5807 12.3891 18.3776 12.2297C19.7815 11.9484 20.9675 10.7344 21.1878 9.3164C21.2206 9.10312 21.2464 8.89218 21.2487 8.67655C21.251 8.30859 20.9229 7.95702 20.5456 7.97343C20.1612 7.99218 19.8425 8.2828 19.8401 8.67655ZM14.8901 18.4664C14.8901 18.7078 14.8901 18.9492 14.8901 19.1883C14.8901 19.4414 14.9089 19.7062 14.8807 19.9594C14.8901 19.8961 14.8971 19.8351 14.9065 19.7719C14.8901 19.8891 14.8596 19.9992 14.8151 20.107C14.8385 20.0508 14.862 19.9945 14.8854 19.9383C14.8549 20.0039 14.8221 20.0695 14.7823 20.1305C14.6885 20.2734 14.876 20.0273 14.801 20.1117C14.7776 20.1375 14.7542 20.1656 14.7284 20.1914C14.7026 20.2172 14.6745 20.2406 14.6487 20.2641C14.5596 20.3461 14.8057 20.1609 14.6792 20.2383C14.6112 20.2781 14.5456 20.318 14.4753 20.3508C14.5315 20.3273 14.5878 20.3039 14.644 20.2805C14.5362 20.325 14.426 20.3555 14.3089 20.3719C14.3721 20.3625 14.4331 20.3555 14.4964 20.3461C14.3487 20.3625 14.1964 20.3555 14.0487 20.3555C13.7651 20.3555 13.4815 20.3555 13.1979 20.3555C12.2534 20.3555 11.3112 20.3555 10.3667 20.3555C9.2112 20.3555 8.05807 20.3555 6.90261 20.3555C5.91589 20.3555 4.92917 20.3555 3.94011 20.3555C3.4737 20.3555 3.00729 20.3601 2.54089 20.3555C2.48229 20.3555 2.4237 20.3508 2.36745 20.3461C2.43073 20.3555 2.49167 20.3625 2.55495 20.3719C2.43776 20.3555 2.32761 20.325 2.21979 20.2805C2.27604 20.3039 2.33229 20.3273 2.38854 20.3508C2.32292 20.3203 2.25729 20.2875 2.19636 20.2476C2.05339 20.1539 2.29948 20.3414 2.21511 20.2664C2.18932 20.243 2.1612 20.2195 2.13542 20.1937C2.10964 20.168 2.0862 20.1398 2.06276 20.1141C1.98073 20.025 2.16589 20.2711 2.08854 20.1445C2.0487 20.0766 2.00886 20.0109 1.97604 19.9406C1.99948 19.9969 2.02292 20.0531 2.04636 20.1094C2.00182 20.0016 1.97136 19.8914 1.95495 19.7742C1.96432 19.8375 1.97136 19.8984 1.98073 19.9617C1.94323 19.6336 1.97136 19.2914 1.97136 18.9609C1.97136 18.5789 1.96432 18.1969 2.01354 17.8172C2.00417 17.8805 1.99714 17.9414 1.98776 18.0047C2.04636 17.5641 2.16354 17.1351 2.33698 16.725C2.31354 16.7812 2.29011 16.8375 2.26667 16.8937C2.39323 16.5984 2.54557 16.3148 2.7237 16.0476C2.77057 15.9797 2.81745 15.9117 2.86667 15.8461C2.89714 15.8039 2.97917 15.7125 2.83151 15.8906C2.85729 15.8601 2.88307 15.8273 2.90886 15.7945C3.00964 15.6726 3.11745 15.5531 3.22995 15.4406C3.34245 15.3281 3.45964 15.2203 3.58386 15.1195C3.60729 15.1008 3.65182 15.0492 3.67995 15.0422C3.64479 15.0492 3.52995 15.157 3.63542 15.0773C3.70104 15.0281 3.76901 14.9812 3.83698 14.9344C4.10417 14.7539 4.38776 14.6016 4.68307 14.4773C4.62682 14.5008 4.57057 14.5242 4.51432 14.5476C4.92448 14.3766 5.35339 14.2594 5.79401 14.1984C5.73073 14.2078 5.66979 14.2148 5.60651 14.2242C6.26511 14.1398 6.94714 14.182 7.60807 14.182C8.47292 14.182 9.33776 14.182 10.2026 14.182C10.5612 14.182 10.9198 14.1797 11.276 14.2266C11.2128 14.2172 11.1518 14.2101 11.0885 14.2008C11.5198 14.2617 11.9417 14.3766 12.3424 14.543C12.2862 14.5195 12.2299 14.4961 12.1737 14.4726C12.4854 14.6062 12.7831 14.768 13.0643 14.9601C13.1253 15.0023 13.1862 15.0469 13.2471 15.0914C13.355 15.1711 13.1089 14.9812 13.2354 15.0844C13.2682 15.1101 13.2987 15.1359 13.3292 15.1617C13.444 15.2601 13.5565 15.3633 13.6643 15.4734C13.7698 15.5812 13.8729 15.6961 13.969 15.8133C13.9901 15.8414 14.0112 15.8695 14.0346 15.8953C13.8846 15.7195 13.9995 15.8484 14.0299 15.893C14.0721 15.9492 14.112 16.0078 14.1518 16.0664C14.33 16.3312 14.4799 16.6125 14.6042 16.9078C14.5807 16.8516 14.5573 16.7953 14.5339 16.7391C14.7003 17.1398 14.8151 17.5594 14.8737 17.9883C14.8643 17.925 14.8573 17.8641 14.8479 17.8008C14.8737 18.0211 14.8878 18.2437 14.8901 18.4664C14.8925 18.8344 15.2135 19.1859 15.5932 19.1695C15.9729 19.1531 16.2987 18.8601 16.2964 18.4664C16.2917 17.3016 15.9307 16.125 15.244 15.1828C14.5128 14.1797 13.5096 13.4273 12.3237 13.0406C11.6534 12.8226 10.9596 12.7734 10.2612 12.7734C9.67292 12.7734 9.08698 12.7734 8.4987 12.7734C7.89167 12.7734 7.28464 12.7734 6.67995 12.7734C6.10573 12.7734 5.54089 12.7922 4.97604 12.9187C2.96276 13.3734 1.30339 14.9859 0.761981 16.9711C0.560418 17.7047 0.562762 18.4476 0.562762 19.2C0.562762 19.4508 0.546356 19.7086 0.572137 19.9594C0.644793 20.6156 1.01276 21.2391 1.61979 21.5391C1.91979 21.6867 2.23151 21.7641 2.56667 21.7641C2.64636 21.7641 2.72604 21.7641 2.80807 21.7641C3.15964 21.7641 3.5112 21.7641 3.86276 21.7641C5.05104 21.7641 6.24167 21.7641 7.42995 21.7641C8.77292 21.7641 10.1159 21.7641 11.4589 21.7641C12.3331 21.7641 13.205 21.7641 14.0792 21.7641C14.5151 21.7641 14.9346 21.7242 15.326 21.4945C15.912 21.15 16.2753 20.5219 16.301 19.8445C16.3104 19.6078 16.301 19.3687 16.301 19.1297C16.301 18.907 16.301 18.6867 16.301 18.4641C16.301 18.0961 15.9776 17.7445 15.5979 17.7609C15.2112 17.7797 14.8901 18.0726 14.8901 18.4664Z" fill="#367971"/>
<path d="M22.0359 17.4258C22.0359 17.6273 22.0499 17.8359 22.0265 18.0375C22.0359 17.9742 22.0429 17.9133 22.0523 17.85C22.0405 17.9344 22.0195 18.0141 21.989 18.0937C22.0124 18.0375 22.0359 17.9812 22.0593 17.925C22.0359 17.9812 22.0077 18.0375 21.9726 18.0891C21.9304 18.1523 21.8835 18.1617 22.0101 18.0469C21.989 18.068 21.9702 18.0937 21.9468 18.1148C21.9374 18.1242 21.8859 18.1805 21.8788 18.1781C21.8835 18.1805 22.0499 18.0586 21.921 18.1406C21.8695 18.1734 21.8132 18.2016 21.757 18.2273C21.8132 18.2039 21.8695 18.1805 21.9257 18.157C21.846 18.1875 21.7663 18.2086 21.6819 18.2203C21.7452 18.2109 21.8062 18.2039 21.8694 18.1945C21.6398 18.2203 21.4007 18.2039 21.171 18.2039C20.6859 18.2039 20.1984 18.2039 19.7132 18.2039C18.5976 18.2039 17.4843 18.2039 16.3687 18.2039C16.1109 18.2039 15.853 18.2039 15.5929 18.2039C15.8273 18.4383 16.0616 18.6727 16.296 18.907C16.296 18.3141 16.2773 17.7281 16.1413 17.1445C15.9655 16.3969 15.6257 15.6773 15.1593 15.068C14.878 14.7023 14.5734 14.3672 14.2148 14.0766C14.2148 14.407 14.2148 14.7398 14.2148 15.0703C14.2991 14.9906 14.3882 14.9156 14.4773 14.8406C14.5382 14.7891 14.3273 14.9508 14.4374 14.8711C14.4562 14.857 14.4773 14.843 14.496 14.8266C14.5452 14.7914 14.5968 14.7562 14.6484 14.7234C14.8452 14.5945 15.0515 14.4867 15.2671 14.3953C15.2109 14.4187 15.1546 14.4422 15.0984 14.4656C15.4124 14.3344 15.7405 14.2453 16.0757 14.1961C16.0124 14.2055 15.9515 14.2125 15.8882 14.2219C16.3148 14.1656 16.7507 14.1844 17.1773 14.1844C17.6624 14.1844 18.1499 14.1844 18.6351 14.1844C18.8624 14.1844 19.0874 14.1891 19.3124 14.2195C19.2491 14.2102 19.1882 14.2031 19.1249 14.1937C19.4694 14.2406 19.807 14.332 20.128 14.468C20.0718 14.4445 20.0155 14.4211 19.9593 14.3977C20.1866 14.4961 20.407 14.6133 20.6132 14.7492C20.6648 14.7844 20.714 14.8195 20.7655 14.8547C20.8734 14.9344 20.7562 14.8266 20.721 14.8195C20.7421 14.8242 20.7749 14.8617 20.7937 14.8781C20.8921 14.9602 20.9882 15.0469 21.0796 15.1359C21.1663 15.2227 21.2507 15.3141 21.328 15.4078C21.3468 15.4312 21.3655 15.457 21.3866 15.4805C21.4359 15.5367 21.2695 15.3211 21.3515 15.4359C21.3866 15.4852 21.4241 15.5367 21.4593 15.5859C21.5999 15.7969 21.7218 16.0195 21.8202 16.2539C21.7968 16.1977 21.7734 16.1414 21.7499 16.0852C21.8835 16.4062 21.9773 16.7437 22.0241 17.0883C22.0148 17.025 22.0077 16.9641 21.9984 16.9008C22.0241 17.0789 22.0335 17.2523 22.0359 17.4258C22.0382 17.7937 22.3593 18.1453 22.739 18.1289C23.1187 18.1125 23.4445 17.8195 23.4421 17.4258C23.4374 16.35 23.0577 15.3398 22.3945 14.5008C21.7898 13.7367 20.9132 13.1766 19.971 12.9305C19.3616 12.7711 18.7452 12.7781 18.1218 12.7781C17.5734 12.7781 17.0273 12.7781 16.4788 12.7781C15.2624 12.7781 14.1023 13.2375 13.2187 14.0742C12.9632 14.3156 12.928 14.8336 13.2187 15.068C13.378 15.1969 13.5304 15.3352 13.6734 15.4805C13.7437 15.5508 13.8093 15.6258 13.8749 15.7008C13.9101 15.7406 13.9429 15.7805 13.9757 15.8227C13.9898 15.8414 14.0038 15.8602 14.0202 15.8766C14.0695 15.9375 13.9077 15.7266 13.9851 15.832C14.2312 16.1648 14.4374 16.5211 14.5991 16.9031C14.5757 16.8469 14.5523 16.7906 14.5288 16.7344C14.6952 17.1352 14.8101 17.5547 14.8687 17.9836C14.8593 17.9203 14.8523 17.8594 14.8429 17.7961C14.8921 18.1641 14.8874 18.5344 14.8874 18.9047C14.8874 19.2844 15.2085 19.6078 15.5905 19.6078C16.5445 19.6078 17.4984 19.6078 18.4546 19.6078C19.5351 19.6078 20.6179 19.6102 21.6984 19.6078C22.2913 19.6055 22.807 19.3312 23.1515 18.8484C23.4562 18.4219 23.4398 17.918 23.4398 17.4211C23.4398 17.0531 23.1163 16.7016 22.7366 16.718C22.3569 16.7414 22.0359 17.032 22.0359 17.4258Z" fill="#367971"/>
</svg>
