<svg width="24" height="24" viewBox="0 0 24 24" fill="none" xmlns="http://www.w3.org/2000/svg">
<path d="M16.3356 6.32811C16.3356 6.5578 16.3192 6.78515 16.2887 7.01249C16.2981 6.94921 16.3051 6.88827 16.3145 6.82499C16.2536 7.26561 16.1364 7.69218 15.9653 8.10233C15.9887 8.04608 16.0122 7.98983 16.0356 7.93358C15.9091 8.2289 15.7591 8.51015 15.5786 8.77733C15.5317 8.8453 15.4848 8.91327 15.4356 8.9789C15.3325 9.11718 15.5247 8.86874 15.452 8.9578C15.4262 8.99061 15.4005 9.02108 15.3747 9.0539C15.2762 9.17108 15.1731 9.28593 15.0653 9.39374C14.9575 9.50155 14.8426 9.60702 14.7255 9.70311C14.695 9.7289 14.6622 9.75468 14.6294 9.78046C14.538 9.85311 14.7887 9.66093 14.6505 9.76405C14.5848 9.81327 14.5169 9.86015 14.4489 9.90702C14.1841 10.0851 13.9005 10.2375 13.6051 10.3641C13.6614 10.3406 13.7176 10.3172 13.7739 10.2937C13.3637 10.4648 12.9348 10.582 12.4966 10.643C12.5598 10.6336 12.6208 10.6266 12.6841 10.6172C12.2294 10.6781 11.77 10.6781 11.3176 10.6172C11.3809 10.6266 11.4419 10.6336 11.5051 10.643C11.0645 10.582 10.638 10.4648 10.2278 10.2937C10.2841 10.3172 10.3403 10.3406 10.3966 10.3641C10.1012 10.2375 9.81999 10.0875 9.5528 9.90702C9.48483 9.86015 9.41686 9.81327 9.35124 9.76405C9.21296 9.66093 9.46139 9.85311 9.37233 9.78046C9.33952 9.75468 9.30905 9.7289 9.27624 9.70311C9.15905 9.60468 9.04421 9.50155 8.93639 9.39374C8.82858 9.28593 8.72311 9.17108 8.62702 9.0539C8.60124 9.02343 8.57546 8.99061 8.54967 8.9578C8.47702 8.8664 8.66921 9.11718 8.56608 8.9789C8.51686 8.91327 8.46999 8.8453 8.42311 8.77733C8.24499 8.51249 8.09264 8.2289 7.96608 7.93358C7.98952 7.98983 8.01296 8.04608 8.03639 8.10233C7.8653 7.69218 7.74811 7.26327 7.68717 6.82499C7.69655 6.88827 7.70358 6.94921 7.71296 7.01249C7.65202 6.5578 7.65202 6.09843 7.71296 5.64608C7.70358 5.70936 7.69655 5.7703 7.68717 5.83358C7.74811 5.39296 7.8653 4.9664 8.03639 4.55624C8.01296 4.61249 7.98952 4.66874 7.96608 4.72499C8.09264 4.42968 8.24264 4.14843 8.42311 3.88124C8.46999 3.81327 8.51686 3.7453 8.56608 3.67968C8.66921 3.5414 8.47702 3.78983 8.54967 3.70077C8.57546 3.66796 8.60124 3.63749 8.62702 3.60468C8.72546 3.48749 8.82858 3.37265 8.93639 3.26483C9.04421 3.15702 9.15905 3.05155 9.27624 2.95546C9.30671 2.92968 9.33952 2.9039 9.37233 2.87812C9.46374 2.80546 9.21296 2.99765 9.35124 2.89452C9.41686 2.8453 9.48483 2.79843 9.5528 2.75155C9.81764 2.57343 10.1012 2.42108 10.3966 2.29452C10.3403 2.31796 10.2841 2.3414 10.2278 2.36483C10.638 2.19374 11.0669 2.07655 11.5051 2.01562C11.4419 2.02499 11.3809 2.03202 11.3176 2.0414C11.7723 1.98046 12.2317 1.98046 12.6841 2.0414C12.6208 2.03202 12.5598 2.02499 12.4966 2.01562C12.9372 2.07655 13.3637 2.19374 13.7739 2.36483C13.7176 2.3414 13.6614 2.31796 13.6051 2.29452C13.9005 2.42108 14.1817 2.57108 14.4489 2.75155C14.5169 2.79843 14.5848 2.8453 14.6505 2.89452C14.7887 2.99765 14.5403 2.80546 14.6294 2.87812C14.6622 2.9039 14.6926 2.92968 14.7255 2.95546C14.8426 3.0539 14.9575 3.15702 15.0653 3.26483C15.1731 3.37265 15.2786 3.48749 15.3747 3.60468C15.4005 3.63515 15.4262 3.66796 15.452 3.70077C15.5247 3.79218 15.3325 3.5414 15.4356 3.67968C15.4848 3.7453 15.5317 3.81327 15.5786 3.88124C15.7567 4.14608 15.9091 4.42968 16.0356 4.72499C16.0122 4.66874 15.9887 4.61249 15.9653 4.55624C16.1364 4.9664 16.2536 5.3953 16.3145 5.83358C16.3051 5.7703 16.2981 5.70936 16.2887 5.64608C16.3192 5.87108 16.3356 6.09843 16.3356 6.32811C16.338 6.69608 16.6591 7.04765 17.0387 7.03124C17.4184 7.01483 17.7442 6.72187 17.7419 6.32811C17.7372 5.1703 17.388 4.00077 16.7153 3.0539C16.0169 2.07187 15.063 1.33827 13.9309 0.921084C12.8294 0.513272 11.5731 0.480459 10.4434 0.799209C9.35124 1.10624 8.33171 1.75312 7.60983 2.63202C6.83405 3.57655 6.37233 4.69921 6.27389 5.91796C6.18014 7.08515 6.47546 8.29218 7.08014 9.29296C7.66374 10.2539 8.5403 11.0625 9.56921 11.5289C10.7106 12.0445 11.9551 12.1945 13.1856 11.9461C14.2989 11.7211 15.3489 11.1305 16.1341 10.3125C16.9262 9.48749 17.4864 8.41405 17.6575 7.27968C17.7044 6.96327 17.7395 6.64921 17.7395 6.33046C17.7419 5.96249 17.4161 5.61093 17.0364 5.62733C16.6567 5.6414 16.338 5.93437 16.3356 6.32811ZM19.4762 22.0078C18.9747 22.0078 18.4731 22.0078 17.9716 22.0078C16.7692 22.0078 15.5669 22.0078 14.3645 22.0078C12.9161 22.0078 11.4653 22.0078 10.0169 22.0078C8.77936 22.0078 7.54186 22.0078 6.30202 22.0078C5.71374 22.0078 5.12546 22.0101 4.53717 22.0078C4.47858 22.0078 4.41764 22.0055 4.35905 21.9984C4.42233 22.0078 4.48327 22.0148 4.54655 22.0242C4.41999 22.0078 4.30046 21.975 4.18327 21.9258C4.23952 21.9492 4.29577 21.9726 4.35202 21.9961C4.27702 21.9633 4.20436 21.9234 4.13639 21.8789C3.99342 21.7828 4.24186 21.975 4.15749 21.8953C4.13171 21.8719 4.10358 21.8484 4.0778 21.8226C4.05202 21.7969 4.02858 21.7711 4.00514 21.743C3.9278 21.6586 4.11764 21.9047 4.02155 21.7641C3.97467 21.6961 3.93717 21.6234 3.90436 21.5484C3.9278 21.6047 3.95124 21.6609 3.97467 21.7172C3.92546 21.6 3.89264 21.4805 3.87624 21.3539C3.88561 21.4172 3.89264 21.4781 3.90202 21.5414C3.86217 21.1851 3.89264 20.8125 3.89264 20.4562C3.89264 20.0203 3.89499 19.5867 3.95124 19.1531C3.94186 19.2164 3.93483 19.2773 3.92546 19.3406C4.00514 18.7641 4.15749 18.1992 4.38249 17.6625C4.35905 17.7187 4.33561 17.775 4.31217 17.8312C4.44108 17.5242 4.59342 17.2289 4.76686 16.9453C4.85358 16.8047 4.94499 16.6664 5.04108 16.5328C5.06452 16.5 5.0903 16.4648 5.11374 16.432C5.12546 16.4156 5.13952 16.3992 5.15124 16.3828C5.21452 16.2984 5.09733 16.4531 5.09733 16.4508C5.12077 16.3828 5.21686 16.3008 5.26374 16.2469C5.47702 15.9961 5.70905 15.7594 5.95514 15.5414C6.01374 15.4898 6.07233 15.4406 6.13092 15.3914C6.16374 15.3656 6.19421 15.3398 6.22702 15.3141C6.26452 15.2836 6.33014 15.2391 6.15905 15.368C6.18014 15.3516 6.19889 15.3375 6.21999 15.3211C6.35124 15.2226 6.48717 15.1289 6.6278 15.0398C6.94655 14.8359 7.28405 14.6601 7.63327 14.5125C7.57702 14.5359 7.52077 14.5594 7.46452 14.5828C8.00124 14.3578 8.56608 14.2055 9.14264 14.1258C9.07936 14.1351 9.01843 14.1422 8.95514 14.1516C9.68405 14.0555 10.4341 14.093 11.1676 14.093C12.063 14.093 12.9583 14.093 13.8536 14.093C14.2544 14.093 14.6528 14.1 15.0512 14.1516C14.988 14.1422 14.927 14.1351 14.8637 14.1258C15.4403 14.2055 16.0051 14.3578 16.5419 14.5828C16.4856 14.5594 16.4294 14.5359 16.3731 14.5125C16.6801 14.6414 16.9755 14.7937 17.2591 14.9672C17.3997 15.0539 17.538 15.1453 17.6716 15.2414C17.7044 15.2648 17.7395 15.2906 17.7723 15.3141C17.7887 15.3258 17.8051 15.3398 17.8216 15.3516C17.9059 15.4148 17.7512 15.2976 17.7536 15.2976C17.8216 15.3211 17.9036 15.4172 17.9575 15.4641C18.2083 15.6773 18.445 15.9094 18.663 16.1555C18.7145 16.2141 18.7637 16.2726 18.813 16.3312C18.8387 16.3641 18.8645 16.3945 18.8903 16.4273C18.9208 16.4648 18.9653 16.5305 18.8364 16.3594C18.8528 16.3805 18.8669 16.3992 18.8833 16.4203C18.9817 16.5516 19.0755 16.6875 19.1645 16.8281C19.3684 17.1469 19.5442 17.4844 19.6919 17.8336C19.6684 17.7773 19.645 17.7211 19.6216 17.6648C19.8466 18.2016 19.9989 18.7664 20.0786 19.343C20.0692 19.2797 20.0622 19.2187 20.0528 19.1555C20.1091 19.5891 20.1114 20.0226 20.1114 20.4586C20.1114 20.8172 20.1419 21.1875 20.102 21.5437C20.1114 21.4805 20.1184 21.4195 20.1278 21.3562C20.1114 21.4828 20.0786 21.6023 20.0294 21.7195C20.0528 21.6633 20.0762 21.607 20.0997 21.5508C20.0669 21.6258 20.027 21.6984 19.9825 21.7664C19.8864 21.9094 20.0786 21.6609 19.9989 21.7453C19.9755 21.7711 19.952 21.7992 19.9262 21.825C19.9005 21.8508 19.8747 21.8742 19.8465 21.8976C19.7622 21.975 20.0083 21.7851 19.8676 21.8812C19.7997 21.9281 19.727 21.9656 19.652 21.9984C19.7083 21.975 19.7645 21.9516 19.8208 21.9281C19.7036 21.9773 19.5841 22.0101 19.4575 22.0266C19.5208 22.0172 19.5817 22.0101 19.645 22.0008C19.5841 22.0031 19.5301 22.0078 19.4762 22.0078C19.1083 22.0125 18.7567 22.3289 18.7731 22.7109C18.7895 23.0883 19.0825 23.4187 19.4762 23.4141C20.2872 23.4047 21.0301 22.9219 21.3466 22.1719C21.5247 21.75 21.5153 21.3211 21.5153 20.8734C21.5153 20.5594 21.52 20.243 21.5153 19.9289C21.5059 19.2937 21.4145 18.6516 21.2411 18.0398C20.9059 16.8562 20.2637 15.7594 19.4012 14.8828C18.5387 14.0062 17.4536 13.35 16.277 12.9914C15.4825 12.75 14.6622 12.6797 13.8372 12.6797C13.0919 12.6797 12.3489 12.6797 11.6036 12.6797C11.0223 12.6797 10.4411 12.6797 9.86217 12.6797C8.72546 12.6797 7.61452 12.9422 6.59264 13.4391C5.48639 13.9758 4.54889 14.8101 3.83405 15.8016C3.1028 16.8141 2.67858 18.007 2.53327 19.2422C2.48639 19.6289 2.48639 20.018 2.48639 20.407C2.48639 20.7281 2.48405 21.0492 2.48639 21.3726C2.49342 22.1203 2.91764 22.8609 3.60202 23.1891C3.91374 23.3391 4.23483 23.4117 4.57936 23.4117C4.86061 23.4117 5.13952 23.4117 5.42077 23.4117C5.97389 23.4117 6.52702 23.4117 7.08014 23.4117C7.81374 23.4117 8.54733 23.4117 9.28093 23.4117C10.113 23.4117 10.9473 23.4117 11.7794 23.4117C12.6208 23.4117 13.4598 23.4117 14.3012 23.4117C15.0583 23.4117 15.8153 23.4117 16.57 23.4117C17.1606 23.4117 17.7536 23.4117 18.3442 23.4117C18.677 23.4117 19.0122 23.4117 19.345 23.4117C19.3895 23.4117 19.4341 23.4117 19.4786 23.4117C19.8465 23.4117 20.1981 23.0883 20.1817 22.7086C20.163 22.3289 19.87 22.0078 19.4762 22.0078Z" fill="#367971"/>
</svg>
