<svg width="24" height="24" viewBox="0 0 24 24" fill="none" xmlns="http://www.w3.org/2000/svg">
<path fill-rule="evenodd" clip-rule="evenodd" d="M8.25 1.5C8.66423 1.5 9 1.83579 9 2.25V3H12.75C13.1642 3 13.5 3.33579 13.5 3.75C13.5 4.16421 13.1642 4.5 12.75 4.5H9V5.25C9 5.66421 8.66423 6 8.25 6C7.83577 6 7.5 5.66421 7.5 5.25V4.5H6C4.34314 4.5 3 5.84314 3 7.5V18C3 19.6568 4.34314 21 6 21H18C19.6568 21 21 19.6568 21 18V7.5C21 5.84314 19.6568 4.5 18 4.5H16.5V5.25C16.5 5.66421 16.1642 6 15.75 6C15.3358 6 15 5.66421 15 5.25V2.25C15 1.83579 15.3358 1.5 15.75 1.5C16.1642 1.5 16.5 1.83579 16.5 2.25V3H18C20.4853 3 22.5 5.01472 22.5 7.5V18C22.5 20.4853 20.4853 22.5 18 22.5H6C3.51472 22.5 1.5 20.4853 1.5 18V7.5C1.5 5.01472 3.51472 3 6 3H7.5V2.25C7.5 1.83579 7.83577 1.5 8.25 1.5ZM10.2803 12.2197C10.5732 12.5126 10.5732 12.9874 10.2803 13.2803L9.31065 14.25H16.5C16.9142 14.25 17.25 14.5858 17.25 15C17.25 15.4142 16.9142 15.75 16.5 15.75H9.31065L10.2803 16.7197C10.5732 17.0126 10.5732 17.4874 10.2803 17.7803C9.98745 18.0732 9.51255 18.0732 9.21968 17.7803L6.96967 15.5303C6.67678 15.2374 6.67678 14.7626 6.96967 14.4697L9.21968 12.2197C9.51255 11.9268 9.98745 11.9268 10.2803 12.2197ZM6 8.25C5.58579 8.25 5.25 8.58577 5.25 9C5.25 9.41423 5.58579 9.75 6 9.75H18C18.4142 9.75 18.75 9.41423 18.75 9C18.75 8.58577 18.4142 8.25 18 8.25H6Z" fill="#367971"/>
</svg>
